
<svg width="230px" height="191px" viewBox="0 0 230 191" version="1.1" xmlns="http://www.w3.org/2000/svg" xmlns:xlink="http://www.w3.org/1999/xlink">
    <!-- Generator: Sketch 50 (54983) - http://www.bohemiancoding.com/sketch -->
    <desc>Created with Sketch.</desc>
    <defs></defs>
    <g id="Symbols" stroke="none" stroke-width="1" fill="none" fill-rule="evenodd">
        <g id="Aligle" fill="#1F2673" stroke="#1F2673">
            <path d="M15.2900391,74.75 L21.6181641,74.75 L21.9697266,75.1015625 L22.3212891,74.75 C25.8174003,74.75 28.0439405,75.804677 29.0009766,77.9140625 L32.5166016,90.5703125 L31.4619141,91.625 C31.4619141,92.9921943 32.3994047,94.0468713 34.2744141,94.7890625 C37.2627103,104.867238 39.6064368,109.90625 41.3056641,109.90625 C42.7119211,110.375002 43.4150391,110.843748 43.4150391,111.3125 C43.4150391,113.890638 42.2431758,115.179688 39.8994141,115.179688 L38.1416016,114.828125 C32.8486063,115.76563 28.5127122,116.234375 25.1337891,116.234375 C23.9619082,115.023431 23.3759766,113.617196 23.3759766,112.015625 C25.4853621,110.882807 26.5400391,110.062503 26.5400391,109.554688 L19.1572266,89.515625 L17.7509766,85.6484375 C17.8095706,84.7109328 18.0439433,84.2421875 18.4541016,84.2421875 C18.4541016,83.539059 17.9853562,83.1875 17.0478516,83.1875 C16.4619111,82.7773417 15.8759795,81.7226647 15.2900391,80.0234375 C13.6494059,79.5546852 12.8291016,79.0859398 12.8291016,78.6171875 L12.8291016,77.2109375 C12.8291016,75.5703043 13.6494059,74.75 15.2900391,74.75 Z M20.2119141,77.5625 L20.5634766,77.5625 L20.9150391,77.2109375 L21.2666016,77.2109375 C21.3837896,78.1484422 21.7353486,78.6171875 22.3212891,78.6171875 L22.6728516,78.265625 L22.6728516,77.9140625 C21.7353469,77.9140625 21.2666016,77.5625035 21.2666016,76.859375 L21.9697266,76.859375 L21.9697266,76.15625 L21.6181641,76.15625 L20.2119141,77.5625 Z M26.1884766,83.890625 C26.1884766,84.5937535 25.8369176,84.9453125 25.1337891,84.9453125 L25.1337891,86 C25.915043,86 26.7353473,86.351559 27.5947266,87.0546875 L28.2978516,85.296875 L28.2978516,84.9453125 C27.8290992,84.0078078 27.1259813,83.5390625 26.1884766,83.5390625 L26.1884766,83.890625 Z M23.0244141,87.0546875 L23.0244141,87.7578125 L24.0791016,88.109375 L24.0791016,87.7578125 L23.3759766,87.0546875 L23.0244141,87.0546875 Z M22.3212891,88.4609375 L22.3212891,88.8125 L23.3759766,89.1640625 L23.3759766,88.4609375 L22.3212891,88.4609375 Z M23.7275391,88.4609375 L23.7275391,89.1640625 L24.7822266,89.515625 L24.7822266,89.8671875 L24.4306641,90.21875 L24.4306641,90.5703125 L25.4853516,90.5703125 L25.8369141,89.515625 L25.1337891,88.8125 L24.7822266,89.1640625 L24.0791016,89.1640625 L24.0791016,88.4609375 L23.7275391,88.4609375 Z M15.2900391,88.4609375 L15.9931641,88.4609375 C16.9306687,88.4609375 18.102532,90.9218504 19.5087891,95.84375 C18.3369082,97.250007 17.0478586,97.953125 15.6416016,97.953125 L15.2900391,98.3046875 L15.2900391,99.359375 C15.7587914,99.359375 15.9931641,99.9453066 15.9931641,101.117188 L16.3447266,100.765625 L20.5634766,100.765625 C22.2041098,100.765625 23.0244141,101.820302 23.0244141,103.929688 L21.9697266,104.984375 L22.3212891,106.039062 L21.9697266,106.390625 L20.9150391,106.390625 L18.8056641,106.039062 L16.6962891,106.742188 L15.6416016,106.742188 L14.2353516,110.257812 C16.5791133,110.882816 17.7509766,112.171865 17.7509766,114.125 L16.6962891,114.828125 L16.3447266,114.476562 L16.3447266,114.828125 L16.6962891,115.179688 L16.6962891,115.53125 L15.2900391,116.234375 L12.1259766,115.882812 L11.0712891,116.234375 L8.25878906,115.882812 L5.79785156,116.234375 C3.64940332,116.234375 2.36035371,114.710953 1.93066406,111.664062 C1.93066406,110.960934 2.75096836,110.609375 4.39160156,110.609375 C7.67286797,108.558583 9.31347656,106.214857 9.31347656,103.578125 C10.7197336,100.765611 12.1259695,97.1328348 13.5322266,92.6796875 L13.8837891,92.328125 L14.2353516,92.328125 L13.8837891,91.9765625 L13.8837891,91.625 C14.274416,89.5156145 14.7431613,88.4609375 15.2900391,88.4609375 Z M20.2119141,91.2734375 C20.543947,92.4453184 21.3642513,93.03125 22.6728516,93.03125 L24.0791016,93.03125 L24.0791016,91.2734375 L22.6728516,89.515625 L20.2119141,91.2734375 Z M26.8916016,96.8984375 L27.5947266,98.65625 L27.9462891,98.65625 C27.9462891,98.1874977 28.297848,97.953125 29.0009766,97.953125 L29.0009766,97.6015625 L26.8916016,96.8984375 Z M14.2353516,99.0078125 L14.2353516,100.0625 L15.2900391,100.0625 L14.2353516,99.0078125 Z M16.6962891,101.820312 L16.6962891,102.523438 L17.7509766,102.171875 L17.7509766,101.820312 L16.6962891,101.820312 Z M11.0712891,104.632812 L13.8837891,106.039062 C14.2353533,105.101558 14.5869123,104.632812 14.9384766,104.632812 L15.2900391,104.984375 L15.6416016,104.632812 C15.1533179,103.226555 14.2158272,102.523438 12.8291016,102.523438 C11.6572207,102.894533 11.0712891,103.597651 11.0712891,104.632812 Z M31.8134766,104.632812 L31.8134766,104.984375 L33.2197266,106.390625 L34.2744141,106.390625 L34.6259766,104.28125 L34.2744141,103.929688 L32.5166016,103.929688 L31.8134766,104.632812 Z M8.61035156,112.367188 L10.0166016,112.367188 L9.31347656,111.664062 L8.61035156,112.367188 Z M46.7548828,75.1894531 L48.1611328,75.5410156 L49.5673828,75.1894531 C50.7392637,75.1894531 51.3251953,75.4238258 51.3251953,75.8925781 L51.6767578,75.5410156 L55.1923828,75.5410156 L58.3564453,75.1894531 L60.1142578,75.5410156 L60.1142578,79.0566406 L59.4111328,79.7597656 L59.0595703,78.7050781 L58.3564453,78.7050781 L57.3017578,79.7597656 L57.6533203,80.1113281 C56.9501918,80.3457043 56.5986328,81.0488223 56.5986328,82.2207031 L56.5986328,91.0097656 L56.2470703,93.1191406 L56.5986328,93.4707031 L56.5986328,93.8222656 L56.2470703,95.5800781 L56.5986328,95.9316406 L56.2470703,97.6894531 L56.2470703,99.7988281 L56.5986328,108.939453 L54.8408203,112.103516 L55.1923828,112.455078 L55.5439453,112.455078 L55.8955078,112.103516 L56.2470703,112.103516 L57.6533203,112.806641 L60.1142578,112.103516 L60.1142578,114.212891 L59.4111328,114.916016 L59.4111328,114.212891 L58.7080078,114.212891 L58.7080078,114.564453 L59.0595703,114.916016 L59.0595703,115.267578 C58.2978478,115.814456 57.2431708,116.166015 55.8955078,116.322266 L55.5439453,115.970703 L49.2158203,116.673828 L48.5126953,115.970703 L47.8095703,116.673828 L44.6455078,116.673828 L42.8876953,117.025391 C41.9501906,115.951167 41.4814453,114.310558 41.4814453,112.103516 L41.4814453,111.048828 L44.2939453,111.048828 L44.2939453,110.345703 L44.9970703,110.345703 C44.9970703,111.048832 46.0517473,111.400391 48.1611328,111.400391 C48.1611328,111.869143 47.8095738,112.103516 47.1064453,112.103516 L47.1064453,112.455078 C48.2783262,112.455078 48.8642578,112.689451 48.8642578,113.158203 L47.4580078,113.509766 L47.4580078,114.212891 L47.8095703,113.861328 L48.5126953,113.861328 L48.1611328,115.619141 L49.9189453,115.267578 L49.5673828,114.916016 L49.5673828,114.564453 L51.3251953,113.861328 L50.9736328,112.103516 L50.9736328,110.697266 L51.6767578,109.642578 L51.3251953,108.236328 L50.9736328,108.236328 L50.9736328,108.939453 L50.6220703,108.939453 L50.2705078,108.587891 L49.9189453,108.587891 L49.5673828,109.642578 L48.8642578,109.642578 L48.8642578,108.587891 L46.0517578,108.587891 L44.6455078,109.642578 L44.2939453,109.642578 L44.2939453,108.939453 L44.6455078,97.3378906 L44.2939453,89.2519531 L44.6455078,85.7363281 L44.2939453,83.9785156 L44.6455078,84.3300781 L45.3486328,84.3300781 L45.3486328,83.9785156 L44.6455078,83.9785156 L44.6455078,82.5722656 L45.3486328,81.1660156 L46.7548828,82.2207031 C46.7548828,80.9511655 47.4580008,80.0136749 48.8642578,79.4082031 L48.8642578,79.0566406 C48.3955055,79.0566406 48.1611328,78.7050816 48.1611328,78.0019531 L47.8095703,77.6503906 L46.0517578,77.6503906 C45.7001936,77.6503906 45.3486346,78.1191359 44.9970703,79.0566406 L45.3486328,80.4628906 L45.3486328,80.8144531 L44.2939453,80.8144531 L44.2939453,78.7050781 C43.825193,78.7050781 43.5908203,79.1738234 43.5908203,80.1113281 L43.2392578,80.4628906 L42.1845703,80.4628906 L41.4814453,79.7597656 L41.4814453,78.7050781 C41.4814453,76.3613164 42.8876812,75.1894531 45.7001953,75.1894531 L46.7548828,75.1894531 Z M45.7001953,89.6035156 L45.7001953,89.9550781 C45.7001953,90.6582066 46.1689406,91.0097656 47.1064453,91.0097656 C47.7314484,90.8535148 48.3173801,90.2675832 48.8642578,89.2519531 L46.4033203,88.9003906 L45.7001953,89.6035156 Z M45.7001953,99.0957031 L45.7001953,99.4472656 L46.0517578,101.205078 L46.4033203,101.205078 L48.1611328,99.7988281 L48.1611328,98.3925781 L46.4033203,98.3925781 L45.7001953,99.0957031 Z M69.9580078,100.853516 L70.3095703,100.853516 L74.1767578,102.259766 L73.4736328,108.236328 L73.4736328,108.587891 L73.8251953,109.994141 L73.4736328,111.400391 L73.4736328,113.861328 C72.9267551,115.033209 72.3408234,115.619141 71.7158203,115.619141 L71.3642578,115.267578 L66.0908203,115.970703 L66.0908203,115.619141 L65.7392578,115.970703 L63.9814453,115.970703 C62.7314391,115.970703 61.9111348,115.501958 61.5205078,114.564453 L61.5205078,111.751953 L62.5751953,110.697266 L62.5751953,111.048828 C67.2627188,109.62304 69.6064453,107.630872 69.6064453,105.072266 L69.2548828,104.720703 L69.2548828,104.369141 L69.9580078,100.853516 Z M67.1455078,112.103516 C67.9462931,112.103516 68.7665974,112.689447 69.6064453,113.861328 L69.9580078,113.861328 L69.9580078,112.806641 L68.5517578,111.400391 L67.8486328,111.400391 L67.1455078,112.103516 Z M66.0908203,113.509766 L66.7939453,113.509766 L67.4970703,112.806641 L67.4970703,112.455078 L67.1455078,112.455078 L66.0908203,113.509766 Z M55.1923828,114.212891 L55.1923828,115.267578 L55.5439453,115.267578 L56.2470703,114.564453 L55.8955078,114.212891 L55.1923828,114.212891 Z M78.2783203,74.9257812 L85.6611328,75.6289062 L85.6611328,75.2773438 L86.0126953,75.6289062 L91.6376953,74.9257812 C93.0439523,75.1015634 93.7470703,75.335936 93.7470703,75.6289062 L94.0986328,75.2773438 L94.4501953,75.2773438 L95.1533203,75.9804688 L95.1533203,78.4414062 C95.1533203,80.2187589 93.981457,81.1562495 91.6376953,81.2539062 L90.9345703,86.703125 L91.2861328,87.0546875 L90.9345703,89.515625 L90.9345703,95.140625 L91.2861328,98.65625 C90.0165952,99.1250023 88.3759866,99.359375 86.3642578,99.359375 C86.3642578,98.8124973 85.3095809,98.2265656 83.2001953,97.6015625 C83.2001953,98.304691 82.9658227,98.65625 82.4970703,98.65625 L82.1455078,97.6015625 L82.4970703,97.25 L82.4970703,96.8984375 C82.4970703,96.3124971 81.676766,95.3750064 80.0361328,94.0859375 L80.0361328,84.7695312 L79.6845703,81.2539062 L80.0361328,81.2539062 C79.8994134,80.3164016 79.0791091,79.8476562 77.5751953,79.8476562 L76.8720703,78.7929688 L76.8720703,77.0351562 L78.2783203,74.9257812 Z M81.0908203,99.359375 L81.0908203,99.7109375 L80.3876953,100.414062 L80.0361328,100.0625 L80.0361328,99.7109375 L80.3876953,99.359375 L81.0908203,99.359375 Z M87.0673828,100.0625 L87.4189453,100.414062 L87.4189453,100.765625 L86.7158203,102.171875 L87.0673828,102.171875 L88.1220703,101.46875 C88.1220703,102.406255 88.9423746,102.875 90.5830078,102.875 L91.2861328,104.984375 L91.2861328,106.742188 C89.5478429,106.742188 88.6103522,106.273442 88.4736328,105.335938 C88.0048805,105.80469 86.4814582,106.039062 83.9033203,106.039062 L84.6064453,107.09375 L86.3642578,106.742188 L87.0673828,107.796875 L88.8251953,106.742188 L89.1767578,108.5 L88.1220703,109.90625 L88.1220703,110.257812 L88.4736328,109.90625 L88.8251953,109.90625 C88.8251953,111.078131 89.8798723,111.664062 91.9892578,111.664062 L91.9892578,112.367188 L92.3408203,112.367188 L92.3408203,112.015625 L91.9892578,110.960938 L93.0439453,110.257812 C94.5087964,110.726565 95.3291007,111.312496 95.5048828,112.015625 C95.2119126,114.593763 94.625981,115.882812 93.7470703,115.882812 L83.2001953,115.882812 L80.3876953,115.179688 L79.6845703,115.179688 L77.2236328,115.882812 L76.8720703,115.53125 L76.8720703,113.070312 L76.5205078,110.960938 C76.9697288,109.886713 77.4384741,109.300782 77.9267578,109.203125 L80.0361328,109.203125 L80.0361328,108.5 L80.3876953,108.5 L80.0361328,108.148438 L80.0361328,103.929688 L80.7392578,103.929688 L80.7392578,101.820312 C82.1455148,101.820312 82.8486328,101.468754 82.8486328,100.765625 L83.9033203,100.765625 L85.3095703,101.820312 C85.3095703,101.019527 85.895502,100.433596 87.0673828,100.0625 Z M82.4970703,102.171875 L82.4970703,102.875 L84.6064453,102.875 L84.6064453,102.523438 L83.9033203,101.820312 L82.4970703,102.171875 Z M85.3095703,102.875 L85.3095703,103.226562 C86.0126988,103.226562 86.3642578,103.578121 86.3642578,104.28125 L86.7158203,104.28125 L86.7158203,103.226562 C86.247068,103.226562 86.0126953,102.875004 86.0126953,102.171875 L85.3095703,102.875 Z M89.8798828,103.929688 L90.2314453,104.984375 L90.5830078,104.984375 L90.5830078,103.929688 L89.8798828,103.929688 Z M86.0126953,109.90625 L86.0126953,110.960938 L87.0673828,111.3125 L87.4189453,110.960938 L87.4189453,109.90625 L86.0126953,109.90625 Z M86.7158203,114.125 L86.7158203,114.476562 L87.4189453,113.773438 L87.4189453,113.421875 L86.7158203,114.125 Z M100.30957,89.1640625 L105.231445,90.921875 L105.231445,90.5703125 L105.93457,89.8671875 L106.989258,89.8671875 L106.989258,90.21875 L106.637695,90.5703125 L106.637695,90.921875 C107.5752,90.921875 108.043945,91.273434 108.043945,91.9765625 L109.450195,91.9765625 L109.801758,90.5703125 L108.043945,90.5703125 L108.74707,89.8671875 L110.504883,89.8671875 L112.262695,90.21875 L113.317383,89.1640625 L113.668945,89.515625 L113.668945,89.8671875 C112.965817,89.8671875 112.262699,91.6249824 111.55957,95.140625 L110.856445,95.140625 L110.856445,95.4921875 L111.208008,96.546875 L110.15332,96.546875 L110.15332,95.84375 L109.801758,96.1953125 L109.450195,95.84375 L108.74707,95.84375 L108.74707,96.1953125 L109.098633,96.546875 L109.098633,96.8984375 L105.93457,97.25 L104.52832,96.546875 L104.176758,96.8984375 L103.825195,96.8984375 L102.418945,96.546875 L98.9033203,96.8984375 L97.8486328,95.4921875 C98.4150419,92.6210794 99.2353462,90.5117255 100.30957,89.1640625 Z M104.52832,91.625 L104.176758,91.9765625 L104.176758,92.328125 L104.52832,92.6796875 L105.231445,92.6796875 L105.231445,92.328125 L104.52832,91.625 Z M109.098633,94.0859375 L109.098633,94.7890625 L110.15332,95.140625 L110.15332,94.7890625 L109.801758,93.734375 L110.504883,93.734375 L110.504883,93.03125 L110.15332,93.03125 L109.098633,94.0859375 Z M137.106445,74.4570312 L137.80957,75.5117188 L137.80957,76.9179688 C136.79394,78.2656317 134.801773,79.6718677 131.833008,81.1367188 C130.895503,83.734388 130.426758,87.3671642 130.426758,92.0351562 L130.77832,104.691406 L130.426758,107.503906 L133.59082,109.964844 C133.59082,110.589847 135.348615,111.292965 138.864258,112.074219 L139.21582,114.535156 C139.21582,115.843757 137.106466,116.664061 132.887695,116.996094 C130.309557,116.996094 129.020508,116.410162 129.020508,115.238281 L128.668945,112.777344 C127.497064,112.777344 126.442387,113.480462 125.504883,114.886719 C119.176726,109.417941 116.012695,103.441439 116.012695,96.9570312 C116.9502,88.5390204 118.356436,83.8515673 120.231445,82.8945312 C125.114282,77.5038793 130.387667,74.8085938 136.051758,74.8085938 L137.106445,74.4570312 Z M142.731445,74.4570312 L144.137695,74.8085938 L145.543945,74.4570312 L150.46582,75.8632812 L151.168945,75.8632812 L152.926758,74.4570312 L153.27832,74.4570312 C153.805667,74.4570312 154.274412,75.6288945 154.68457,77.9726562 L154.333008,77.9726562 L154.68457,78.3242188 L154.68457,78.6757812 L154.333008,80.7851562 L154.68457,81.1367188 C154.450194,86.0586184 153.395517,88.5195312 151.520508,88.5195312 L150.46582,89.2226562 C149.469722,87.8749933 148.88379,86.4687573 148.708008,85.0039062 L149.05957,84.6523438 C148.571287,84.6523438 147.51661,83.4804805 145.895508,81.1367188 C142.086895,79.6523363 140.094727,78.480473 139.918945,77.6210938 L139.918945,75.5117188 C140.075196,74.8085902 141.012687,74.4570312 142.731445,74.4570312 Z M145.543945,76.2148438 L145.543945,77.6210938 C146.012698,77.6210938 146.24707,77.9726527 146.24707,78.6757812 L146.598633,78.6757812 L148.004883,77.9726562 L148.004883,77.6210938 L147.301758,76.9179688 L146.598633,77.6210938 L146.598633,76.9179688 L146.950195,76.5664062 L146.950195,76.2148438 L145.543945,76.2148438 Z M146.598633,79.7304688 L146.598633,80.4335938 L147.65332,80.7851562 L148.356445,80.0820312 L148.356445,81.1367188 L148.708008,81.1367188 L148.708008,80.0820312 L148.356445,79.7304688 L146.598633,79.7304688 Z M147.301758,93.7929688 C148.122074,95.1992258 149.059565,95.9023438 150.114258,95.9023438 L150.46582,95.5507812 L151.520508,96.9570312 L151.87207,96.9570312 C151.87207,96.0195266 152.106443,95.5507812 152.575195,95.5507812 L151.87207,94.1445312 L154.333008,93.7929688 L153.981445,96.2539062 C154.62598,96.2539062 155.094725,97.4257695 155.387695,99.7695312 C155.094725,102.171887 154.743166,103.578123 154.333008,103.988281 C153.747067,103.988281 152.809577,103.167977 151.520508,101.527344 L151.168945,101.527344 L149.762695,102.230469 C149.430662,101.058588 148.610358,100.472656 147.301758,100.472656 L146.24707,101.527344 L146.24707,102.582031 L147.301758,103.988281 L146.598633,104.691406 L146.24707,104.339844 L145.895508,104.339844 L145.895508,105.042969 L145.543945,104.691406 L144.84082,104.691406 L144.84082,105.042969 C145.309573,105.042969 145.543945,105.511714 145.543945,106.449219 C147.887707,106.859377 149.05957,107.328122 149.05957,107.855469 L149.05957,109.613281 L150.817383,109.964844 L150.46582,109.613281 L150.46582,109.261719 L151.520508,108.207031 L151.87207,108.207031 C151.87207,108.91016 152.106443,109.261719 152.575195,109.261719 L154.68457,108.558594 L155.036133,108.558594 L155.036133,114.183594 L154.333008,114.886719 L153.981445,114.886719 C152.340812,114.105465 151.520508,112.464856 151.520508,109.964844 C150.895505,110.042969 150.426759,110.628901 150.114258,111.722656 L149.762695,111.371094 L146.950195,111.371094 C146.950195,112.972664 145.1924,114.144528 141.676758,114.886719 L140.62207,111.722656 C141.579106,110.062492 142.868156,108.539069 144.489258,107.152344 L144.137695,106.800781 L144.137695,105.042969 L144.489258,104.691406 L144.137695,104.339844 L144.489258,102.933594 C144.489258,100.355456 143.668954,99.0664062 142.02832,99.0664062 L139.21582,99.0664062 L138.512695,98.3632812 L138.512695,97.6601562 C138.844728,95.0820184 139.547846,93.7929688 140.62207,93.7929688 L147.301758,93.7929688 Z M147.301758,96.2539062 L147.65332,97.3085938 C149.059577,96.9960922 149.762695,96.6445332 149.762695,96.2539062 L147.301758,96.2539062 Z M150.46582,97.3085938 L150.46582,97.6601562 L151.168945,98.7148438 L150.817383,99.0664062 L150.817383,99.4179688 L151.168945,99.7695312 L152.223633,99.7695312 L151.168945,97.3085938 L150.46582,97.3085938 Z M152.575195,98.0117188 L152.575195,98.3632812 L153.27832,99.7695312 L153.981445,99.7695312 L154.333008,98.0117188 L153.27832,97.3085938 L152.575195,98.0117188 Z M120.583008,106.449219 L120.583008,106.800781 C120.583008,108.207038 121.168939,108.910156 122.34082,108.910156 L123.74707,107.855469 L123.74707,107.503906 L122.692383,107.503906 L122.692383,105.394531 C121.286126,105.628907 120.583008,105.980466 120.583008,106.449219 Z M163.004883,75.1894531 L164.411133,75.5410156 L165.817383,75.1894531 C166.989264,75.1894531 167.575195,75.4238258 167.575195,75.8925781 L167.926758,75.5410156 L171.442383,75.5410156 L174.606445,75.1894531 L176.364258,75.5410156 L176.364258,79.0566406 L175.661133,79.7597656 L175.30957,78.7050781 L174.606445,78.7050781 L173.551758,79.7597656 L173.90332,80.1113281 C173.200192,80.3457043 172.848633,81.0488223 172.848633,82.2207031 L172.848633,91.0097656 L172.49707,93.1191406 L172.848633,93.4707031 L172.848633,93.8222656 L172.49707,95.5800781 L172.848633,95.9316406 L172.49707,97.6894531 L172.49707,99.7988281 L172.848633,108.939453 L171.09082,112.103516 L171.442383,112.455078 L171.793945,112.455078 L172.145508,112.103516 L172.49707,112.103516 L173.90332,112.806641 L176.364258,112.103516 L176.364258,114.212891 L175.661133,114.916016 L175.661133,114.212891 L174.958008,114.212891 L174.958008,114.564453 L175.30957,114.916016 L175.30957,115.267578 C174.547848,115.814456 173.493171,116.166015 172.145508,116.322266 L171.793945,115.970703 L165.46582,116.673828 L164.762695,115.970703 L164.05957,116.673828 L160.895508,116.673828 L159.137695,117.025391 C158.200191,115.951167 157.731445,114.310558 157.731445,112.103516 L157.731445,111.048828 L160.543945,111.048828 L160.543945,110.345703 L161.24707,110.345703 C161.24707,111.048832 162.301747,111.400391 164.411133,111.400391 C164.411133,111.869143 164.059574,112.103516 163.356445,112.103516 L163.356445,112.455078 C164.528326,112.455078 165.114258,112.689451 165.114258,113.158203 L163.708008,113.509766 L163.708008,114.212891 L164.05957,113.861328 L164.762695,113.861328 L164.411133,115.619141 L166.168945,115.267578 L165.817383,114.916016 L165.817383,114.564453 L167.575195,113.861328 L167.223633,112.103516 L167.223633,110.697266 L167.926758,109.642578 L167.575195,108.236328 L167.223633,108.236328 L167.223633,108.939453 L166.87207,108.939453 L166.520508,108.587891 L166.168945,108.587891 L165.817383,109.642578 L165.114258,109.642578 L165.114258,108.587891 L162.301758,108.587891 L160.895508,109.642578 L160.543945,109.642578 L160.543945,108.939453 L160.895508,97.3378906 L160.543945,89.2519531 L160.895508,85.7363281 L160.543945,83.9785156 L160.895508,84.3300781 L161.598633,84.3300781 L161.598633,83.9785156 L160.895508,83.9785156 L160.895508,82.5722656 L161.598633,81.1660156 L163.004883,82.2207031 C163.004883,80.9511655 163.708001,80.0136749 165.114258,79.4082031 L165.114258,79.0566406 C164.645505,79.0566406 164.411133,78.7050816 164.411133,78.0019531 L164.05957,77.6503906 L162.301758,77.6503906 C161.950194,77.6503906 161.598635,78.1191359 161.24707,79.0566406 L161.598633,80.4628906 L161.598633,80.8144531 L160.543945,80.8144531 L160.543945,78.7050781 C160.075193,78.7050781 159.84082,79.1738234 159.84082,80.1113281 L159.489258,80.4628906 L158.43457,80.4628906 L157.731445,79.7597656 L157.731445,78.7050781 C157.731445,76.3613164 159.137681,75.1894531 161.950195,75.1894531 L163.004883,75.1894531 Z M161.950195,89.6035156 L161.950195,89.9550781 C161.950195,90.6582066 162.418941,91.0097656 163.356445,91.0097656 C163.981448,90.8535148 164.56738,90.2675832 165.114258,89.2519531 L162.65332,88.9003906 L161.950195,89.6035156 Z M161.950195,99.0957031 L161.950195,99.4472656 L162.301758,101.205078 L162.65332,101.205078 L164.411133,99.7988281 L164.411133,98.3925781 L162.65332,98.3925781 L161.950195,99.0957031 Z M186.208008,100.853516 L186.55957,100.853516 L190.426758,102.259766 L189.723633,108.236328 L189.723633,108.587891 L190.075195,109.994141 L189.723633,111.400391 L189.723633,113.861328 C189.176755,115.033209 188.590823,115.619141 187.96582,115.619141 L187.614258,115.267578 L182.34082,115.970703 L182.34082,115.619141 L181.989258,115.970703 L180.231445,115.970703 C178.981439,115.970703 178.161135,115.501958 177.770508,114.564453 L177.770508,111.751953 L178.825195,110.697266 L178.825195,111.048828 C183.512719,109.62304 185.856445,107.630872 185.856445,105.072266 L185.504883,104.720703 L185.504883,104.369141 L186.208008,100.853516 Z M183.395508,112.103516 C184.196293,112.103516 185.016597,112.689447 185.856445,113.861328 L186.208008,113.861328 L186.208008,112.806641 L184.801758,111.400391 L184.098633,111.400391 L183.395508,112.103516 Z M182.34082,113.509766 L183.043945,113.509766 L183.74707,112.806641 L183.74707,112.455078 L183.395508,112.455078 L182.34082,113.509766 Z M171.442383,114.212891 L171.442383,115.267578 L171.793945,115.267578 L172.49707,114.564453 L172.145508,114.212891 L171.442383,114.212891 Z M194.52832,74.3691406 L196.989258,74.7207031 L207.887695,74.3691406 L208.942383,78.5878906 L208.239258,86.3222656 L208.942383,92.6503906 L213.161133,92.6503906 L214.918945,92.2988281 L217.02832,92.6503906 L219.137695,92.6503906 L219.84082,93.3535156 L219.84082,94.0566406 L219.489258,95.8144531 L219.137695,95.8144531 L218.083008,95.1113281 L216.676758,96.1660156 C216.911134,96.8691441 217.614252,97.2207031 218.786133,97.2207031 L219.137695,96.8691406 L219.489258,97.2207031 L219.489258,97.5722656 C218.532222,98.2558628 217.243172,98.6074218 215.62207,98.6269531 L215.62207,98.2753906 L215.270508,98.6269531 L213.512695,98.2753906 L209.293945,98.2753906 L208.942383,98.6269531 L208.59082,98.6269531 L208.59082,99.3300781 L208.942383,99.3300781 L208.59082,104.603516 L208.59082,107.767578 L207.536133,109.173828 L207.536133,110.580078 C208.239261,110.580078 208.59082,110.814451 208.59082,111.283203 L208.59082,112.689453 C208.59082,114.251961 207.887702,115.423824 206.481445,116.205078 L204.723633,115.853516 L201.55957,115.853516 L198.043945,116.205078 L198.043945,115.853516 L197.692383,116.205078 L197.34082,116.205078 C194.29393,116.205078 192.770508,114.916029 192.770508,112.337891 L192.770508,111.986328 C193.551762,111.986328 194.372066,111.634769 195.231445,110.931641 L194.52832,98.9785156 L194.879883,96.1660156 L194.52832,94.0566406 L194.879883,93.7050781 L194.52832,91.9472656 L195.231445,79.2910156 L194.52832,79.2910156 L194.52832,78.9394531 L194.176758,79.2910156 L193.473633,79.2910156 C193.00488,79.2910156 192.770508,78.9394566 192.770508,78.2363281 L194.52832,74.3691406 Z M213.307617,73.9296875 L213.65918,74.28125 L218.932617,73.9296875 L222.09668,73.9296875 C223.737313,73.9296875 224.557617,74.7499918 224.557617,76.390625 L224.557617,82.71875 L224.206055,84.125 L224.557617,85.1796875 L223.151367,85.8828125 L222.09668,85.53125 L221.041992,86.5859375 L219.987305,86.5859375 C219.987305,84.1835817 219.049814,81.9570415 217.174805,79.90625 C217.174805,79.2031215 216.823246,78.8515625 216.120117,78.8515625 L214.713867,79.5546875 C211.666977,79.0078098 210.143555,78.4218781 210.143555,77.796875 C210.612307,77.3281227 210.84668,76.2734457 210.84668,74.6328125 L213.307617,73.9296875 Z M205.77832,81.4003906 L206.481445,82.1035156 L206.481445,82.8066406 L206.129883,82.4550781 L205.075195,82.4550781 L205.075195,83.1582031 L206.129883,83.1582031 L206.481445,82.8066406 L206.833008,82.8066406 L207.18457,83.1582031 L207.536133,82.8066406 L207.536133,82.4550781 L207.18457,80.6972656 L206.481445,80.6972656 L205.77832,81.4003906 Z M205.426758,96.1660156 L205.426758,97.2207031 C205.583009,97.9238316 206.520499,98.2753906 208.239258,98.2753906 L208.942383,97.2207031 C208.239254,96.3613238 207.887695,95.5410195 207.887695,94.7597656 C206.247062,95.0722672 205.426758,95.5410125 205.426758,96.1660156 Z M201.208008,102.845703 C202.145512,102.845703 202.614258,103.080076 202.614258,103.548828 L202.262695,104.603516 L202.614258,104.251953 L202.96582,104.251953 L203.317383,104.603516 L203.668945,104.603516 L204.37207,103.548828 L204.37207,103.197266 L202.96582,101.439453 C201.891596,101.888674 201.305665,102.357419 201.208008,102.845703 Z M205.426758,102.845703 L205.77832,103.197266 L206.481445,103.197266 L207.18457,102.494141 L206.833008,102.142578 L206.129883,102.142578 L205.426758,102.845703 Z M220.543945,103.636719 L220.895508,103.636719 L221.598633,104.339844 L221.598633,105.042969 L221.24707,105.394531 L221.24707,105.746094 C222.614265,105.804688 223.434569,106.507806 223.708008,107.855469 L224.05957,107.855469 L224.05957,106.800781 L223.708008,106.449219 L223.708008,106.097656 L224.05957,105.746094 L224.411133,105.746094 L224.762695,106.097656 L224.762695,107.152344 L224.411133,107.503906 L224.762695,107.855469 L224.762695,109.613281 L224.411133,112.777344 L224.762695,114.886719 L223.356445,115.941406 L221.24707,115.941406 L218.083008,115.589844 L215.62207,115.941406 L215.62207,114.535156 L211.754883,116.996094 C211.227536,116.996094 210.875977,115.589858 210.700195,112.777344 L217.02832,109.613281 C217.418947,109.613281 217.887693,110.433586 218.43457,112.074219 C220.30958,111.839843 221.24707,111.488284 221.24707,111.019531 C221.24707,109.144522 220.543952,108.207031 219.137695,108.207031 L218.786133,108.207031 L218.786133,107.503906 L219.84082,105.394531 L220.543945,105.394531 L220.543945,106.097656 L220.895508,106.097656 L220.895508,105.042969 L220.543945,103.636719 Z M8.42687242,2.02125992 C10.5659359,1.16411194 32.6684021,4.26849917 33.4332492,5.37176091 C33.5755565,5.57703355 26.504697,0.162656441 28.9380959,0.162656441 C31.3714947,0.162656441 36.7052343,-0.475223447 42.1790992,0.775420348 C47.9209186,2.08728519 65.5377273,10.1809683 78.8705788,16.2471745 C86.7665748,19.8397098 93.5016813,22.7244122 94.4487371,23.0594158 C96.994952,23.9600926 93.2394144,20.0648126 91.1802865,18.1086917 C86.447549,13.6127075 81.0136872,9.73727597 86.4996497,12.3607091 C98.308857,18.0079708 115.754522,28.4123792 125.307033,37.816111 C134.859545,47.2198428 141.085055,64.7244426 144.251402,69.2129813 C146.3623,72.2053405 149.233822,74.7620156 152.865968,76.8830066 C154.714616,74.4796606 156.172114,72.6855207 157.238463,71.5005869 C158.304811,70.3156531 160.449439,68.1070864 163.672345,64.8748866 C152.842618,67.8067443 147.628622,67.8067443 148.030356,64.8748866 C148.288591,62.9902866 151.918106,61.2226021 156.695106,57.8054592 C158.4648,56.539539 161.446394,54.1096431 165.639886,50.5157714 C158.634041,53.3542957 153.944655,54.980578 151.571725,55.3946183 C147.72534,56.0657545 144.251402,55.0424943 144.251402,54.0294358 C144.251402,52.0789063 151.380897,47.3994369 165.639886,39.9910275 C156.516977,40.5429545 150.647134,40.5429545 148.030356,39.9910275 C144.300518,39.2043354 142.252645,35.9755886 142.098407,35.1530576 C141.940956,34.3133861 143.600154,34.0994884 147.157625,33.1624573 C149.554111,32.5312273 155.059018,31.3098596 163.672345,29.4983543 C156.765302,27.7144875 152.443058,26.4542362 150.705615,25.7176004 C148.36179,24.7238725 148.140477,23.6501443 148.030356,23.0594158 C147.864885,22.1717744 149.33727,21.4348908 154.162445,21.174087 C155.466837,21.1035839 158.119544,21.1035839 162.120567,21.174087 C158.493935,18.5758804 155.939645,16.4612243 154.457698,14.8301186 C152.234777,12.3834601 152.1945,11.746724 152.865968,10.9880096 C153.537437,10.2292951 155.453056,10.3752305 157.273007,11.6490091 C158.486307,12.4981948 161.461009,15.3880055 166.197111,20.3184411 C169.623711,22.0430586 172.171287,23.9232935 173.839839,25.959146 C177.226907,30.091813 179.70724,35.3612759 182.120427,39.1021987 C185.000545,43.5669586 187.574104,46.2304355 188.584891,47.3454841 C189.937592,48.8377147 192.20882,48.2246382 192.446222,48.559032 C193.266118,49.7139037 191.048848,50.0950075 189.726536,50.7447719 C188.892897,51.1544097 188.739546,51.8899641 188.904435,52.3030115 C189.330869,53.3712315 194.110566,51.2965657 194.110566,52.7282212 C194.110566,53.6826581 192.268674,55.0217875 188.584891,56.7456091 C190.555065,57.6552607 191.842175,58.6433229 192.446222,59.7097957 C192.728977,60.2090144 192.106821,60.637172 192.072249,61.0324706 C191.996037,61.9038768 192.134252,62.6140695 192.446222,63.5629675 C192.899711,64.9423169 194.945014,66.9463717 195.231917,68.1828709 C195.51882,69.4193701 193.854803,69.9322946 194.110566,70.7359936 C194.542233,72.0924492 195.773949,72.9702384 196.368443,73.9653006 C197.53898,75.9245384 198.091268,77.4754562 198.17072,77.987521 C198.38629,79.376857 197.089059,79.7428098 197.180109,80.7388988 C197.271158,81.7349878 198.724495,82.8486079 198.724495,84.0458874 C198.724495,85.2431669 197.251755,85.5492887 197.180109,86.3527596 C197.09052,87.3574446 197.869418,88.0161289 198.17072,88.8528278 C198.481229,89.7150922 198.317006,90.7475917 198.398932,91.252924 C198.74611,93.3943791 200.779279,95.5389818 200.747241,96.6287141 C200.718848,97.5944419 199.658498,97.5233474 199.362826,98.2420232 C198.999776,99.1244715 199.199241,100.056745 199.011325,100.918017 C198.841429,101.696699 198.272567,102.424141 198.17072,102.881582 C197.864481,104.257041 198.724495,104.569443 198.724495,105.713775 C198.724495,106.476663 198.724495,107.031167 198.724495,107.377287 L201.306623,111.620263 L196.026783,109.802497 C195.496872,116.242368 195.231917,120.422675 195.231917,122.343418 C195.231917,125.224532 195.911932,125.725882 196.026783,128.085385 C196.174,131.109832 195.864808,135.838515 196.026783,137.97252 C196.31512,141.771354 196.699562,145.11743 197.180109,148.010749 C195.986687,147.892757 195.244648,147.99376 194.953992,148.313758 C194.769668,148.51669 194.417599,150.17761 193.427564,151.843447 C193.046813,152.484101 192.263251,153.446321 191.076879,154.730107 C194.858899,159.419242 197.985854,162.638495 200.457746,164.387867 C202.37638,165.745695 210.734659,169.014095 220.610238,174.790608 C223.457963,176.456325 226.726709,179.318424 227.308962,179.933803 C227.891214,180.549181 227.344804,181.454658 227.684689,182.267549 C228.414433,184.012855 230.030935,186.365179 229.999549,186.954913 C229.96034,187.691649 228.347709,187.30309 227.684689,187.472903 C227.024098,187.642094 227.818712,188.370571 227.684689,188.60578 C227.233457,189.397682 224.643238,188.400262 224.15589,188.60578 C223.824614,188.745482 222.395812,187.599114 221.155875,186.954913 C220.193959,186.455157 219.363728,186.426442 219.133007,186.45977 C218.514849,186.549066 217.751545,185.055676 216.267662,184.458071 C215.826057,184.280224 214.971254,184.504625 214.353788,184.229801 C213.458047,183.831121 212.770738,182.940811 212.141917,182.909122 C211.339112,182.868665 211.339903,183.787247 211.067869,183.801542 C209.121842,183.903806 209.488649,182.618779 208.802494,182.267549 C208.351589,182.036739 207.726341,181.857053 206.926749,181.728493 C204.958711,179.416113 203.372309,177.650287 202.167544,176.431016 C200.572003,174.816264 198.375621,172.388183 195.811541,170.934838 C187.609213,166.285679 179.782504,165.988932 177.886337,165.268107 C175.990169,164.547282 175.794402,163.344587 174.825022,162.849992 C173.538905,162.193792 172.268347,162.454326 171.37301,161.848089 C169.017747,160.253328 168.966141,158.842457 167.253338,158.068451 C166.111469,157.552447 164.696697,157.552447 163.009023,158.068451 C162.639321,157.639984 162.343169,157.353531 162.120567,157.209092 C161.786665,156.992434 160.820506,156.165551 159.961103,156.090759 C159.101701,156.015967 158.607312,156.597612 158.204766,156.86831 C157.80222,157.139008 157.115871,157.916043 157.020144,158.068451 C158.129218,159.797356 158.722427,160.854542 159.018088,161.578338 C159.337278,162.359736 159.651617,163.589659 159.961103,165.268107 C158.7077,165.622333 157.811668,165.963624 157.273007,166.29198 C156.734346,166.620337 155.989611,167.279223 155.038802,168.26864 L151.896304,165.943643 C152.088209,166.082739 152.088209,166.331209 151.896304,166.689052 C151.704398,167.046894 151.49124,167.573424 151.256829,168.26864 C150.86957,167.859182 150.610141,167.580823 150.47854,167.433561 C150.346939,167.2863 150.135832,167.03813 149.84522,166.689052 C149.243483,167.920885 148.808736,168.931532 148.540978,169.720994 C148.273221,170.510456 148.000623,171.585359 147.723184,172.945703 L146.425099,168.26864 C145.56463,170.334686 145.026419,171.787987 144.810465,172.628543 C144.594511,173.469099 144.147599,174.73659 143.469726,176.431016 C143.363886,174.892666 143.194264,173.830774 142.960862,173.245339 C142.727459,172.659905 142.439975,172.021138 142.098407,171.329039 C141.398456,173.459184 140.829503,174.976847 140.391547,175.882029 C139.734614,177.239801 136.552824,183.555118 136.063812,183.801542 C135.5748,184.047966 137.775136,179.229139 138.205593,176.983579 C138.492565,175.486538 138.492565,174.03486 138.205593,172.628543 C136.415047,175.05006 135.134981,176.82688 134.365396,177.959005 C133.211018,179.657192 130.182207,184.900274 129.914925,184.824811 C129.647643,184.749348 132.303841,180.123866 133.28905,177.655115 C133.945857,176.009281 134.304639,174.681831 134.365396,173.672764 C132.251009,174.423345 130.767519,175.342762 129.914925,176.431016 C128.636033,178.063397 125.210963,185.71161 124.606188,186.129446 C124.001414,186.547283 126.301086,180.780829 127.098455,178.376903 C127.630035,176.774285 128.111116,175.403509 128.541701,174.264575 C126.221864,173.544712 124.497869,173.204967 123.369714,173.245339 C121.677483,173.305898 115.736942,174.043641 113.842344,174.790608 C111.947746,175.537575 111.781915,176.424976 111.414025,177.959005 C110.812827,180.465882 112.688321,184.844967 111.704103,186.45977 C110.117614,189.062718 108.201997,190.230306 105.957253,189.962535 C107.799692,189.092175 108.95666,188.445635 109.428155,188.022915 C109.899649,187.600195 110.167805,186.969039 110.23262,186.129446 C108.181716,186.799655 106.959875,185.726214 106.567095,182.909122 C106.353073,181.374113 107.259129,180.536803 107.759006,179.453228 C108.635211,177.553892 109.362718,175.69152 108.49582,173.672764 C107.134354,170.502305 102.432905,169.489307 100.645929,169.120437 C98.8589526,168.751568 97.8893239,169.052219 97.1417056,171.329039 C96.3940872,173.605858 97.9841364,175.040457 98.1474715,176.729315 C98.2563615,177.85522 98.2563615,179.521612 98.1474715,181.728493 C98.051278,184.370178 97.7160227,185.94727 97.1417056,186.45977 C96.5673884,186.972271 95.2587139,186.862163 93.2156819,186.129446 C94.6235709,185.644802 95.505147,185.087677 95.8604103,184.458071 C96.3933052,183.513663 96.7786273,181.645876 96.3144933,180.637662 C95.8503592,179.629449 94.5903798,181.579702 93.5564159,179.453228 C92.522452,177.326754 94.0044372,176.41934 93.2156819,174.264575 C92.4269266,172.109811 92.5674483,171.317694 90.219086,170.33613 C88.9618004,169.810613 85.6991875,170.026643 81.5818955,169.456253 C80.9088493,169.363012 80.0050771,168.967141 78.8705788,168.26864 C78.0378158,167.892484 77.5215828,167.800543 77.3218798,167.992816 C77.1221767,168.185089 76.9226138,168.966193 76.7231909,170.33613 C76.1830619,169.165213 75.9488438,168.384109 76.0205366,167.992816 C76.0922295,167.601523 76.6359693,166.693287 77.6517561,165.268107 C77.2267007,164.474344 77.014173,163.873659 77.014173,163.466052 C77.014173,163.058445 77.2267007,162.519124 77.6517561,161.848089 C76.6618155,161.843914 75.9650236,161.944879 75.5613805,162.150985 C75.1577373,162.35709 74.4367385,162.980067 73.3983841,164.019916 C73.4025614,163.096026 73.5042069,162.47305 73.7033205,162.150985 C74.3150388,161.161536 75.5042417,160.708402 76.0205366,160.538185 C76.7889117,160.284861 78.1106969,160.721495 79.9858921,161.848089 C80.833232,161.406725 81.4900386,161.186043 81.9563121,161.186043 C82.4225855,161.186043 83.1658867,161.406725 84.1862156,161.848089 C84.911522,160.050572 85.6826667,159.151813 86.4996497,159.151813 C86.9569495,159.151813 88.0088348,158.588631 89.0580076,159.151813 C89.883221,159.594777 90.6397008,160.988376 91.7842337,161.848089 C92.5472557,162.42123 93.4354235,162.872216 94.4487371,163.201044 C96.0187975,161.995706 97.2517089,161.324039 98.1474715,161.186043 C99.0432341,161.048047 100.737769,161.268729 103.231075,161.848089 C105.809127,159.340392 107.564042,157.421283 108.49582,156.090759 C111.950056,151.158313 114.064856,146.540921 116.466928,143.750922 C119.840935,139.832024 122.787636,137.317362 125.307033,136.206934 C123.444625,133.396354 122.183659,131.579776 121.524136,130.7572 C120.459739,129.429654 119.895826,129.584387 119.226718,128.590933 C117.935718,126.67413 117.544615,125.622876 118.05341,125.43717 C115.862734,126.125312 114.310693,126.125312 113.397286,125.43717 C112.483879,124.749028 111.428991,122.785019 110.23262,119.545143 C108.914729,119.456018 107.936125,119.080754 107.296809,118.419352 C106.657493,117.757951 105.746763,116.178613 104.56462,113.681339 L90.219086,99.0558236 C88.3266062,99.0783207 87.0867941,98.8070539 86.4996497,98.2420232 C85.9125054,97.6769926 85.6110344,96.4650258 85.5952367,94.6061229 C84.010465,95.3347352 82.9553268,95.3347352 82.4298219,94.6061229 C82.0154698,94.0316237 82.0292629,91.0877345 81.2553921,88.1957118 C81.1169948,87.6785089 80.6938281,87.2228608 79.9858921,86.8287677 C77.4409418,87.1715853 75.7234214,87.0129159 74.8333307,86.3527596 C73.9432401,85.6926033 73.2761637,84.0826812 72.8321016,81.5229934 C70.0402336,81.6375069 67.9791071,81.376142 66.6487221,80.7388988 C65.3183371,80.1016556 63.4972877,78.5034908 61.1855737,75.9444045 C59.4498699,75.7320797 58.1910493,75.4554778 57.4091121,75.1145988 C55.145636,74.1278554 53.2737875,72.4714201 52.3874019,71.839101 C51.0417019,70.8791219 50.3477167,69.6603785 50.3054463,68.1828709 C48.2032059,69.0247176 46.7415628,69.3680878 45.9205172,69.2129813 C42.0714775,68.4858465 39.6761456,65.9203451 38.0309617,64.8748866 C35.859372,63.494915 35.859372,61.9975703 38.0309617,60.3828525 C31.8413547,60.8613715 27.3845174,60.8613715 24.6604496,60.3828525 C20.5743479,59.6650739 17.8881415,57.9949827 17.3252085,56.7456091 C16.9499199,55.9126933 18.440776,55.0073022 21.7977769,54.0294358 L43.5674184,46.3777977 C31.0069983,47.3700966 21.633028,47.6116843 15.4455074,47.1025607 C9.25798688,46.5934372 6.29982357,45.3371331 6.57101753,43.3336482 C8.36547734,42.2910795 10.2066688,41.5689217 12.094592,41.167175 C13.9825152,40.7654283 24.9556385,38.7607225 45.0139617,35.1530576 C29.703084,34.9913482 18.2301863,34.3278147 10.5952687,33.1624573 C2.96035116,31.9970998 -0.548293085,30.3739221 0.0693359929,28.2929241 C1.60331537,27.6527992 4.10529117,27.1998844 7.57526338,26.9341796 C13.9288084,26.4476724 26.1621085,25.7722692 44.2751637,24.9079701 C29.1238896,21.2597515 4.15165637,22.4354844 0.0693359929,13.3236107 C-0.362065175,12.3607091 12.0953928,13.450369 15.4455074,13.3236107 C18.7956221,13.1968525 35.473499,15.3556164 46.9409609,16.2471745 C32.6233914,13.1674583 3.90965049,6.1209358 8.42687242,2.02125992 Z M178.448932,143.747393 L184.745928,149.876343 C185.217866,145.702231 185.103502,142.668459 184.402835,140.775029 C183.769178,139.062677 180.680723,135.043609 178.727946,133.040948 C177.441803,131.721949 177.048893,131.858148 176.755766,132.048334 C176.55579,132.178082 176.081837,132.871011 176.497643,134.108047 C176.902616,135.312856 178.361162,138.298531 180.87328,143.06507 C179.570121,142.506674 178.762006,142.271532 178.448932,142.359646 C178.135859,142.447759 178.135859,142.910341 178.448932,143.747393 Z" id="Combined-Shape"></path>
        </g>
    </g>
</svg>