<svg xmlns="http://www.w3.org/2000/svg" width="150" height="150" viewBox="0 0 150 150"><style>.a{fill:#55B7FF;}.b{stroke-width:2;stroke:#55B7FF;}.c{stroke-linejoin:round;stroke-width:2;stroke:#55B7FF;}</style><desc>  Created with Sketch.</desc><g fill="none"><path d="M10 10L140 10 140 140 10 140 10 10ZM12 12L12 138 138 138 138 12 12 12Z" class="a"/><path d="M30.2 127.6L30.2 127.9C30.2 129.3 30.6 130.4 31.2 131.1 31.8 131.9 32.5 132.3 33.5 132.3 34.5 132.3 35.3 131.9 35.9 131.1 36.5 130.4 36.8 129.2 36.8 127.8 36.8 126.2 36.5 125.1 35.9 124.3 35.3 123.6 34.5 123.2 33.5 123.2 32.5 123.2 31.8 123.6 31.2 124.4 30.6 125.2 30.2 126.3 30.2 127.6ZM29 134C28.7 134 28.4 133.9 28.2 133.7 28 133.4 27.8 133.2 27.8 132.9L27.8 117.2C27.8 116.9 28 116.6 28.2 116.3 28.4 116.1 28.7 116 29 116 29.4 116 29.7 116.1 29.9 116.3 30.1 116.6 30.2 116.9 30.2 117.2L30.2 123.2C30.2 123.2 30.3 123.2 30.3 123.2 30.3 123.2 30.3 123.2 30.3 123.2 31.2 121.9 32.5 121.3 34.1 121.3 35.7 121.3 36.9 121.8 37.8 122.9 38.7 124 39.1 125.6 39.1 127.8 39.1 129.9 38.7 131.5 37.7 132.6 36.8 133.7 35.6 134.2 34.1 134.2 32.4 134.2 31.2 133.6 30.2 132.2 30.2 132.2 30.2 132.2 30.2 132.2 30.2 132.2 30.2 132.2 30.2 132.2L30.2 132.9C30.1 133.2 30 133.4 29.8 133.7 29.6 133.9 29.3 134 29 134ZM43.1 134C42.8 134 42.5 133.9 42.2 133.6 42 133.4 41.9 133.1 41.9 132.8L41.9 122.7C41.9 122.4 42 122.1 42.2 121.9 42.4 121.6 42.7 121.5 43 121.5 43.4 121.5 43.6 121.6 43.9 121.9 44.1 122.1 44.2 122.4 44.2 122.7L44.2 123.9C44.2 123.9 44.2 123.9 44.3 123.9 44.3 123.9 44.3 123.9 44.3 123.9 45.6 122.4 47.1 121.6 49 121.3 49.3 121.3 49.5 121.4 49.7 121.6 49.9 121.8 50 122 50 122.3 50 122.6 49.9 122.8 49.7 123 49.5 123.2 49.3 123.3 49 123.3 47.5 123.5 46.4 124.1 45.6 125 44.7 125.9 44.3 127.1 44.3 128.5L44.3 132.8C44.3 133.1 44.2 133.4 44 133.6 43.7 133.9 43.4 134 43.1 134ZM57.7 123.2C56.6 123.2 55.7 123.6 55.1 124.4 54.4 125.2 54.1 126.3 54.1 127.8 54.1 129.2 54.4 130.3 55.1 131.1 55.7 131.9 56.6 132.3 57.7 132.3 58.8 132.3 59.6 131.9 60.3 131.1 60.9 130.3 61.2 129.2 61.2 127.8 61.2 126.3 60.9 125.2 60.3 124.4 59.6 123.6 58.8 123.2 57.7 123.2ZM57.7 134.2C55.9 134.2 54.4 133.7 53.3 132.5 52.2 131.3 51.7 129.7 51.7 127.8 51.7 125.8 52.2 124.2 53.3 123 54.4 121.9 55.9 121.3 57.7 121.3 59.5 121.3 60.9 121.9 62 123 63.1 124.2 63.7 125.8 63.7 127.8 63.7 129.7 63.1 131.3 62 132.5 60.9 133.7 59.5 134.2 57.7 134.2ZM68 132.7L65.4 122.8C65.3 122.5 65.3 122.2 65.5 121.9 65.7 121.7 66 121.5 66.3 121.5 66.7 121.5 67.1 121.6 67.4 121.9 67.7 122.1 67.9 122.5 68 122.8L69.9 131.8C69.9 131.8 70 131.8 70 131.8 70 131.8 70 131.8 70 131.8L71.9 122.9C72 122.5 72.2 122.2 72.5 121.9 72.8 121.6 73.1 121.5 73.5 121.5L74.1 121.5C74.5 121.5 74.9 121.6 75.2 121.9 75.5 122.2 75.7 122.5 75.8 122.9L77.6 131.8C77.6 131.8 77.6 131.8 77.6 131.8 77.7 131.8 77.7 131.8 77.7 131.8L79.6 122.8C79.7 122.4 79.9 122.1 80.2 121.9 80.5 121.6 80.9 121.5 81.2 121.5 81.6 121.5 81.8 121.6 82 121.9 82.2 122.2 82.3 122.4 82.2 122.8L79.5 132.7C79.4 133.1 79.2 133.4 78.9 133.6 78.6 133.9 78.2 134 77.8 134L77.3 134C76.9 134 76.6 133.9 76.2 133.6 75.9 133.4 75.7 133.1 75.6 132.7L73.8 123.9C73.8 123.9 73.8 123.9 73.8 123.9 73.7 123.9 73.7 123.9 73.7 123.9L71.9 132.7C71.8 133.1 71.6 133.4 71.3 133.6 71 133.9 70.6 134 70.2 134L69.7 134C69.3 134 69 133.9 68.7 133.6 68.3 133.4 68.1 133.1 68 132.7ZM88.7 128.7C87 128.4 85.8 128 85.1 127.4 84.4 126.7 84 125.9 84 124.8 84 123.7 84.4 122.9 85.3 122.2 86.1 121.6 87.3 121.3 88.8 121.3 90 121.3 91.2 121.5 92.2 121.9 92.5 122 92.7 122.1 92.8 122.4 92.9 122.7 93 122.9 92.9 123.2 92.8 123.5 92.7 123.6 92.5 123.7 92.2 123.8 92 123.8 91.8 123.8 90.8 123.4 89.8 123.2 88.8 123.2 87.2 123.2 86.4 123.7 86.4 124.8 86.4 125.3 86.6 125.6 87 125.9 87.3 126.2 88 126.4 88.9 126.6 90.6 126.8 91.8 127.3 92.5 127.9 93.2 128.6 93.6 129.5 93.6 130.6 93.6 131.8 93.2 132.6 92.3 133.3 91.5 133.9 90.3 134.2 88.8 134.2 87.4 134.2 86.1 134 84.9 133.5 84.6 133.4 84.4 133.2 84.3 132.9 84.2 132.6 84.2 132.4 84.2 132.1 84.3 131.8 84.5 131.7 84.7 131.6 84.9 131.5 85.1 131.5 85.4 131.6 86.4 132.1 87.6 132.3 88.8 132.3 90.4 132.3 91.2 131.8 91.2 130.6 91.2 130.1 91 129.7 90.6 129.4 90.3 129.1 89.6 128.9 88.7 128.7ZM101.6 123.2C100.6 123.2 99.8 123.5 99.2 124.1 98.6 124.7 98.3 125.5 98.2 126.6 98.2 126.8 98.3 126.8 98.4 126.8L104.7 126.8C104.9 126.8 104.9 126.8 104.9 126.6 104.9 125.5 104.5 124.7 104 124.1 103.4 123.5 102.6 123.2 101.6 123.2ZM101.9 134.2C100.1 134.2 98.6 133.7 97.5 132.5 96.3 131.3 95.7 129.7 95.7 127.8 95.7 125.7 96.3 124.2 97.3 123 98.4 121.9 99.8 121.3 101.6 121.3 103.4 121.3 104.7 121.8 105.7 122.8 106.7 123.9 107.2 125.4 107.3 127.4 107.3 127.7 107.1 128.1 106.9 128.3 106.6 128.6 106.2 128.7 105.8 128.7L98.4 128.7C98.3 128.7 98.2 128.8 98.2 128.9 98.3 130 98.7 130.8 99.4 131.4 100.1 132.1 101 132.4 102.1 132.4 103.1 132.4 104 132.2 104.8 131.9 105.1 131.8 105.3 131.8 105.5 131.9 105.8 132 105.9 132.1 106 132.4 106.1 132.6 106.1 132.9 106 133.1 105.9 133.4 105.7 133.6 105.4 133.7 104.4 134 103.2 134.2 101.9 134.2ZM111.2 134C110.9 134 110.6 133.9 110.4 133.6 110.1 133.4 110 133.1 110 132.8L110 122.7C110 122.4 110.1 122.1 110.3 121.9 110.6 121.6 110.9 121.5 111.2 121.5 111.5 121.5 111.8 121.6 112 121.9 112.2 122.1 112.3 122.4 112.4 122.7L112.4 123.9C112.4 123.9 112.4 123.9 112.4 123.9 112.4 123.9 112.4 123.9 112.4 123.9 113.7 122.4 115.3 121.6 117.2 121.3 117.4 121.3 117.7 121.4 117.9 121.6 118.1 121.8 118.2 122 118.2 122.3 118.2 122.6 118.1 122.8 117.9 123 117.7 123.2 117.4 123.3 117.2 123.3 115.7 123.5 114.5 124.1 113.7 125 112.9 125.9 112.4 127.1 112.4 128.5L112.4 132.8C112.4 133.1 112.3 133.4 112.1 133.6 111.8 133.9 111.6 134 111.2 134ZM120.3 134C120 134 119.7 133.9 119.4 133.6 119.1 133.3 119 133 119 132.6L119 131.8C119 131.4 119.1 131.1 119.4 130.8 119.7 130.5 120 130.4 120.3 130.4L120.7 130.4C121.1 130.4 121.4 130.5 121.7 130.8 122 131.1 122.1 131.4 122.1 131.8L122.1 132.6C122.1 133 122 133.3 121.7 133.6 121.4 133.9 121.1 134 120.7 134L120.3 134Z" class="a"/><g transform="translate(31 17)"><path d="M44 99C59.5 99 88 76.8 88 49.5 88 0 88 0 44 0 0 0 0 0 0 49.5 0 76.8 28.5 99 44 99Z" class="b"/><path d="M23 72C30 73.8 37 74.7 44 74.7 51 74.7 58 73.8 65 72L44 80 23 72Z" style="fill:#55B7FF;stroke-linejoin:round;stroke-width:2;stroke:#55B7FF"/><circle cx="67.5" cy="62.5" r="2.5" class="a"/><path d="M61 53C63.1 53.5 65.3 53.7 67.5 53.7 69.7 53.7 71.9 53.5 74 53 74.8 52.8 75.4 53.8 74.7 54.4 72.7 56.1 70.2 57 67.5 57 64.8 57 62.3 56.1 60.3 54.4 59.6 53.8 60.2 52.8 61 53Z" class="b"/><circle cx="22.5" cy="62.5" r="2.5" class="a"/><path d="M16 53C18.1 53.5 20.3 53.7 22.5 53.7 24.7 53.7 26.9 53.5 29 53 29.8 52.8 30.4 53.8 29.7 54.4 27.7 56.1 25.2 57 22.5 57 19.8 57 17.3 56.1 15.3 54.4 14.6 53.8 15.2 52.8 16 53Z" class="b"/><path d="M49.9 57.7C47.9 52.3 46 42.1 44 27L44 66C48.6 62.4 50.5 59.6 49.9 57.7Z" class="c"/><path d="M58.1 41.7C57.9 41.8 57.7 41.8 57.5 41.7 57.3 41.6 57.1 41.4 57 41.2 57 41 57 40.8 57.1 40.6 57.2 40.4 57.4 40.3 57.6 40.2 60.9 39.3 63.9 38.1 66.7 36.4 66.8 36.3 66.8 36.3 66.7 36.2 65.9 35.2 65 34.2 63.9 33.2 63.7 33 63.7 32.8 63.7 32.6 63.7 32.3 63.8 32.1 64 32 64.4 31.6 64.8 31.6 65.3 32 66.2 33 67.2 34 68.2 35.1 68.3 35.2 68.4 35.3 68.5 35.2 71 33.4 72.6 31.6 73.5 29.7 73.6 29.7 73.6 29.6 73.5 29.6 73.5 29.5 73.5 29.5 73.4 29.5L65 29.5C64.9 29.5 64.7 29.6 64.6 29.7 63.2 31.1 61.3 32.5 59.1 33.8 58.9 33.9 58.7 33.9 58.5 33.8 58.3 33.8 58.1 33.6 58 33.4 57.9 33.2 57.8 33 57.9 32.8 58 32.6 58.1 32.4 58.3 32.3 61.3 30.5 63.6 28.5 65.3 26.4 65.4 26.2 65.6 26.1 65.8 26 66.1 26 66.3 26 66.5 26.1 66.7 26.2 66.8 26.4 66.9 26.6 67 26.8 66.9 27 66.8 27.2 66.7 27.4 66.5 27.6 66.4 27.7 66.3 27.8 66.3 27.9 66.5 27.9L74.8 27.9C75 27.9 75.2 28 75.3 28.1 75.5 28.3 75.6 28.5 75.6 28.7 75.6 29.3 75.5 29.9 75.2 30.3 73.9 33 71.4 35.5 67.8 37.7 67.7 37.7 67.7 37.7 67.8 37.8 67.8 37.8 67.8 37.8 67.8 37.8L76.6 37.8C77 37.8 77.3 38 77.6 38.2 77.9 38.5 78 38.8 78 39.2L78 47C78 47.3 77.9 47.5 77.7 47.7 77.5 47.9 77.3 48 77 48 76.8 48 76.6 47.9 76.4 47.7 76.2 47.5 76.1 47.3 76.1 47L76.1 46.8C76.1 46.7 76 46.7 75.9 46.7L65.7 46.7C65.6 46.7 65.5 46.7 65.5 46.8L65.5 47C65.5 47.3 65.4 47.5 65.2 47.7 65 47.9 64.8 48 64.6 48 64.3 48 64.1 47.9 63.9 47.7 63.7 47.5 63.6 47.3 63.6 47L63.6 40.1C63.6 39.9 63.6 39.9 63.4 39.9 61.7 40.7 59.9 41.3 58.1 41.7ZM76.1 39.6C76.1 39.5 76 39.4 75.9 39.4L65.7 39.4C65.6 39.4 65.5 39.5 65.5 39.6L65.5 44.9C65.5 45.1 65.6 45.1 65.7 45.1L75.9 45.1C76 45.1 76.1 45.1 76.1 44.9L76.1 39.6Z" class="a"/><path d="M32.7 38.2C33 38.2 33.4 38.4 33.6 38.6 33.9 38.9 34 39.2 34 39.6 33.9 42 33.7 43.8 33.5 44.9 33.2 46.1 32.9 46.9 32.5 47.2 32.2 47.6 31.6 47.8 30.9 47.8 30.2 47.8 29.3 47.7 28.2 47.6 28 47.6 27.8 47.5 27.7 47.3 27.5 47.2 27.4 47 27.4 46.8 27.4 46.5 27.5 46.4 27.7 46.2 27.8 46.1 28 46 28.2 46 29.2 46.1 30 46.2 30.4 46.2 30.8 46.2 31 46 31.2 45.8 31.4 45.6 31.6 45 31.8 44.1 32 43.1 32.1 41.8 32.2 40 32.2 39.8 32.1 39.8 32 39.8L20 39.8C19.8 39.8 19.7 39.8 19.6 39.9 18.8 41 17.9 41.9 16.8 42.9 16.6 43.1 16.4 43.1 16.2 43.1 16 43.1 15.8 43 15.7 42.9 15.6 42.8 15.6 42.8 15.6 42.8 15.5 42.9 15.5 42.9 15.5 42.9L15.5 47.1C15.5 47.3 15.4 47.5 15.3 47.7 15.1 47.9 14.9 48 14.6 48 14.4 48 14.1 47.9 14 47.7 13.8 47.5 13.7 47.3 13.7 47.1L13.7 36.4C13.7 36.4 13.7 36.4 13.7 36.4 13.6 36.4 13.6 36.4 13.6 36.4 13.2 37.1 12.7 37.9 12.2 38.6 12.1 38.8 11.9 38.9 11.7 38.9 11.4 38.9 11.2 38.7 11.2 38.5 10.9 37.9 11 37.3 11.4 36.7 13.2 34 14.5 30.9 15.3 27.4 15.4 27.2 15.5 27 15.7 26.8 15.9 26.7 16.1 26.7 16.4 26.7 16.6 26.8 16.8 26.9 17 27.1 17.1 27.3 17.1 27.5 17.1 27.7 16.7 29.4 16.2 31.1 15.6 32.6 15.6 32.7 15.5 32.9 15.5 33L15.5 41.5C15.5 41.5 15.5 41.6 15.6 41.6 15.6 41.6 15.6 41.6 15.7 41.6 15.7 41.6 15.7 41.5 15.7 41.5L15.7 41.5C18.8 38.6 21.1 35.2 22.6 31.3 22.6 31.2 22.6 31.1 22.5 31.1L17.9 31.1C17.7 31.1 17.5 31 17.3 30.9 17.2 30.7 17.1 30.5 17.1 30.3 17.1 30.1 17.2 29.9 17.3 29.8 17.5 29.6 17.7 29.5 17.9 29.5L19.6 29.5C19.8 29.5 19.8 29.5 19.7 29.3 19.4 28.5 19.1 28 18.9 27.6 18.8 27.4 18.8 27.2 18.9 27 19 26.7 19.1 26.6 19.3 26.5 19.6 26.5 19.8 26.5 20 26.6 20.3 26.7 20.5 26.8 20.6 27 20.9 27.6 21.2 28.4 21.6 29.3 21.7 29.5 21.8 29.5 21.9 29.5L23 29.5C23.2 29.5 23.3 29.5 23.3 29.3 23.5 28.4 23.8 27.5 23.9 26.8 24 26.5 24.1 26.3 24.3 26.2 24.5 26 24.7 26 24.9 26 25.2 26 25.4 26.1 25.5 26.3 25.7 26.5 25.7 26.7 25.7 27 25.6 27.7 25.4 28.5 25.1 29.3 25.1 29.5 25.2 29.5 25.3 29.5L30.5 29.5C30.8 29.5 31.1 29.7 31.3 29.9 31.6 30.2 31.7 30.5 31.6 30.9 31.5 31.7 31.3 32.6 31.1 33.7 31.1 33.8 31.2 33.9 31.3 33.9L31.6 33.9C31.9 33.9 32.2 34 32.5 34.3 32.7 34.5 32.8 34.8 32.7 35.2 32.7 35.5 32.6 35.9 32.5 36.6 32.4 37.3 32.3 37.8 32.3 38 32.2 38.2 32.3 38.2 32.4 38.2L32.7 38.2ZM23.5 33.7C23.5 33.7 23.5 33.8 23.6 33.8 23.6 33.9 23.6 33.9 23.7 33.9L29 33.9C29.1 33.9 29.2 33.8 29.3 33.7 29.3 33.5 29.4 33.1 29.5 32.5 29.6 31.9 29.6 31.5 29.7 31.3 29.7 31.2 29.6 31.1 29.5 31.1L24.8 31.1C24.6 31.1 24.6 31.2 24.5 31.3 24.2 32.3 23.9 33.1 23.5 33.7ZM30.4 38C30.6 36.8 30.7 36 30.8 35.5 30.9 35.4 30.8 35.3 30.7 35.3L22.9 35.3C22.8 35.3 22.7 35.4 22.6 35.5 22.2 36.2 21.7 37.1 21 38 21 38.1 21 38.1 21 38.2 21.1 38.2 21.1 38.2 21.1 38.2L30.2 38.2C30.3 38.2 30.4 38.1 30.4 38ZM18 47.4C17.8 47.3 17.6 47.1 17.5 46.9 17.4 46.7 17.4 46.5 17.5 46.3 17.9 45.1 18.3 43.7 18.7 41.9 18.7 41.7 18.9 41.5 19.1 41.4 19.3 41.2 19.5 41.2 19.7 41.3 19.9 41.3 20.1 41.5 20.2 41.7 20.3 41.9 20.4 42.1 20.3 42.3 20 44 19.5 45.5 19.1 46.9 19 47.1 18.9 47.2 18.7 47.3 18.5 47.4 18.2 47.4 18 47.4ZM23.2 46.8C23 46.9 22.8 46.8 22.6 46.7 22.5 46.6 22.4 46.4 22.3 46.2 22.1 44.6 22 43.3 21.8 42.1 21.7 41.9 21.8 41.7 21.9 41.5 22 41.3 22.2 41.2 22.4 41.2 22.6 41.1 22.8 41.2 23 41.3 23.2 41.4 23.3 41.6 23.4 41.8 23.6 43.3 23.8 44.6 23.9 45.9 24 46.1 23.9 46.3 23.8 46.5 23.6 46.7 23.4 46.8 23.2 46.8ZM27 45.7C26.8 45.7 26.6 45.7 26.4 45.6 26.2 45.4 26.1 45.3 26.1 45.1 25.9 43.9 25.6 42.9 25.4 41.9 25.3 41.6 25.4 41.5 25.5 41.3 25.6 41.1 25.7 41 25.9 40.9 26.1 40.9 26.3 40.9 26.5 41 26.7 41.1 26.8 41.3 26.9 41.5 27.1 42.5 27.4 43.6 27.6 44.8 27.7 45 27.6 45.2 27.5 45.4 27.4 45.6 27.2 45.7 27 45.7ZM30.6 44.2C30.3 44.3 30.2 44.2 30 44.1 29.8 44.1 29.7 43.9 29.6 43.7 29.4 42.9 29.1 42.2 28.9 41.5 28.8 41.4 28.8 41.2 28.9 41 29 40.8 29.1 40.7 29.3 40.7 29.5 40.6 29.7 40.6 29.9 40.7 30.1 40.8 30.2 41 30.3 41.2 30.6 41.8 30.8 42.6 31.1 43.3 31.1 43.5 31.1 43.7 31 43.9 30.9 44.1 30.8 44.2 30.6 44.2Z" class="a"/><polygon points="44 8 40 14.1 44 20 48 14.1" class="c"/></g></g></svg>
