<svg width="130px" height="130px" viewBox="0 0 130 130" version="1.1" xmlns="http://www.w3.org/2000/svg" xmlns:xlink="http://www.w3.org/1999/xlink">
    <!-- Generator: Sketch 50 (54983) - http://www.bohemiancoding.com/sketch -->
    <desc>Created with Sketch.</desc>
    <defs></defs>
    <g id="Symbols" stroke="none" stroke-width="1" fill="none" fill-rule="evenodd">
        <g id="Browser-gimei">
            <path d="M0,0 L130,0 L130,130 L0,130 L0,0 Z M35,5 L35,35 L65,35 L65,5 L35,5 Z M95,5 L95,35 L125,35 L125,5 L95,5 Z M65,35 L65,65 L95,65 L95,35 L65,35 Z M5,35 L5,65 L35,65 L35,35 L5,35 Z M35,65 L35,95 L65,95 L65,65 L35,65 Z M95,65 L95,95 L125,95 L125,65 L95,65 Z M65,95 L65,125 L95,125 L95,95 L65,95 Z M5,95 L5,125 L35,125 L35,95 L5,95 Z M71.925,19.625 C72.0916675,19.625 72.2333327,19.5666673 72.35,19.45 C72.4666672,19.3333328 72.525,19.1916675 72.525,19.025 L72.525,13.4 C72.525,13.266666 72.591666,13.2 72.725,13.2 L88.25,13.2 C88.383334,13.2 88.45,13.266666 88.45,13.4 L88.45,15.875 C88.45,19.3250173 87.4000105,22.0666565 85.3,24.1 C83.1999895,26.1333435 80.1583532,27.3249983 76.175,27.675 C76.0249992,27.6916668 75.8958339,27.7583328 75.7875,27.875 C75.6791661,27.9916673 75.6333332,28.1249993 75.65,28.275 C75.6833335,28.4416675 75.7583327,28.5749995 75.875,28.675 C75.9916672,28.7750005 76.1333325,28.8166668 76.3,28.8 C80.6000215,28.4333315 83.9041551,27.1333445 86.2125,24.9 C88.5208449,22.6666555 89.675,19.6583523 89.675,15.875 L89.675,13.5 C89.675,13.1166648 89.5333347,12.7833348 89.25,12.5 C88.9666652,12.2166653 88.6333352,12.075 88.25,12.075 L81.1,12.075 C80.9499992,12.075 80.875,12.008334 80.875,11.875 L80.875,8.55 C80.875,8.3833325 80.8166672,8.24166725 80.7,8.125 C80.5833327,8.00833275 80.4416675,7.95 80.275,7.95 C80.1083325,7.95 79.9666672,8.00833275 79.85,8.125 C79.7333327,8.24166725 79.675,8.3833325 79.675,8.55 L79.675,11.875 C79.675,12.008334 79.6000007,12.075 79.45,12.075 L72.75,12.075 C72.3666647,12.075 72.0333347,12.2166653 71.75,12.5 C71.4666652,12.7833348 71.325,13.1166648 71.325,13.5 L71.325,19.025 C71.325,19.1916675 71.3833327,19.3333328 71.5,19.45 C71.6166672,19.5666673 71.7583325,19.625 71.925,19.625 Z M10.875,13 C10.7083325,13 10.5708339,12.9458339 10.4625,12.8375 C10.3541661,12.7291661 10.3,12.5916675 10.3,12.425 C10.3,12.2583325 10.3541661,12.1166673 10.4625,12 C10.5708339,11.8833328 10.7083325,11.825 10.875,11.825 L27.175,11.825 C27.5583353,11.825 27.8916653,11.9708319 28.175,12.2625 C28.4583348,12.5541681 28.5916668,12.8916648 28.575,13.275 C28.4083325,18.208358 27.091679,21.9999868 24.625,24.65 C22.158321,27.3000133 18.425025,28.9499968 13.425,29.6 C13.2583325,29.6166668 13.1125006,29.5791671 12.9875,29.4875 C12.8624994,29.3958329 12.7833335,29.2666675 12.75,29.1 C12.7333333,28.9499993 12.7708329,28.8125006 12.8625,28.6875 C12.9541671,28.5624994 13.0749993,28.4833335 13.225,28.45 C17.9083568,27.8166635 21.3916553,26.2750123 23.675,23.825 C25.9583448,21.3749878 27.1749993,17.8416898 27.325,13.225 C27.325,13.0749993 27.2500008,13 27.1,13 L10.875,13 Z M29.05,11.55 C29.116667,11.683334 29.1333335,11.816666 29.1,11.95 C29.0666665,12.083334 28.983334,12.183333 28.85,12.25 C28.5499985,12.4000008 28.3166675,12.3333348 28.15,12.05 C27.6999978,11.2666628 27.14167,10.3250055 26.475,9.225 C26.3916663,9.10833275 26.3708331,8.97916738 26.4125,8.8375 C26.4541669,8.69583263 26.5333328,8.591667 26.65,8.525 C26.783334,8.458333 26.916666,8.4416665 27.05,8.475 C27.183334,8.5083335 27.2916663,8.591666 27.375,8.725 C27.9416695,9.60833775 28.4999973,10.549995 29.05,11.55 Z M31.375,11.675 C30.8249973,10.674995 30.2583363,9.708338 29.675,8.775 C29.4916658,8.49166525 29.5499985,8.25833425 29.85,8.075 C29.983334,8.008333 30.1208326,7.9916665 30.2625,8.025 C30.4041674,8.0583335 30.5166663,8.141666 30.6,8.275 C31.2166698,9.275005 31.7833308,10.2499953 32.3,11.2 C32.366667,11.333334 32.3833335,11.466666 32.35,11.6 C32.3166665,11.733334 32.233334,11.833333 32.1,11.9 C31.7999985,12.0500008 31.5583343,11.9750015 31.375,11.675 Z M41.7516342,60.822575 C41.5852638,60.822575 41.4396919,60.7643462 41.3149141,60.6478869 C41.1901363,60.5314277 41.1277484,60.390015 41.1277484,60.2236446 L41.1277484,47.4464632 C41.1277484,47.4131891 41.11943,47.3965523 41.1027929,47.3965523 C41.0861559,47.3965523 41.0695191,47.4048707 41.0528821,47.4215077 C40.3874005,48.7857449 39.6470634,50.0251856 38.8318486,51.1398672 C38.7486634,51.2729635 38.6280467,51.3311922 38.4699948,51.3145552 C38.3119429,51.2979182 38.1996446,51.2230526 38.1330965,51.0899563 C37.933452,50.7073044 37.9584072,50.3412951 38.2079628,49.9919173 C40.3541407,46.8974282 41.8930436,43.3122002 42.8247178,39.2361259 C42.8579918,39.0697555 42.945335,38.9366612 43.0867498,38.836839 C43.2281646,38.7370167 43.3737365,38.7037432 43.5234699,38.7370172 C43.6898403,38.7702913 43.8146162,38.8576345 43.8978014,38.9990493 C43.9809865,39.1404641 44.0059417,39.2943544 43.9726677,39.4607248 C43.5733787,41.2575249 43.0576383,42.9711141 42.4254308,44.6015439 C42.3755197,44.7180031 42.3505645,44.8510974 42.3505645,45.0008308 L42.3505645,60.2236446 C42.3505645,60.390015 42.2923358,60.5314277 42.1758765,60.6478869 C42.0594172,60.7643462 41.9180045,60.822575 41.7516342,60.822575 Z M60.4432531,50.9402237 C60.8259049,50.9402237 61.1503223,51.0774772 61.4165149,51.3519883 C61.6827075,51.6264995 61.8074835,51.9550761 61.7908464,52.3377279 C61.6910242,54.6669133 61.5121787,56.4262537 61.2543046,57.6158019 C60.9964305,58.8053501 60.6803315,59.5872792 60.3059982,59.9616125 C59.9316648,60.3359459 59.4034468,60.5231098 58.7213282,60.5231098 C57.9061134,60.5231098 56.9411796,60.464881 55.8264981,60.3484217 C55.6767647,60.3317847 55.5519888,60.2652376 55.4521666,60.1487783 C55.3523443,60.032319 55.302434,59.8992247 55.302434,59.7494914 C55.302434,59.599758 55.3565035,59.4791413 55.4646443,59.3876376 C55.572785,59.2961339 55.7017202,59.2587011 55.8514535,59.2753381 C57.0992314,59.3917974 57.9726628,59.4500262 58.4717739,59.4500262 C58.7878776,59.4500262 59.0457479,59.3793198 59.2453923,59.237905 C59.4450368,59.0964902 59.6446782,58.7928688 59.8443227,58.3270317 C60.0439671,57.8611946 60.2061758,57.1291759 60.3309536,56.1309537 C60.4557314,55.1327314 60.5513929,53.8350619 60.6179411,52.2379062 C60.6179411,52.0715358 60.5513939,51.9883519 60.4182976,51.9883519 L47.0421858,51.9883519 C46.9423636,51.9883519 46.8259061,52.054899 46.6928098,52.1879953 C45.6613134,53.4357732 44.5383302,54.6086668 43.3238264,55.7067113 C43.0409968,55.9562669 42.7748081,55.9313117 42.5252526,55.631845 C42.292334,55.2991042 42.3172892,55.0079604 42.6001189,54.7584049 C46.2103561,51.4975454 48.822332,47.6461288 50.4361247,43.2040397 C50.4693987,43.0543063 50.4194884,42.9794408 50.2863921,42.9794408 L44.5466426,42.9794408 C44.3969093,42.9794408 44.2679741,42.9295304 44.1598334,42.8297082 C44.0516926,42.7298859 43.9976231,42.60511 43.9976231,42.4553767 C43.9976231,42.3056433 44.0516926,42.1767082 44.1598334,42.0685675 C44.2679741,41.9604267 44.3969093,41.9063572 44.5466426,41.9063572 L47.2168739,41.9063572 C47.266785,41.9063572 47.3042178,41.8855612 47.3291733,41.8439686 C47.3541289,41.802376 47.3582881,41.7649432 47.341651,41.7316691 C46.875814,40.7334469 46.476531,39.9265626 46.1437903,39.3109922 C46.0606051,39.1778959 46.0439683,39.0364832 46.0938794,38.8867498 C46.1437905,38.7370165 46.2436113,38.6288774 46.3933446,38.5623292 C46.7759965,38.4125959 47.0505035,38.5124166 47.2168739,38.8617944 C47.7825332,39.9099278 48.2566816,40.8665432 48.6393335,41.7316691 C48.6892446,41.8481284 48.7890654,41.9063572 48.9387987,41.9063572 L50.6357681,41.9063572 C50.8021385,41.9063572 50.9019592,41.83981 50.9352333,41.7067137 C51.2014259,40.8582248 51.4509777,39.7851519 51.6838963,38.4874629 C51.7005333,38.3210925 51.7753989,38.1921574 51.9084952,38.1006537 C52.0415915,38.00915 52.1913226,37.9800356 52.357693,38.0133097 C52.7403448,38.0798579 52.9067127,38.2961361 52.8568016,38.662151 C52.7070683,39.543914 52.4741532,40.5587581 52.1580495,41.7067137 C52.1247754,41.83981 52.1746858,41.9063572 52.3077821,41.9063572 L57.9227544,41.9063572 C58.3054063,41.9063572 58.6173461,42.0519291 58.8585831,42.3430772 C59.0998202,42.6342254 59.1871633,42.962802 59.1206151,43.3288168 C58.9875188,44.1273946 58.8294693,45.0590548 58.6464619,46.1238253 C58.6131879,46.2735586 58.6714166,46.3484241 58.82115,46.3484241 L59.1954814,46.3484241 C59.5781333,46.3484241 59.8900731,46.493996 60.1313102,46.7851442 C60.3725472,47.0762924 60.4598904,47.404869 60.3933422,47.7708838 C60.2602459,48.6360098 60.1021964,49.6175803 59.919189,50.7156248 C59.9025519,50.7655359 59.9150295,50.8154463 59.9566221,50.8653574 C59.9982147,50.9152685 60.0439659,50.9402237 60.093877,50.9402237 L60.4432531,50.9402237 Z M50.4610801,46.1487807 C50.3945319,46.281877 50.4361239,46.3484241 50.5858573,46.3484241 L57.1740914,46.3484241 C57.3071877,46.3484241 57.3903717,46.281877 57.4236457,46.1487807 C57.4735569,45.849314 57.5650592,45.321096 57.6981555,44.5641107 C57.8312518,43.8071255 57.9061174,43.3620914 57.9227544,43.2289951 C57.9560285,43.0626247 57.8977997,42.9794408 57.7480664,42.9794408 L51.958406,42.9794408 C51.8253097,42.9794408 51.7338074,43.0459879 51.6838963,43.1790842 C51.4010666,43.9942991 50.9934653,44.984188 50.4610801,46.1487807 Z M58.6963728,50.7405803 C58.7629209,50.3912025 58.8669009,49.7839597 59.0083157,48.9188337 C59.1497305,48.0537077 59.2204369,47.6045144 59.2204369,47.5712403 C59.2370739,47.5213292 59.2204371,47.4714189 59.170526,47.4215077 C59.1206149,47.3715966 59.0707045,47.3466414 59.0207934,47.3466414 L50.0867486,47.3466414 C49.9536523,47.3466414 49.8538316,47.4048702 49.7872834,47.5213295 C49.2216241,48.5860999 48.5395158,49.6758096 47.740938,50.7904911 C47.6743898,50.8903133 47.7076638,50.9402237 47.8407597,50.9402237 L58.4468185,50.9402237 C58.5799148,50.9402237 58.6630987,50.8736766 58.6963728,50.7405803 Z M45.894236,59.7744468 C45.8443248,59.9241801 45.7403449,60.0323193 45.582293,60.0988674 C45.4242412,60.1654156 45.2703509,60.173734 45.1206175,60.1238229 C44.9708842,60.0739117 44.8669043,59.974091 44.8086746,59.8243577 C44.750445,59.6746243 44.7462858,59.5248932 44.7961969,59.3751599 C45.3119451,57.9610116 45.8193672,56.239104 46.3184783,54.2093854 C46.4016635,53.8433705 46.6262601,53.7019578 46.992275,53.785143 C47.1586454,53.8184171 47.2834213,53.9057602 47.3666065,54.0471751 C47.4497917,54.1885899 47.4747468,54.3424802 47.4414728,54.5088506 C46.9589987,56.4886581 46.4432582,58.2438393 45.894236,59.7744468 Z M50.7106344,59.5248925 C50.5609011,59.5581665 50.4236476,59.5290522 50.2988698,59.4375485 C50.174092,59.3460447 50.1033856,59.225428 50.0867486,59.0756947 C49.9370153,57.6449094 49.7124186,56.0893697 49.4129519,54.4090288 C49.3796778,54.2426584 49.4087922,54.0887681 49.5002959,53.9473533 C49.5917996,53.8059385 49.7124164,53.7269138 49.8621497,53.7102767 C50.0118831,53.6770026 50.157455,53.706117 50.2988698,53.7976207 C50.4402846,53.8891244 50.5193093,54.0097412 50.5359464,54.1594745 C50.8354131,55.8065413 51.0600097,57.3787178 51.2097431,58.8760512 C51.2263801,59.0424216 51.1889473,59.1879935 51.0974436,59.3127713 C51.0059399,59.4375491 50.8770048,59.5082554 50.7106344,59.5248925 Z M54.8282808,58.3020763 C54.6785474,58.3353504 54.5412939,58.306236 54.4165161,58.2147323 C54.2917383,58.1232286 54.2127136,58.0026118 54.1794395,57.8528785 C53.9298839,56.6217377 53.6221034,55.3739785 53.2560885,54.1095636 C53.2228144,53.9764673 53.2436104,53.843373 53.3184771,53.7102767 C53.3933438,53.5771804 53.5056421,53.4939965 53.6553754,53.4607224 C54.0213903,53.3775372 54.2459869,53.5106315 54.3291721,53.8600093 C54.7617351,55.3739798 55.0778341,56.6300573 55.2774785,57.6282796 C55.3107526,57.778013 55.2816382,57.9194257 55.1901345,58.052522 C55.0986308,58.1856183 54.9780141,58.2688022 54.8282808,58.3020763 Z M58.82115,56.9045721 C58.5050462,57.0210313 58.2804496,56.9045738 58.1473533,56.555196 C57.9144347,55.8564404 57.5567438,54.9497354 57.0742697,53.8350539 C56.9411734,53.5189502 57.0409941,53.3026719 57.3737349,53.1862126 C57.7064756,53.0697534 57.9477091,53.1695741 58.0974424,53.4856778 C58.5965536,54.6669075 58.9625629,55.5819309 59.1954814,56.2307754 C59.2453926,56.3638717 59.2287558,56.5011252 59.1455706,56.64254 C59.0623854,56.7839548 58.9542463,56.871298 58.82115,56.9045721 Z" id="Rectangle-3-Copy" fill="#FF559D"></path>
            <g id="Group" transform="translate(38.000000, 7.000000)" fill="#FF559D">
                <path d="M79,1.475 C79.3166683,1.35833275 79.5583325,1.44166525 79.725,1.725 C80.2250025,2.658338 80.7249975,3.63332825 81.225,4.65 C81.3750008,4.96666825 81.2916683,5.18333275 80.975,5.3 C80.6583318,5.41666725 80.4250008,5.3250015 80.275,5.025 C79.9583318,4.35833 79.4583368,3.391673 78.775,2.125 C78.6249993,1.80833175 78.6999985,1.59166725 79,1.475 Z M82.8,1.3 C83.333336,2.2666715 83.8416643,3.25832825 84.325,4.275 C84.391667,4.39166725 84.4000003,4.52083262 84.35,4.6625 C84.2999998,4.80416737 84.208334,4.89999975 84.075,4.95 C83.7583318,5.06666725 83.5250008,4.96666825 83.375,4.65 C82.908331,3.69999525 82.3916695,2.7083385 81.825,1.675 C81.6749993,1.35833175 81.7499985,1.14166725 82.05,1.025 C82.383335,0.90833275 82.6333325,0.9999985 82.8,1.3 Z M61.775,8.675 C61.6249993,8.675 61.4916673,8.61666725 61.375,8.5 C61.2583328,8.38333275 61.2,8.25000075 61.2,8.1 C61.2,7.94999925 61.2583328,7.82083387 61.375,7.7125 C61.4916673,7.60416612 61.6249993,7.55 61.775,7.55 L65.5,7.55 C65.633334,7.55 65.7,7.47500075 65.7,7.325 L65.7,3.5 C65.7,3.3333325 65.7583328,3.19583387 65.875,3.0875 C65.9916673,2.97916612 66.1333325,2.925 66.3,2.925 C66.4666675,2.925 66.6083328,2.97916612 66.725,3.0875 C66.8416673,3.19583387 66.9,3.3333325 66.9,3.5 L66.9,7.325 C66.9,7.47500075 66.966666,7.55 67.1,7.55 L76.425,7.55 C76.5750008,7.55 76.65,7.47500075 76.65,7.325 L76.65,3.525 C76.65,3.34166575 76.7083328,3.19583387 76.825,3.0875 C76.9416673,2.97916612 77.0833325,2.925 77.25,2.925 C77.4333343,2.925 77.5833328,2.98333275 77.7,3.1 C77.8166673,3.21666725 77.875,3.3583325 77.875,3.525 L77.875,7.325 C77.875,7.47500075 77.9499993,7.55 78.1,7.55 L82.225,7.55 C82.3750008,7.55 82.5083328,7.60416612 82.625,7.7125 C82.7416673,7.82083387 82.8,7.94999925 82.8,8.1 C82.8,8.25000075 82.7416673,8.38333275 82.625,8.5 C82.5083328,8.61666725 82.3750008,8.675 82.225,8.675 L78.1,8.675 C77.9499993,8.675 77.875,8.741666 77.875,8.875 L77.875,10.325 C77.875,14.4750207 77.0666748,17.483324 75.45,19.35 C73.8333253,21.216676 71.0083535,22.383331 66.975,22.85 C66.8083325,22.8666667 66.6625006,22.8291671 66.5375,22.7375 C66.4124994,22.6458329 66.3333335,22.5166675 66.3,22.35 C66.2666665,22.1999992 66.2958329,22.0625006 66.3875,21.9375 C66.4791671,21.8124994 66.5999993,21.7416667 66.75,21.725 C70.5166855,21.2749977 73.1083263,20.2291749 74.525,18.5875 C75.9416738,16.9458251 76.65,14.191686 76.65,10.325 L76.65,8.875 C76.65,8.741666 76.5750008,8.675 76.425,8.675 L67.1,8.675 C66.966666,8.675 66.9,8.741666 66.9,8.875 L66.9,14.025 C66.9,14.1916675 66.8416673,14.3333327 66.725,14.45 C66.6083328,14.5666672 66.4666675,14.625 66.3,14.625 C66.1333325,14.625 65.9916673,14.5666672 65.875,14.45 C65.7583328,14.3333327 65.7,14.1916675 65.7,14.025 L65.7,8.875 C65.7,8.741666 65.633334,8.675 65.5,8.675 L61.775,8.675 Z" id="ザ"></path>
                <path d="M3.45,11.475 C3.29999925,11.475 3.16666725,11.4208339 3.05,11.3125 C2.93333275,11.2041661 2.875,11.0750008 2.875,10.925 C2.875,10.7749993 2.93333275,10.6416673 3.05,10.525 C3.16666725,10.4083328 3.29999925,10.35 3.45,10.35 L20.55,10.35 C20.950002,10.35 21.2874986,10.4916653 21.5625,10.775 C21.8375014,11.0583348 21.9583335,11.3916648 21.925,11.775 C21.6749988,14.9916828 20.3208456,17.533324 17.8625,19.4 C15.4041544,21.266676 11.8833563,22.4083313 7.3,22.825 C7.1333325,22.8416668 6.983334,22.8041671 6.85,22.7125 C6.716666,22.6208329 6.64166675,22.4916675 6.625,22.325 C6.5916665,22.1749993 6.6249995,22.0375006 6.725,21.9125 C6.8250005,21.7874994 6.94999925,21.7166668 7.1,21.7 C8.48334025,21.566666 9.774994,21.3708346 10.975,21.1125 C12.175006,20.8541654 13.3624941,20.4666693 14.5375,19.95 C15.7125059,19.4333308 16.7208291,18.8166703 17.5625,18.1 C18.4041709,17.3833298 19.1124971,16.4791721 19.6875,15.3875 C20.2625029,14.2958279 20.5999995,13.0666735 20.7,11.7 C20.7,11.5499993 20.633334,11.475 20.5,11.475 L3.45,11.475 Z M5.4,4.05 L19.6,4.05 C19.7500007,4.05 19.8833328,4.10416613 20,4.2125 C20.1166672,4.32083388 20.175,4.44999925 20.175,4.6 C20.175,4.75000075 20.1166672,4.88333275 20,5 C19.8833328,5.11666725 19.7500007,5.175 19.6,5.175 L5.4,5.175 C5.24999925,5.175 5.11666725,5.11666725 5,5 C4.88333275,4.88333275 4.825,4.75000075 4.825,4.6 C4.825,4.44999925 4.88333275,4.32083388 5,4.2125 C5.11666725,4.10416613 5.24999925,4.05 5.4,4.05 Z" id="ラ"></path>
                <g id="Group-2" transform="translate(0.000000, 61.000000)">
                    <path d="M1.125,16.425 C0.77499825,16.5083338 0.54166725,16.383335 0.425,16.05 C0.37499975,15.916666 0.387499625,15.7791674 0.4625,15.6375 C0.537500375,15.4958326 0.64999925,15.4083335 0.8,15.375 C4.58335225,14.3583283 7.98331825,12.8666765 11,10.9 C11.0500003,10.8833333 11.075,10.841667 11.075,10.775 C11.075,10.708333 11.0583335,10.6583335 11.025,10.625 C9.891661,9.40832725 8.65000675,8.1833395 7.3,6.95 C7.01666525,6.69999875 7.008332,6.441668 7.275,6.175 C7.541668,5.908332 7.81666525,5.89999875 8.1,6.15 C9.55000725,7.46667325 10.8499943,8.73332725 12,9.95 C12.1000005,10.083334 12.2083328,10.1000005 12.325,10 C14.99168,8.04999025 16.7833288,6.00001075 17.7,3.85 C17.766667,3.73333275 17.7250008,3.675 17.575,3.675 L8.275,3.675 C8.1083325,3.675 7.98333375,3.71666625 7.9,3.8 C6.433326,5.18334025 4.49167875,6.54166 2.075,7.875 C1.75833175,8.0416675 1.5166675,7.9750015 1.35,7.675 C1.283333,7.541666 1.2666665,7.408334 1.3,7.275 C1.3333335,7.141666 1.416666,7.03333375 1.55,6.95 C4.86668325,5.13332425 7.39999125,3.058345 9.15,0.725 C9.3833345,0.44166525 9.65833175,0.3833325 9.975,0.55 C10.2916683,0.73333425 10.350001,0.96666525 10.15,1.25 C9.749998,1.783336 9.44166775,2.17499875 9.225,2.425 C9.158333,2.5250005 9.18333275,2.575 9.3,2.575 L18.5,2.575 C18.6500008,2.575 18.7791661,2.62916613 18.8875,2.7375 C18.9958339,2.84583388 19.05,2.97499925 19.05,3.125 C19.05,3.525002 18.983334,3.86666525 18.85,4.15 C18.18333,5.683341 17.1083408,7.183326 15.625,8.65 C14.1416593,10.116674 12.3583438,11.449994 10.275,12.65 C10.2583333,12.6666668 10.25,12.6916665 10.25,12.725 C10.25,12.7583335 10.2666665,12.775 10.3,12.775 L20.25,12.775 C20.6333353,12.775 20.9666653,12.9166653 21.25,13.2 C21.5333348,13.4833348 21.675,13.8166648 21.675,14.2 L21.675,22.225 C21.675,22.3916675 21.6166673,22.5333328 21.5,22.65 C21.3833328,22.7666673 21.2333343,22.825 21.05,22.825 C20.8666658,22.825 20.7166673,22.7666673 20.6,22.65 C20.4833328,22.5333328 20.425,22.3916675 20.425,22.225 L20.425,21.6 C20.425,21.4833328 20.3666673,21.425 20.25,21.425 L8.8,21.425 C8.68333275,21.425 8.625,21.4833328 8.625,21.6 L8.625,22.225 C8.625,22.3916675 8.56666725,22.5333328 8.45,22.65 C8.33333275,22.7666673 8.1916675,22.825 8.025,22.825 C7.8583325,22.825 7.71666725,22.7666673 7.6,22.65 C7.48333275,22.5333328 7.425,22.3916675 7.425,22.225 L7.425,14.35 C7.425,14.1999993 7.358334,14.158333 7.225,14.225 C5.22499,15.1416713 3.191677,15.8749973 1.125,16.425 Z M20.425,14.05 C20.425,13.8999993 20.358334,13.825 20.225,13.825 L8.85,13.825 C8.69999925,13.825 8.625,13.8999993 8.625,14.05 L8.625,20.15 C8.625,20.3000008 8.69999925,20.375 8.85,20.375 L20.225,20.375 C20.358334,20.375 20.425,20.3000008 20.425,20.15 L20.425,14.05 Z" id="Combined-Shape"></path>
                </g>
            </g>
            <g id="Group-3-Copy-6" transform="translate(69.000000, 99.000000)" stroke="#FF559D">
                <path d="M13.9435655,21.0819421 C18.3845227,19.7879357 21.5,15.7001375 21.5,11 C21.5,5.20101013 16.7989899,0.5 11,0.5 C5.20101013,0.5 0.5,5.20101013 0.5,11 C0.5,15.7025657 3.61867666,19.7919466 8.06282462,21.0838023 L13.9435655,21.0819421 Z" id="Path"></path>
                <path d="M8.08314459,10.068114 C7.45966103,11.802376 7.01714709,13.9064104 7.01714709,16 C7.01714709,20.9705627 8.790861,24 11,24 C13.209139,24 15.0171471,20.9705627 15.0171471,16 C15.0171471,13.9092283 14.5697559,11.80804 13.9405677,10.0751189" id="Oval-7" stroke-linecap="round"></path>
                <path d="M4.69968737,14.0542441 C5.18976132,15.0633002 5.91510857,15.9369328 6.80440876,16.6038215" id="Oval-2" stroke-linecap="round"></path>
                <path d="M15.2988621,16.5248758 C16.1488795,15.862536 16.8420529,15.0083312 17.3133124,14.0273311" id="Path" stroke-linecap="round"></path>
                <path d="M6,7.03486289 L6.99768866,6" id="Path-12" stroke-linecap="round"></path>
                <path d="M15,7.03486289 L15.9976887,6" id="Path-12-Copy-2" stroke-linecap="round"></path>
                <path d="M16,7.05894377 L14.9862124,6" id="Path-14" stroke-linecap="round"></path>
                <path d="M7.01378756,7.05894377 L6,6" id="Path-14-Copy-2" stroke-linecap="round"></path>
            </g>
        </g>
    </g>
</svg>