<svg xmlns="http://www.w3.org/2000/svg" width="130" height="130" viewBox="0 0 130 130"><style>.a{fill:#1F2673;}.b{stroke-width:2;stroke:#1F2673;}.c{stroke-linejoin:round;stroke-width:2;stroke:#1F2673;}</style><desc>  Created with Sketch.</desc><g fill="none"><path d="M0 0L130 0 130 130 0 130 0 0ZM2 2L2 128 128 128 128 2 2 2Z" class="a"/><path d="M20.2 117.6L20.2 117.9C20.2 119.3 20.6 120.4 21.2 121.1 21.8 121.9 22.5 122.3 23.5 122.3 24.5 122.3 25.3 121.9 25.9 121.1 26.5 120.4 26.8 119.2 26.8 117.8 26.8 116.2 26.5 115.1 25.9 114.3 25.3 113.6 24.5 113.2 23.5 113.2 22.5 113.2 21.8 113.6 21.2 114.4 20.6 115.2 20.2 116.3 20.2 117.6ZM19 124C18.7 124 18.4 123.9 18.2 123.7 18 123.4 17.8 123.2 17.8 122.9L17.8 107.2C17.8 106.9 18 106.6 18.2 106.3 18.4 106.1 18.7 106 19 106 19.4 106 19.7 106.1 19.9 106.3 20.1 106.6 20.2 106.9 20.2 107.2L20.2 113.2C20.2 113.2 20.3 113.2 20.3 113.2 20.3 113.2 20.3 113.2 20.3 113.2 21.2 111.9 22.5 111.3 24.1 111.3 25.7 111.3 26.9 111.8 27.8 112.9 28.7 114 29.1 115.6 29.1 117.8 29.1 119.9 28.7 121.5 27.7 122.6 26.8 123.7 25.6 124.2 24.1 124.2 22.4 124.2 21.2 123.6 20.2 122.2 20.2 122.2 20.2 122.2 20.2 122.2 20.2 122.2 20.2 122.2 20.2 122.2L20.2 122.9C20.1 123.2 20 123.4 19.8 123.7 19.6 123.9 19.3 124 19 124ZM33.1 124C32.8 124 32.5 123.9 32.2 123.6 32 123.4 31.9 123.1 31.9 122.8L31.9 112.7C31.9 112.4 32 112.1 32.2 111.9 32.4 111.6 32.7 111.5 33 111.5 33.4 111.5 33.6 111.6 33.9 111.9 34.1 112.1 34.2 112.4 34.2 112.7L34.2 113.9C34.2 113.9 34.2 113.9 34.3 113.9 34.3 113.9 34.3 113.9 34.3 113.9 35.6 112.4 37.1 111.6 39 111.3 39.3 111.3 39.5 111.4 39.7 111.6 39.9 111.8 40 112 40 112.3 40 112.6 39.9 112.8 39.7 113 39.5 113.2 39.3 113.3 39 113.3 37.5 113.5 36.4 114.1 35.6 115 34.7 115.9 34.3 117.1 34.3 118.5L34.3 122.8C34.3 123.1 34.2 123.4 34 123.6 33.7 123.9 33.4 124 33.1 124ZM47.7 113.2C46.6 113.2 45.7 113.6 45.1 114.4 44.4 115.2 44.1 116.3 44.1 117.8 44.1 119.2 44.4 120.3 45.1 121.1 45.7 121.9 46.6 122.3 47.7 122.3 48.8 122.3 49.6 121.9 50.3 121.1 50.9 120.3 51.2 119.2 51.2 117.8 51.2 116.3 50.9 115.2 50.3 114.4 49.6 113.6 48.8 113.2 47.7 113.2ZM47.7 124.2C45.9 124.2 44.4 123.7 43.3 122.5 42.2 121.3 41.7 119.7 41.7 117.8 41.7 115.8 42.2 114.2 43.3 113 44.4 111.9 45.9 111.3 47.7 111.3 49.5 111.3 50.9 111.9 52 113 53.1 114.2 53.7 115.8 53.7 117.8 53.7 119.7 53.1 121.3 52 122.5 50.9 123.7 49.5 124.2 47.7 124.2ZM58 122.7L55.4 112.8C55.3 112.5 55.3 112.2 55.5 111.9 55.7 111.7 56 111.5 56.3 111.5 56.7 111.5 57.1 111.6 57.4 111.9 57.7 112.1 57.9 112.5 58 112.8L59.9 121.8C59.9 121.8 60 121.8 60 121.8 60 121.8 60 121.8 60 121.8L61.9 112.9C62 112.5 62.2 112.2 62.5 111.9 62.8 111.6 63.1 111.5 63.5 111.5L64.1 111.5C64.5 111.5 64.9 111.6 65.2 111.9 65.5 112.2 65.7 112.5 65.8 112.9L67.6 121.8C67.6 121.8 67.6 121.8 67.6 121.8 67.7 121.8 67.7 121.8 67.7 121.8L69.6 112.8C69.7 112.4 69.9 112.1 70.2 111.9 70.5 111.6 70.9 111.5 71.2 111.5 71.6 111.5 71.8 111.6 72 111.9 72.2 112.2 72.3 112.4 72.2 112.8L69.5 122.7C69.4 123.1 69.2 123.4 68.9 123.6 68.6 123.9 68.2 124 67.8 124L67.3 124C66.9 124 66.6 123.9 66.2 123.6 65.9 123.4 65.7 123.1 65.6 122.7L63.8 113.9C63.8 113.9 63.8 113.9 63.8 113.9 63.7 113.9 63.7 113.9 63.7 113.9L61.9 122.7C61.8 123.1 61.6 123.4 61.3 123.6 61 123.9 60.6 124 60.2 124L59.7 124C59.3 124 59 123.9 58.7 123.6 58.3 123.4 58.1 123.1 58 122.7ZM78.7 118.7C77 118.4 75.8 118 75.1 117.4 74.4 116.7 74 115.9 74 114.8 74 113.7 74.4 112.9 75.3 112.2 76.1 111.6 77.3 111.3 78.8 111.3 80 111.3 81.2 111.5 82.2 111.9 82.5 112 82.7 112.1 82.8 112.4 82.9 112.7 83 112.9 82.9 113.2 82.8 113.5 82.7 113.6 82.5 113.7 82.2 113.8 82 113.8 81.8 113.8 80.8 113.4 79.8 113.2 78.8 113.2 77.2 113.2 76.4 113.7 76.4 114.8 76.4 115.3 76.6 115.6 77 115.9 77.3 116.2 78 116.4 78.9 116.6 80.6 116.8 81.8 117.3 82.5 117.9 83.2 118.6 83.6 119.5 83.6 120.6 83.6 121.8 83.2 122.6 82.3 123.3 81.5 123.9 80.3 124.2 78.8 124.2 77.4 124.2 76.1 124 74.9 123.5 74.6 123.4 74.4 123.2 74.3 122.9 74.2 122.6 74.2 122.4 74.2 122.1 74.3 121.8 74.5 121.7 74.7 121.6 74.9 121.5 75.1 121.5 75.4 121.6 76.4 122.1 77.6 122.3 78.8 122.3 80.4 122.3 81.2 121.8 81.2 120.6 81.2 120.1 81 119.7 80.6 119.4 80.3 119.1 79.6 118.9 78.7 118.7ZM91.6 113.2C90.6 113.2 89.8 113.5 89.2 114.1 88.6 114.7 88.3 115.5 88.2 116.6 88.2 116.8 88.3 116.8 88.4 116.8L94.7 116.8C94.9 116.8 94.9 116.8 94.9 116.6 94.9 115.5 94.5 114.7 94 114.1 93.4 113.5 92.6 113.2 91.6 113.2ZM91.9 124.2C90.1 124.2 88.6 123.7 87.5 122.5 86.3 121.3 85.7 119.7 85.7 117.8 85.7 115.7 86.3 114.2 87.3 113 88.4 111.9 89.8 111.3 91.6 111.3 93.4 111.3 94.7 111.8 95.7 112.8 96.7 113.9 97.2 115.4 97.3 117.4 97.3 117.7 97.1 118.1 96.9 118.3 96.6 118.6 96.2 118.7 95.8 118.7L88.4 118.7C88.3 118.7 88.2 118.8 88.2 118.9 88.3 120 88.7 120.8 89.4 121.4 90.1 122.1 91 122.4 92.1 122.4 93.1 122.4 94 122.2 94.8 121.9 95.1 121.8 95.3 121.8 95.5 121.9 95.8 122 95.9 122.1 96 122.4 96.1 122.6 96.1 122.9 96 123.1 95.9 123.4 95.7 123.6 95.4 123.7 94.4 124 93.2 124.2 91.9 124.2ZM101.2 124C100.9 124 100.6 123.9 100.4 123.6 100.1 123.4 100 123.1 100 122.8L100 112.7C100 112.4 100.1 112.1 100.3 111.9 100.6 111.6 100.9 111.5 101.2 111.5 101.5 111.5 101.8 111.6 102 111.9 102.2 112.1 102.3 112.4 102.4 112.7L102.4 113.9C102.4 113.9 102.4 113.9 102.4 113.9 102.4 113.9 102.4 113.9 102.4 113.9 103.7 112.4 105.3 111.6 107.2 111.3 107.4 111.3 107.7 111.4 107.9 111.6 108.1 111.8 108.2 112 108.2 112.3 108.2 112.6 108.1 112.8 107.9 113 107.7 113.2 107.4 113.3 107.2 113.3 105.7 113.5 104.5 114.1 103.7 115 102.9 115.9 102.4 117.1 102.4 118.5L102.4 122.8C102.4 123.1 102.3 123.4 102.1 123.6 101.8 123.9 101.6 124 101.2 124ZM110.3 124C110 124 109.7 123.9 109.4 123.6 109.1 123.3 109 123 109 122.6L109 121.8C109 121.4 109.1 121.1 109.4 120.8 109.7 120.5 110 120.4 110.3 120.4L110.7 120.4C111.1 120.4 111.4 120.5 111.7 120.8 112 121.1 112.1 121.4 112.1 121.8L112.1 122.6C112.1 123 112 123.3 111.7 123.6 111.4 123.9 111.1 124 110.7 124L110.3 124Z" class="a"/><g transform="translate(21 7)"><path d="M44 99C59.5 99 88 76.8 88 49.5 88 0 88 0 44 0 0 0 0 0 0 49.5 0 76.8 28.5 99 44 99Z" class="b"/><path d="M23 72C30 73.8 37 74.7 44 74.7 51 74.7 58 73.8 65 72L44 80 23 72Z" style="fill:#1F2673;stroke-linejoin:round;stroke-width:2;stroke:#1F2673"/><circle cx="67.5" cy="62.5" r="2.5" class="a"/><path d="M61 53C63.1 53.5 65.3 53.7 67.5 53.7 69.7 53.7 71.9 53.5 74 53 74.8 52.8 75.4 53.8 74.7 54.4 72.7 56.1 70.2 57 67.5 57 64.8 57 62.3 56.1 60.3 54.4 59.6 53.8 60.2 52.8 61 53Z" class="b"/><circle cx="22.5" cy="62.5" r="2.5" class="a"/><path d="M16 53C18.1 53.5 20.3 53.7 22.5 53.7 24.7 53.7 26.9 53.5 29 53 29.8 52.8 30.4 53.8 29.7 54.4 27.7 56.1 25.2 57 22.5 57 19.8 57 17.3 56.1 15.3 54.4 14.6 53.8 15.2 52.8 16 53Z" class="b"/><path d="M49.9 57.7C47.9 52.3 46 42.1 44 27L44 66C48.6 62.4 50.5 59.6 49.9 57.7Z" class="c"/><path d="M58.1 41.7C57.9 41.8 57.7 41.8 57.5 41.7 57.3 41.6 57.1 41.4 57 41.2 57 41 57 40.8 57.1 40.6 57.2 40.4 57.4 40.3 57.6 40.2 60.9 39.3 63.9 38.1 66.7 36.4 66.8 36.3 66.8 36.3 66.7 36.2 65.9 35.2 65 34.2 63.9 33.2 63.7 33 63.7 32.8 63.7 32.6 63.7 32.3 63.8 32.1 64 32 64.4 31.6 64.8 31.6 65.3 32 66.2 33 67.2 34 68.2 35.1 68.3 35.2 68.4 35.3 68.5 35.2 71 33.4 72.6 31.6 73.5 29.7 73.6 29.7 73.6 29.6 73.5 29.6 73.5 29.5 73.5 29.5 73.4 29.5L65 29.5C64.9 29.5 64.7 29.6 64.6 29.7 63.2 31.1 61.3 32.5 59.1 33.8 58.9 33.9 58.7 33.9 58.5 33.8 58.3 33.8 58.1 33.6 58 33.4 57.9 33.2 57.8 33 57.9 32.8 58 32.6 58.1 32.4 58.3 32.3 61.3 30.5 63.6 28.5 65.3 26.4 65.4 26.2 65.6 26.1 65.8 26 66.1 26 66.3 26 66.5 26.1 66.7 26.2 66.8 26.4 66.9 26.6 67 26.8 66.9 27 66.8 27.2 66.7 27.4 66.5 27.6 66.4 27.7 66.3 27.8 66.3 27.9 66.5 27.9L74.8 27.9C75 27.9 75.2 28 75.3 28.1 75.5 28.3 75.6 28.5 75.6 28.7 75.6 29.3 75.5 29.9 75.2 30.3 73.9 33 71.4 35.5 67.8 37.7 67.7 37.7 67.7 37.7 67.8 37.8 67.8 37.8 67.8 37.8 67.8 37.8L76.6 37.8C77 37.8 77.3 38 77.6 38.2 77.9 38.5 78 38.8 78 39.2L78 47C78 47.3 77.9 47.5 77.7 47.7 77.5 47.9 77.3 48 77 48 76.8 48 76.6 47.9 76.4 47.7 76.2 47.5 76.1 47.3 76.1 47L76.1 46.8C76.1 46.7 76 46.7 75.9 46.7L65.7 46.7C65.6 46.7 65.5 46.7 65.5 46.8L65.5 47C65.5 47.3 65.4 47.5 65.2 47.7 65 47.9 64.8 48 64.6 48 64.3 48 64.1 47.9 63.9 47.7 63.7 47.5 63.6 47.3 63.6 47L63.6 40.1C63.6 39.9 63.6 39.9 63.4 39.9 61.7 40.7 59.9 41.3 58.1 41.7ZM76.1 39.6C76.1 39.5 76 39.4 75.9 39.4L65.7 39.4C65.6 39.4 65.5 39.5 65.5 39.6L65.5 44.9C65.5 45.1 65.6 45.1 65.7 45.1L75.9 45.1C76 45.1 76.1 45.1 76.1 44.9L76.1 39.6Z" class="a"/><path d="M32.7 38.2C33 38.2 33.4 38.4 33.6 38.6 33.9 38.9 34 39.2 34 39.6 33.9 42 33.7 43.8 33.5 44.9 33.2 46.1 32.9 46.9 32.5 47.2 32.2 47.6 31.6 47.8 30.9 47.8 30.2 47.8 29.3 47.7 28.2 47.6 28 47.6 27.8 47.5 27.7 47.3 27.5 47.2 27.4 47 27.4 46.8 27.4 46.5 27.5 46.4 27.7 46.2 27.8 46.1 28 46 28.2 46 29.2 46.1 30 46.2 30.4 46.2 30.8 46.2 31 46 31.2 45.8 31.4 45.6 31.6 45 31.8 44.1 32 43.1 32.1 41.8 32.2 40 32.2 39.8 32.1 39.8 32 39.8L20 39.8C19.8 39.8 19.7 39.8 19.6 39.9 18.8 41 17.9 41.9 16.8 42.9 16.6 43.1 16.4 43.1 16.2 43.1 16 43.1 15.8 43 15.7 42.9 15.6 42.8 15.6 42.8 15.6 42.8 15.5 42.9 15.5 42.9 15.5 42.9L15.5 47.1C15.5 47.3 15.4 47.5 15.3 47.7 15.1 47.9 14.9 48 14.6 48 14.4 48 14.1 47.9 14 47.7 13.8 47.5 13.7 47.3 13.7 47.1L13.7 36.4C13.7 36.4 13.7 36.4 13.7 36.4 13.6 36.4 13.6 36.4 13.6 36.4 13.2 37.1 12.7 37.9 12.2 38.6 12.1 38.8 11.9 38.9 11.7 38.9 11.4 38.9 11.2 38.7 11.2 38.5 10.9 37.9 11 37.3 11.4 36.7 13.2 34 14.5 30.9 15.3 27.4 15.4 27.2 15.5 27 15.7 26.8 15.9 26.7 16.1 26.7 16.4 26.7 16.6 26.8 16.8 26.9 17 27.1 17.1 27.3 17.1 27.5 17.1 27.7 16.7 29.4 16.2 31.1 15.6 32.6 15.6 32.7 15.5 32.9 15.5 33L15.5 41.5C15.5 41.5 15.5 41.6 15.6 41.6 15.6 41.6 15.6 41.6 15.7 41.6 15.7 41.6 15.7 41.5 15.7 41.5L15.7 41.5C18.8 38.6 21.1 35.2 22.6 31.3 22.6 31.2 22.6 31.1 22.5 31.1L17.9 31.1C17.7 31.1 17.5 31 17.3 30.9 17.2 30.7 17.1 30.5 17.1 30.3 17.1 30.1 17.2 29.9 17.3 29.8 17.5 29.6 17.7 29.5 17.9 29.5L19.6 29.5C19.8 29.5 19.8 29.5 19.7 29.3 19.4 28.5 19.1 28 18.9 27.6 18.8 27.4 18.8 27.2 18.9 27 19 26.7 19.1 26.6 19.3 26.5 19.6 26.5 19.8 26.5 20 26.6 20.3 26.7 20.5 26.8 20.6 27 20.9 27.6 21.2 28.4 21.6 29.3 21.7 29.5 21.8 29.5 21.9 29.5L23 29.5C23.2 29.5 23.3 29.5 23.3 29.3 23.5 28.4 23.8 27.5 23.9 26.8 24 26.5 24.1 26.3 24.3 26.2 24.5 26 24.7 26 24.9 26 25.2 26 25.4 26.1 25.5 26.3 25.7 26.5 25.7 26.7 25.7 27 25.6 27.7 25.4 28.5 25.1 29.3 25.1 29.5 25.2 29.5 25.3 29.5L30.5 29.5C30.8 29.5 31.1 29.7 31.3 29.9 31.6 30.2 31.7 30.5 31.6 30.9 31.5 31.7 31.3 32.6 31.1 33.7 31.1 33.8 31.2 33.9 31.3 33.9L31.6 33.9C31.9 33.9 32.2 34 32.5 34.3 32.7 34.5 32.8 34.8 32.7 35.2 32.7 35.5 32.6 35.9 32.5 36.6 32.4 37.3 32.3 37.8 32.3 38 32.2 38.2 32.3 38.2 32.4 38.2L32.7 38.2ZM23.5 33.7C23.5 33.7 23.5 33.8 23.6 33.8 23.6 33.9 23.6 33.9 23.7 33.9L29 33.9C29.1 33.9 29.2 33.8 29.3 33.7 29.3 33.5 29.4 33.1 29.5 32.5 29.6 31.9 29.6 31.5 29.7 31.3 29.7 31.2 29.6 31.1 29.5 31.1L24.8 31.1C24.6 31.1 24.6 31.2 24.5 31.3 24.2 32.3 23.9 33.1 23.5 33.7ZM30.4 38C30.6 36.8 30.7 36 30.8 35.5 30.9 35.4 30.8 35.3 30.7 35.3L22.9 35.3C22.8 35.3 22.7 35.4 22.6 35.5 22.2 36.2 21.7 37.1 21 38 21 38.1 21 38.1 21 38.2 21.1 38.2 21.1 38.2 21.1 38.2L30.2 38.2C30.3 38.2 30.4 38.1 30.4 38ZM18 47.4C17.8 47.3 17.6 47.1 17.5 46.9 17.4 46.7 17.4 46.5 17.5 46.3 17.9 45.1 18.3 43.7 18.7 41.9 18.7 41.7 18.9 41.5 19.1 41.4 19.3 41.2 19.5 41.2 19.7 41.3 19.9 41.3 20.1 41.5 20.2 41.7 20.3 41.9 20.4 42.1 20.3 42.3 20 44 19.5 45.5 19.1 46.9 19 47.1 18.9 47.2 18.7 47.3 18.5 47.4 18.2 47.4 18 47.4ZM23.2 46.8C23 46.9 22.8 46.8 22.6 46.7 22.5 46.6 22.4 46.4 22.3 46.2 22.1 44.6 22 43.3 21.8 42.1 21.7 41.9 21.8 41.7 21.9 41.5 22 41.3 22.2 41.2 22.4 41.2 22.6 41.1 22.8 41.2 23 41.3 23.2 41.4 23.3 41.6 23.4 41.8 23.6 43.3 23.8 44.6 23.9 45.9 24 46.1 23.9 46.3 23.8 46.5 23.6 46.7 23.4 46.8 23.2 46.8ZM27 45.7C26.8 45.7 26.6 45.7 26.4 45.6 26.2 45.4 26.1 45.3 26.1 45.1 25.9 43.9 25.6 42.9 25.4 41.9 25.3 41.6 25.4 41.5 25.5 41.3 25.6 41.1 25.7 41 25.9 40.9 26.1 40.9 26.3 40.9 26.5 41 26.7 41.1 26.8 41.3 26.9 41.5 27.1 42.5 27.4 43.6 27.6 44.8 27.7 45 27.6 45.2 27.5 45.4 27.4 45.6 27.2 45.7 27 45.7ZM30.6 44.2C30.3 44.3 30.2 44.2 30 44.1 29.8 44.1 29.7 43.9 29.6 43.7 29.4 42.9 29.1 42.2 28.9 41.5 28.8 41.4 28.8 41.2 28.9 41 29 40.8 29.1 40.7 29.3 40.7 29.5 40.6 29.7 40.6 29.9 40.7 30.1 40.8 30.2 41 30.3 41.2 30.6 41.8 30.8 42.6 31.1 43.3 31.1 43.5 31.1 43.7 31 43.9 30.9 44.1 30.8 44.2 30.6 44.2Z" class="a"/><polygon points="44 8 40 14.1 44 20 48 14.1" class="c"/></g></g></svg>
