<svg xmlns="http://www.w3.org/2000/svg" width="64" height="64">
  <g fill="none" fill-rule="evenodd">
    <path fill="#1F2673" d="M62 0c1.1045695 0 2 .8954305 2 2v60c0 1.1045695-.8954305 2-2 2H2c-1.1045695 0-2-.8954305-2-2V2C0 .8954305.8954305 0 2 0h60zM9.31943977 15.7479605c-1.49133663 0-2.94125789.7742373-3.74042105 2.1585842-1.19184218 2.0634822-.48471316 4.7025613 1.57915254 5.89402l15.15227154 8.748229c.6795188.3922955 1.4215441.5786647 2.1532155.5786647 1.4913367 0 2.9416414-.7742373 3.7408046-2.1582007 1.1914587-2.0638657.4843296-4.7025613-1.5795361-5.8940201l-15.1522715-8.7478454c-.6795188-.3926791-1.4211606-.5790482-2.15321553-.5794317zm35.67707463 4.9272397l-7.6215776 4.4003826c-2.0634822 1.1914587-2.7709947 3.8301543-1.5791525 5.89402.7991631 1.3839635 2.2494679 2.1578172 3.7408045 2.1578172.7316714 0 1.4733133-.1863691 2.152832-.5786646l12.3782091-7.1464514c-.7259194-.0843646-1.431898-.3163674-2.0700014-.6852709l-7.0011141-4.0418329zM39.5361286 7.00011504c-1.4909531 0-2.9412579.77423725-3.740421 2.1582007-1.1914587 2.06386566-.4843297 4.70256136 1.5791525 5.89402006l15.1522716 8.7482289c.6795187.3922956 1.421544.5790482 2.1535989.5790482 1.4909532 0 2.9412579-.7742372 3.7404211-2.1585842 1.1914587-2.0634822.4847132-4.7025613-1.5791525-5.89402L41.6897276 7.57916321c-.6795188-.39267902-1.4215441-.57904817-2.153599-.57904817zM24.4638117 7c-.7320549 0-1.4736967.18675262-2.1532155.57904816L9.93238717 14.7254995c.72591933.0843647 1.43228143.3163674 2.07000133.6848875l7.0011141 4.0422163 7.6215776-4.4003826c2.0638657-1.1914587 2.7709947-3.8305378 1.579536-5.89402C27.4050696 7.77423725 25.9547649 7 24.4638117 7z"/>
    <path fill="#6783E2" fill-rule="nonzero" d="M7.132 57V41.4h4.608c1.1840059 0 2.2679951.1439986 3.252.432.9840049.2880014 1.8279965.7439969 2.532 1.368.7040035.6240031 1.251998 1.4239951 1.644 2.4.392002.9760049.588 2.1519931.588 3.528 0 1.3760069-.1919981 2.559995-.576 3.552-.3840019.992005-.9239965 1.8079968-1.62 2.448-.6960035.6400032-1.5199952 1.1119985-2.472 1.416-.9520048.3040015-1.9879944.456-3.108.456H7.132zm4.128-3.312h.24c.5600028 0 1.0879975-.0679993 1.584-.204.4960025-.1360007.9239982-.3719983 1.284-.708.3600018-.3360017.643999-.799997.852-1.392s.312-1.3439954.312-2.256c0-.9120046-.103999-1.6559971-.312-2.232-.208001-.5760029-.4919982-1.0239984-.852-1.344-.3600018-.3200016-.7879975-.5399994-1.284-.66-.4960025-.1200006-1.0239972-.18-1.584-.18h-.24v8.976zM22.54 57V41.4h10.176v3.456h-6.048v2.976h5.184v3.456h-5.184V57H22.54zm12.72 0v-3.312h3.264v-7.872h-2.88v-2.544c.8640043-.1760009 1.599997-.3759989 2.208-.6.608003-.2240011 1.1999971-.5199982 1.776-.888h3.024v11.904h2.736V57H35.26zm17.568-8.496c.3680018 0 .7239983-.099999 1.068-.3.3440017-.200001.6359988-.5319977.876-.996-.0800004-.5280026-.1959992-.9639983-.348-1.308-.1520008-.3440017-.3159991-.615999-.492-.816-.1760009-.200001-.363999-.3359996-.564-.408-.200001-.0720004-.395999-.108-.588-.108-.4320022 0-.8119984.1519985-1.14.456-.3280016.3040015-.492.855996-.492 1.656 0 .3680018.0479995.6679988.144.9.0960005.2320012.2199992.4159993.372.552.1520008.1360007.327999.2319997.528.288.200001.0560003.4119989.084.636.084zm-.48 8.784c-1.0880054 0-2.0239961-.1919981-2.808-.576-.7840039-.3840019-1.4319974-.8319974-1.944-1.344l2.16-2.448c.2400012.2720014.5759978.5159989 1.008.732.4320022.2160011.8639978.324 1.296.324.3840019 0 .7359984-.0679993 1.056-.204.3200016-.1360007.6039988-.3679984.852-.696.2480012-.3280016.4519992-.7519974.612-1.272s.2559998-1.1639962.288-1.932c-.192001.2400012-.4079988.455999-.648.648-.2400012.192001-.4919987.3519994-.756.48-.2640013.1280006-.5199988.2239997-.768.288-.2480012.0640003-.475999.096-.684.096-.6560033 0-1.2639972-.0919991-1.824-.276-.5600028-.1840009-1.043998-.4679981-1.452-.852s-.7319988-.871997-.972-1.464c-.2400012-.592003-.36-1.296-.36-2.112 0-.8160041.1399986-1.5439968.42-2.184.2800014-.6400032.6599976-1.1839978 1.14-1.632.4800024-.4480022 1.0399968-.7879988 1.68-1.02.6400032-.2320012 1.3199964-.348 2.04-.348.7360037 0 1.4599964.1399986 2.172.42.7120036.2800014 1.3479972.723997 1.908 1.332.5600028.608003 1.0119983 1.3959952 1.356 2.364.3440017.9680048.516 2.1399931.516 3.516 0 1.3760069-.1759982 2.5759949-.528 3.6-.3520018 1.0240051-.8159971 1.8719966-1.392 2.544-.5760029.6720034-1.2439962 1.1759983-2.004 1.512-.7600038.3360017-1.5479959.504-2.364.504z"/>
  </g>
</svg>