<svg xmlns="http://www.w3.org/2000/svg" width="64" height="64">
  <path fill="#1F2673" fill-rule="evenodd" d="M62 0c1.10457 0 2 .89543 2 2v60c0 1.10457-.89543 2-2 2H2c-1.10457 0-2-.89543-2-2V2C0 .89543.89543 0 2 0h60zm-9.316 41.496c-.720004 0-1.399997.115999-2.04.348-.640003.232001-1.199998.571998-1.68 1.02-.480002.448002-.859999.991997-1.14 1.632-.280001.640003-.42 1.367996-.42 2.184 0 .816.119999 1.519997.36 2.112.240001.592003.563998 1.079998.972 1.464.408002.384002.891997.668 1.452.852.560003.184 1.167997.276 1.824.276.208001 0 .435999-.032.684-.096.248001-.064.503999-.16.768-.288.264001-.128.515999-.287999.756-.48.240001-.192001.455999-.407999.648-.648-.032.768004-.128 1.411997-.288 1.932-.16.520003-.363999.943998-.612 1.272-.248001.328002-.531998.56-.852.696-.320002.136-.671998.204-1.056.204-.432002 0-.863998-.107999-1.296-.324s-.767999-.459999-1.008-.732l-2.16 2.448c.512003.512003 1.159996.959998 1.944 1.344.784004.384002 1.719995.576 2.808.576.816004 0 1.603996-.167998 2.364-.504.760004-.336002 1.427997-.839997 2.004-1.512s1.039998-1.519995 1.392-2.544c.352002-1.024005.528-2.223993.528-3.6s-.171998-2.547995-.516-3.516c-.344002-.968005-.795997-1.755997-1.356-2.364-.560003-.608003-1.195996-1.051999-1.908-1.332-.712004-.280001-1.435996-.42-2.172-.42zM11.74 41.4H7.132V57h4.848c1.120006 0 2.155995-.151998 3.108-.456.952005-.304001 1.775996-.775997 2.472-1.416.696003-.640003 1.235998-1.455995 1.62-2.448.384002-.992005.576-2.175993.576-3.552s-.195998-2.551995-.588-3.528c-.392002-.976005-.939996-1.775997-1.644-2.4-.704004-.624003-1.547995-1.079999-2.532-1.368-.984005-.288001-2.067994-.432-3.252-.432zm20.976 0H22.54V57h4.128v-5.712h5.184v-3.456h-5.184v-2.976h6.048V41.4zm9.936.384h-3.024c-.576003.368002-1.167997.663999-1.776.888-.608003.224001-1.343996.424-2.208.6v2.544h2.88v7.872H35.26V57h10.128v-3.312h-2.736V41.784zM11.5 44.712c.560003 0 1.087998.06 1.584.18.496003.12.923998.339998 1.284.66.360002.320002.643999.767997.852 1.344s.312 1.319995.312 2.232c0 .912005-.103999 1.663997-.312 2.256-.208001.592003-.491998 1.055998-.852 1.392-.360002.336002-.787997.572-1.284.708-.496002.136-1.023997.204-1.584.204h-.24v-8.976zm41.28-.144c.192001 0 .387999.036.588.108.200001.072.388.207999.564.408.176.200001.34.471998.492.816.152.344002.268.779997.348 1.308-.240001.464002-.531998.795999-.876.996-.344002.200001-.699998.3-1.068.3-.224001 0-.435999-.028-.636-.084-.200001-.056-.376-.152-.528-.288-.152-.136-.276-.319999-.372-.552-.096-.232001-.144-.531998-.144-.9 0-.800004.163998-1.351999.492-1.656.328002-.304001.707998-.456 1.14-.456zM9.31944 15.74796c-1.491337 0-2.941258.774238-3.740421 2.158585-1.191842 2.063482-.484713 4.702561 1.579152 5.89402l15.152272 8.748229c.679519.392295 1.421544.578664 2.153215.578664 1.491337 0 2.941642-.774237 3.740805-2.1582 1.191459-2.063866.48433-4.702562-1.579536-5.89402l-15.152272-8.747846c-.679519-.392679-1.42116-.579048-2.153215-.579432zm35.677074 4.92724l-7.621577 4.400383c-2.063482 1.191458-2.770995 3.830154-1.579153 5.89402.799163 1.383963 2.249468 2.157817 3.740805 2.157817.731671 0 1.473313-.18637 2.152832-.578665l12.378209-7.146451c-.72592-.084365-1.431898-.316367-2.070002-.68527L44.996514 20.6752zM39.53613 7.000115c-1.490954 0-2.941258.774237-3.740421 2.1582-1.19146 2.063866-.48433 4.702562 1.579152 5.89402l15.152272 8.74823c.679518.392295 1.421544.579048 2.153599.579048 1.490953 0 2.941257-.774237 3.74042-2.158584 1.19146-2.063483.484714-4.702562-1.579152-5.89402L41.689728 7.579163c-.67952-.392679-1.421545-.579048-2.1536-.579048zM24.463812 7c-.732055 0-1.473697.186753-2.153216.579048L9.932387 14.7255c.72592.084365 1.432282.316368 2.070002.684888l7.001114 4.042216 7.621577-4.400382c2.063866-1.191459 2.770995-3.830538 1.579536-5.89402C27.40507 7.774237 25.954765 7 24.463812 7z"/>
</svg>