
<svg width="250px" height="350px" viewBox="0 0 250 350" version="1.1" xmlns="http://www.w3.org/2000/svg" xmlns:xlink="http://www.w3.org/1999/xlink">
    <!-- Generator: Sketch 50 (54983) - http://www.bohemiancoding.com/sketch -->
    <desc>Created with Sketch.</desc>
    <defs></defs>
    <g id="Symbols" stroke="none" stroke-width="1" fill="none" fill-rule="evenodd">
        <g id="Fortune" fill="#FFBAC6">
            <path d="M5,0 L245,0 C247.761424,-5.07265313e-16 250,2.23857625 250,5 L250,345 C250,347.761424 247.761424,350 245,350 L5,350 C2.23857625,350 3.38176876e-16,347.761424 0,345 L0,5 C-3.38176876e-16,2.23857625 2.23857625,5.07265313e-16 5,0 Z M10,10 L10,340 L240,340 L240,10 L10,10 Z M30.5,38 C26.3578644,38 23,34.6421356 23,30.5 C23,26.3578644 26.3578644,23 30.5,23 C34.6421356,23 38,26.3578644 38,30.5 C38,34.6421356 34.6421356,38 30.5,38 Z M219.5,327 C215.357864,327 212,323.642136 212,319.5 C212,315.357864 215.357864,312 219.5,312 C223.642136,312 227,315.357864 227,319.5 C227,323.642136 223.642136,327 219.5,327 Z M219.5,38 C215.357864,38 212,34.6421356 212,30.5 C212,26.3578644 215.357864,23 219.5,23 C223.642136,23 227,26.3578644 227,30.5 C227,34.6421356 223.642136,38 219.5,38 Z M30.5,330 C26.3578644,330 23,326.642136 23,322.5 C23,318.357864 26.3578644,315 30.5,315 C34.6421356,315 38,318.357864 38,322.5 C38,326.642136 34.6421356,330 30.5,330 Z M125.5,148 C90.9822031,148 63,120.017797 63,85.5 C63,50.9822031 90.9822031,23 125.5,23 C160.017797,23 188,50.9822031 188,85.5 C188,120.017797 160.017797,148 125.5,148 Z M85.259,162.712 L79.123,162.712 L79.123,165.988 L84.713,165.988 L84.713,170.304 L79.123,170.304 L79.123,178 L74.027,178 L74.027,158.396 L85.259,158.396 L85.259,162.712 Z M92.097,171.266 C92.097,171.716669 92.1793325,172.128331 92.344,172.501 C92.5086675,172.873669 92.725332,173.198665 92.994,173.476 C93.262668,173.753335 93.5833315,173.969999 93.956,174.126 C94.3286685,174.282001 94.7229979,174.36 95.139,174.36 C95.5550021,174.36 95.9493315,174.282001 96.322,174.126 C96.6946685,173.969999 97.015332,173.753335 97.284,173.476 C97.552668,173.198665 97.7693325,172.873669 97.934,172.501 C98.0986675,172.128331 98.181,171.725335 98.181,171.292 C98.181,170.875998 98.0986675,170.481669 97.934,170.109 C97.7693325,169.736331 97.552668,169.411335 97.284,169.134 C97.015332,168.856665 96.6946685,168.640001 96.322,168.484 C95.9493315,168.327999 95.5550021,168.25 95.139,168.25 C94.7229979,168.25 94.3286685,168.327999 93.956,168.484 C93.5833315,168.640001 93.262668,168.856665 92.994,169.134 C92.725332,169.411335 92.5086675,169.731998 92.344,170.096 C92.1793325,170.460002 92.097,170.849998 92.097,171.266 Z M87.131,171.214 C87.131,170.225995 87.3303313,169.303004 87.729,168.445 C88.1276687,167.586996 88.6823298,166.84167 89.393,166.209 C90.1036702,165.57633 90.9486618,165.078002 91.928,164.714 C92.9073382,164.349998 93.9776609,164.168 95.139,164.168 C96.2830057,164.168 97.3446618,164.345665 98.324,164.701 C99.3033382,165.056335 100.152663,165.55033 100.872,166.183 C101.591337,166.81567 102.150331,167.569662 102.549,168.445 C102.947669,169.320338 103.147,170.286661 103.147,171.344 C103.147,172.401339 102.943335,173.367662 102.536,174.243 C102.128665,175.118338 101.56967,175.87233 100.859,176.505 C100.14833,177.13767 99.2946716,177.627332 98.298,177.974 C97.3013283,178.320668 96.2223391,178.494 95.061,178.494 C93.9169943,178.494 92.8596715,178.320668 91.889,177.974 C90.9183285,177.627332 90.0820035,177.133337 89.38,176.492 C88.6779965,175.850663 88.1276687,175.083671 87.729,174.191 C87.3303313,173.298329 87.131,172.306005 87.131,171.214 Z M105.851,164.662 L110.557,164.662 L110.557,166.846 C111.059669,166.048663 111.674996,165.437669 112.403,165.013 C113.131004,164.588331 113.980328,164.376 114.951,164.376 L115.354,164.376 C115.501334,164.376 115.670332,164.393333 115.861,164.428 L115.861,168.926 C115.236997,168.613998 114.561004,168.458 113.833,168.458 C112.740995,168.458 111.922003,168.782997 111.376,169.433 C110.829997,170.083003 110.557,171.031994 110.557,172.28 L110.557,178 L105.851,178 L105.851,164.662 Z M123.713,168.588 L123.713,178 L119.007,178 L119.007,168.588 L117.447,168.588 L117.447,164.662 L119.007,164.662 L119.007,160.658 L123.713,160.658 L123.713,164.662 L126.391,164.662 L126.391,168.588 L123.713,168.588 Z M132.865,164.662 L132.865,172.176 C132.865,173.822675 133.662325,174.646 135.257,174.646 C136.851675,174.646 137.649,173.822675 137.649,172.176 L137.649,164.662 L142.355,164.662 L142.355,173.086 C142.355,174.888676 141.761339,176.240662 140.574,177.142 C139.386661,178.043338 137.614345,178.494 135.257,178.494 C132.899655,178.494 131.127339,178.043338 129.94,177.142 C128.752661,176.240662 128.159,174.888676 128.159,173.086 L128.159,164.662 L132.865,164.662 Z M145.553,164.662 L150.259,164.662 L150.259,166.352 C150.900337,165.571996 151.55033,165.047668 152.209,164.779 C152.86767,164.510332 153.638996,164.376 154.523,164.376 C155.459005,164.376 156.260663,164.527665 156.928,164.831 C157.595337,165.134335 158.162998,165.563331 158.631,166.118 C159.012335,166.568669 159.272333,167.071331 159.411,167.626 C159.549667,168.180669 159.619,168.81333 159.619,169.524 L159.619,178 L154.913,178 L154.913,171.266 C154.913,170.60733 154.865334,170.074335 154.77,169.667 C154.674666,169.259665 154.505668,168.934668 154.263,168.692 C154.054999,168.483999 153.821001,168.336667 153.561,168.25 C153.300999,168.163333 153.023668,168.12 152.729,168.12 C151.931663,168.12 151.320669,168.358331 150.896,168.835 C150.471331,169.311669 150.259,169.991996 150.259,170.876 L150.259,178 L145.553,178 L145.553,164.662 Z M172.567,169.394 C172.410999,168.73533 172.090336,168.206669 171.605,167.808 C171.119664,167.409331 170.530337,167.21 169.837,167.21 C169.108996,167.21 168.515336,167.400665 168.056,167.782 C167.596664,168.163335 167.306334,168.700663 167.185,169.394 L172.567,169.394 Z M13,13 L237,13 L237,337 L13,337 L13,13 Z M167.055,172.124 L176.961,172.124 L176.961,171.63 C176.961,170.468661 176.796335,169.424338 176.467,168.497 C176.137665,167.569662 175.661003,166.785337 175.037,166.144 C174.412997,165.502663 173.650338,165.013002 172.749,164.675 C171.847662,164.336998 170.833672,164.168 169.707,164.168 C168.562994,164.168 167.536005,164.336998 166.626,164.675 C165.715995,165.013002 164.940337,165.493997 164.299,166.118 C163.657663,166.742003 163.163668,167.500329 162.817,168.393 C162.470332,169.285671 162.297,170.286661 162.297,171.396 C162.297,172.470672 162.478998,173.441329 162.843,174.308 C163.207002,175.174671 163.722663,175.919997 164.39,176.544 C165.057337,177.168003 165.858995,177.648998 166.795,177.987 C167.731005,178.325002 168.762328,178.494 169.889,178.494 C173.563685,178.494 175.860329,176.968682 176.779,173.918 L172.229,173.918 C171.708997,174.750004 170.937672,175.166 169.915,175.166 C168.008324,175.166 167.055,174.15201 167.055,172.124 Z M23,188 L23,191 L227,191 L227,188 L23,188 Z" id="Combined-Shape"></path>
        </g>
    </g>
</svg>