<svg xmlns="http://www.w3.org/2000/svg" width="68" height="66">
  <g fill="none" fill-rule="evenodd">
    <path fill="#F98B9E" stroke="#FFF" stroke-width="2" d="M42 59c1.656854 0 3 1.343146 3 3s-1.343146 3-3 3-3-1.343146-3-3 1.343146-3 3-3zm9-2c1.656854 0 3 1.343146 3 3s-1.343146 3-3 3-3-1.343146-3-3 1.343146-3 3-3zm-8-5c1.656854 0 3 1.343146 3 3s-1.343146 3-3 3-3-1.343146-3-3 1.343146-3 3-3zM4 34c1.656854 0 3 1.343146 3 3s-1.343146 3-3 3-3-1.343146-3-3 1.343146-3 3-3zm55-2c1.656854 0 3 1.343146 3 3s-1.343146 3-3 3-3-1.343146-3-3 1.343146-3 3-3zM8 30c1.656854 0 3 1.343146 3 3s-1.343146 3-3 3-3-1.343146-3-3 1.343146-3 3-3zm-4-7c1.656854 0 3 1.343146 3 3s-1.343146 3-3 3-3-1.343146-3-3 1.343146-3 3-3zm49-3c1.656854 0 3 1.343146 3 3s-1.343146 3-3 3-3-1.343146-3-3 1.343146-3 3-3zm-6-4c1.656854 0 3 1.343146 3 3s-1.343146 3-3 3-3-1.343146-3-3 1.343146-3 3-3zm12-3c1.656854 0 3 1.343146 3 3s-1.343146 3-3 3-3-1.343146-3-3 1.343146-3 3-3zm-8-9c1.656854 0 3 1.343146 3 3s-1.343146 3-3 3-3-1.343146-3-3 1.343146-3 3-3zm10-1c1.656854 0 3 1.343146 3 3s-1.343146 3-3 3-3-1.343146-3-3 1.343146-3 3-3z"/>
    <path fill="#F98B9E" stroke="#FFF" stroke-linejoin="round" stroke-width="2" d="M57.790873 50.51653c.03144.01075.065074.021651.10085.032622.393246.12059.908945.217823 1.850325.360173.115335.01744.543662.081462.635386.09529.256613.038687.461601.070456.660498.102703 3.301042.535195 4.949535 1.277032 5.07285 3.256345.108401 1.739913-.853045 2.85674-3.090567 4.48363-.06151.044723-.612965.442649-.767077.555703-.27318.200402-.484035.361797-.668179.51326-.466117.383392-.70445.648915-.792317.84561a3.828223 3.828223 0 0 0 .021355.00343c.40343.063634 1.014922.097302 1.82119.096864 2.029934-.356917 3.128051-.251215 3.308581 1.039245.212515 1.51909-.564201 2.6805-2.795162 2.992603-3.114249.43567-5.981334-.648248-6.515657-3.47876-.129604-.686562.043392-1.367415.447222-2.03539.511886-.84671 1.325702-1.62042 2.65763-2.662705.247945-.194026 1.05435-.811934 1.118326-.861462.397386-.307636.668759-.528079.883632-.721348.042025-.037799.081083-.073922.117134-.108227-.385676-.139095-1.095252-.32222-2.164867-.529387-.113576-.021998-.249107-.04804-.503873-.096977-.207297-.03991-.363774-.070388-.51747-.100957-3.156752-.627852-4.647166-1.275105-5.035536-2.953665a2.59065 2.59065 0 0 1-.050318-.293023c-.18504-1.636337.970985-2.968786 3.24833-4.61273.219614-.158532.680121-.477393 1.090045-.760196a7.042662 7.042662 0 0 1-.05217.001008c-.434246.00685-.73111-.032057-1.035484-.225683-.463809-.29505-.896182-.924235-1.084243-1.544232-.284081-.936556-.018037-1.872907.96076-2.268367.754043-.304653 2.35264-.315379 3.632997-.008582 1.855235.444548 3.08267 1.508935 2.9456 3.225665-.11396 1.427267-1.088036 2.415432-3.248313 3.93518-.024305.017098-.868945.605681-1.093149.766397-.372793.267229-.647571.479072-.863902.669386-.120906.106365-.219044.202464-.294427.286577zM38.74966 18.29344c-.104978.103615-.242897.209369-.417613.317509l-.582304.360415.070093.132039c.40323-.214056.723115-.47868.929824-.809962zm-4.016646-6.626257c.339497.297921 1.087976.817366 2.568807 1.783076 2.81228 1.834 3.959057 2.975983 3.685943 4.705704-.078356.496253-.288164.9337-.609084 1.31824 1.105593 1.006975 2.224832 2.12195 3.356124 3.347517 2.155181 2.33478 3.991689 4.487863 5.524458 6.466353.875177-.30183 1.716073-.558151 2.492906-.756876 4.00517-1.024578 9.384344-1.523699 11.94395-1.011778 1.598445.31969 2.614631 1.422977 2.48642 2.705085-.133886 1.338866-1.441696 2.116483-2.925073 1.745639-1.93793-.484483-6.989308-.275782-10.009089.49852-.446116.11439-.912959.257243-1.400939.427472 3.659876 5.60612 4.292644 9.449933 2.427384 11.736047-.4796.587812-1.571264 1.133644-3.43444 1.808106l-.187157.06775-29.346708-1.339951-.062693-.887928c-1.143505-16.1957-1.555822-25.233555-1.233163-27.425774.09581-.650958.929414-2.63619 1.213687-2.985544.86181-1.05911 3.04102-1.722987 5.58564-1.515779 1.364132.111082 2.80977.452494 4.325033 1.040759-.721755-.840036-.925307-1.685236-.583702-2.710049.53892-1.616758 1.848513-2.316047 4.388693-2.960057.186403-.04726.380322-.095048.747266-.185112 1.31685-.325092 1.95051-.564864 2.19151-.795072a3.841189 3.841189 0 0 0-.018282-.011038c-.350215-.210129-.904569-.470414-1.652291-.772041-2.015826-.429499-2.994386-.938866-2.678356-2.202988.372022-1.488085 1.527253-2.273963 3.712679-1.727607 3.050686.762672 5.302958 2.841692 4.738045 5.66626-.31107 1.555348-1.7252 2.338308-4.436886 3.134278-.324578.095275-1.746575.488284-2.078091.588561-.30208.091374-.544683.173572-.73259.248227zm5.645666 7.80702c-.26133.313138-.59634.591194-.994047.837353l-.526293-.850303.654413-.756137c.287687.248984.576339.50533.865927.769088zM11.40382 5.021732c-.26246.085832-.412477.455068-.666056 1.609758-.027315.124548-.027315.124548-.055514.252108-.228494 1.02822-.41801 1.60969-.792285 2.171103-.7102 1.0653-1.800104 1.462828-2.765476 1.009334-.896352-.421071-1.365954-1.471325-.99992-2.423013.036003-.093608.296827-.924794.355177-1.102268.226605-.689229.45572-1.296452.72547-1.884202C8.240992 2.397722 9.61601 1 11.557914 1c3.252356 0 5.548323 4.54069 5.994791 8.898071.481722 4.701443-.036947 8.974646-1.211288 12.825222-.456065 1.495402-1.504565 4.102169-1.33482 3.592935-.413328 1.239984-1.456391 1.921948-2.487165 1.239326-.714455-.473143-1.043588-1.4846-.958786-2.629426.036284-.489831.17809-1.039671.471261-1.944929.051968-.160468.107385-.328435.186344-.565585.098818-.296315.152777-.458202.201908-.606488.169848-.512626.300901-.920488.428352-1.338962.787398-2.58536 1.209403-4.916729 1.209403-7.470164 0-1.944366-.50052-4.028946-1.30727-5.813768-.336413-.744267-.70483-1.38118-1.040363-1.817515-.116142-.151034-.221469-.268615-.306462-.346986z"/>
    <path fill="#F98B9E" d="M7.767529 65.698933c-1.85767.74316-4.10457-.022365-5.121701-.858328C1.628698 64.004642 1 62.5 1 60.615532 1 57.871844 7.901802 42.666667 21.705407 15c-.105984 5.012543 3.223193 11.215085 9.987533 18.607623C38.45728 41.000163 45.559633 44.630955 53 44.5 24.083466 58.137181 9.005976 65.203492 7.767529 65.698933z"/>
    <path fill="#FFF" d="M8.5 63.5c-1.53615.614536-3.658911.691277-4.5 0-.841089-.691277-1.721946-1.48762-1.360973-3.49381.573982-2.670793 7.068233-16.0126 19.482752-40.02542-.087641 4.144987 2.665333 9.274012 8.258921 15.387073C35.97429 41.480902 41.84739 44.483289 48 44.375 22.690767 56.715309 9.5241 63.090309 8.5 63.5z"/>
    <path fill="#F98B9E" d="M6.613756 50.458208C7.96944 52.013118 8.807877 52.938747 10.5 54.5c1.692123 1.561253 4.000907 3.406127 6.926354 5.53462 3.080071 2.240996 1.126949 2.889196-1.719022 1.201074-.269693-.159972-.547404-.340924-.82961-.54349C12.505082 58.989142 10.783511 57.56479 9 56c-1.78351-1.56479-2.122528-2.062647-3.299863-3.359885-3.048057-3.358482-1.728682-5.212506.913619-2.181907zm4.465348-8.817439C12.999389 43.984264 14.237229 45.412232 16.5 47.5c2.262771 2.087768 5.628261 4.682707 10.09647 7.784817 2.724516 1.89153.450634 2.592157-2.028496.947855C20.474919 53.517924 17.285594 51.107032 15 49c-1.470143-1.355288-3.100228-3.076998-4.890255-5.16513-2.67847-3.124536-1.240297-4.890741.969359-2.194101zm3.305632-8.131041C16.944826 36.822024 19.316582 39.485448 21.5 41.5c2.88149 2.658634 7.551185 6.139714 14.009086 10.44324 1.705573 1.136589-.786014 1.584826-2.281266.647011C27.336346 48.895145 22.927073 45.698395 20 43c-1.916822-1.76707-4.105541-4.15705-6.56616-7.169943-2.250502-2.755616-.75991-4.533804.950896-2.32033zm3.230974-6.732768C21.254455 31.869752 25.049218 36.277432 28 39c2.871986 2.649865 8.0204 5.61676 14.445245 9.900685C44.168964 50.050017 41.455748 50.411414 40 49.5c-5.959423-3.73107-11.050526-6.780954-14-9.5-2.675088-2.466097-5.879741-6.145412-9.61396-11.037945-1.388768-1.819549.37667-3.378955 1.22967-2.185095zm1.583048-6.164051C20.897516 22.725818 25.110126 29.197846 32 35.5s14.785742 10.36227 15.5 11c.714258.63773.5 2.5-1.5 1.5s-9.106344-4.84495-16-11-7.57213-8.032386-12-14c-.89906-1.211699-.5-4.5 1.198758-2.387091z"/>
  </g>
</svg>