<svg xmlns="http://www.w3.org/2000/svg" width="63" height="64">
  <g fill="none" fill-rule="evenodd">
    <path fill="#F98B9E" d="M31 0c9.9411255 0 18 8.954305 18 20 0 10.8010344-7.7058224 19.6023007-17.3422539 19.9868952L35 45l-2.5493433.0010423C32.4835522 45.3402735 32.5 45.6732594 32.5 46c0 2.0801945-.6666667 4.0801945-2 6-1.3333333 2-2 4-2 6s.6666667 4 2 6h-1c-1.3333333-2-2-4-2-6s.6666667-4 2-6c1.3333333-1.7468612 2-3.7468612 2-6 0-.3313439-.0144175-.6644222-.0432526-.9992348L27 45l3.1482083-4.7197207c-.0475274-.1034079-.0963081-.2069666-.146342-.310676C20.5243813 39.3935514 13 30.6731165 13 20 13 8.954305 21.0588745 0 31 0zm-.892 16H25.38c-.424 0-.712.074-.864.222-.1302857.1268571-.2047347.3492245-.2233469.667102L24.288 17.056v6.672c0 .28.024.484.072.612.096.304.424.456.984.456.512 0 .824-.108.936-.324.064-.12.102-.224.114-.312.009-.066.014625-.16125.016875-.28575L26.412 23.74v-2.268h2.352c.28 0 .484-.02.612-.06.304-.104.456-.436.456-.996 0-.512-.104-.828-.312-.948-.12-.064-.226-.102-.318-.114-.069-.009-.166125-.014625-.291375-.016875L28.776 19.336h-2.364v-1.212h3.672c.192 0 .334-.006.426-.018.092-.012.198-.048.318-.108s.204-.166.252-.318c.048-.152.072-.356.072-.612s-.024-.46-.072-.612c-.048-.152-.13-.26-.246-.324-.116-.064-.22-.102-.312-.114-.069-.009-.163875-.014625-.284625-.016875L30.108 16zm7.644 0h-4.728c-.424 0-.712.074-.864.222-.1302857.1268571-.2047347.3492245-.2233469.667102L31.932 17.056v6.672c0 .28.024.484.072.612.0864.2736.36072.42408.82296.45144l.16104.00456h4.752c.28 0 .488-.024.624-.072.296-.096.444-.424.444-.984 0-.512-.108-.824-.324-.936-.12-.064-.226-.102-.318-.114-.069-.009-.163875-.014625-.284625-.016875L37.752 22.672h-3.696V21.46h2.352c.28 0 .488-.024.624-.072.304-.096.456-.424.456-.984 0-.512-.108-.824-.324-.936-.12-.064-.226-.102-.318-.114-.069-.009-.163875-.014625-.284625-.016875L36.432 19.336h-2.376v-1.212h3.684c.28 0 .488-.024.624-.072.296-.096.444-.424.444-.984 0-.512-.108-.824-.324-.936-.12-.064-.226-.102-.318-.114-.069-.009-.163875-.014625-.284625-.016875L37.752 16zm5.472 0h-2.568c-.512 0-.824.108-.936.324-.064.12-.102.226-.114.318-.009.069-.014625.163875-.016875.284625L39.588 17.056v6.66c0 .28.024.488.072.624.096.296.424.444.984.444.512 0 .824-.108.936-.324.064-.12.102-.226.114-.318.009-.069.014625-.163875.016875-.284625L41.712 23.728v-1.356h1.5c.712 0 1.4-.256 2.064-.768.328-.248.596-.582.804-1.002.208-.42.312-.89.312-1.41 0-.52-.104-.992-.312-1.416-.208-.424-.476-.76-.804-1.008-.5976-.4608-1.2114-.71424-1.8414-.76032L43.224 16zm-21.336.024c-.296 0-.5.036-.612.108-.072.048-.13.088-.174.12-.044.032-.078.088-.102.168-.024.08-.042.142-.054.186-.012.044-.024.12-.036.228-.008.072-.0151111.1306667-.0213333.176L20.88 17.068l-.204 1.236h-1.788l.228-1.356c.04-.256.06-.396.06-.42 0-.168-.058-.294-.174-.378-.116-.084-.322-.126-.618-.126s-.5.036-.612.108c-.072.048-.13.088-.174.12-.044.032-.078.088-.102.168-.024.08-.042.142-.054.186-.012.044-.024.12-.036.228-.008.072-.0151111.1306667-.0213333.176l-.0086667.058-.204 1.236h-.78c-.176 0-.308.008-.396.024-.088.016-.182.084-.282.204-.1.12-.164.262-.192.426-.028.164-.042.306-.042.426s.012.216.036.288c.049.119.20825.1859375.47775.2008125L16.116 19.876h.792l-.216 1.32h-.78c-.176 0-.308.008-.396.024-.088.016-.182.084-.282.204-.1.12-.164.262-.192.426-.028.164-.042.308-.042.432s.012.218.036.282c.056.126.216125.196875.480375.212625L15.636 22.78h.792l-.144.9c-.064.408-.096.616-.096.624 0 .296.232.444.696.444.464 0 .76-.092.888-.276.064-.104.106-.192.126-.264.015-.054.033375-.13725.055125-.24975L17.976 23.836l.024-.132c.014-.105.0525-.3539375.1155-.7468125L18.144 22.78h1.788l-.144.9c-.064.408-.096.616-.096.624 0 .296.232.444.696.444.464 0 .76-.092.888-.276.064-.104.106-.192.126-.264.015-.054.033375-.13725.055125-.24975L21.48 23.836l.024-.132c.014-.105.0525-.3539375.1155-.7468125L21.648 22.78h.6c.232 0 .412-.032.54-.096.088-.048.158-.128.21-.24.052-.112.09-.236.114-.372.024-.136.036-.274.036-.414 0-.14-.032-.246-.096-.318-.064-.072-.13-.114-.198-.126-.051-.009-.125625-.014625-.223875-.016875L22.524 21.196h-.612l.216-1.32h.6c.176 0 .308-.008.396-.024.088-.016.18-.084.276-.204.096-.12.158-.262.186-.426.028-.164.042-.316.042-.456s-.032-.246-.096-.318c-.064-.072-.13-.114-.198-.126-.051-.009-.125625-.014625-.223875-.016875L23.004 18.304h-.612l.228-1.356c.04-.256.06-.396.06-.42 0-.168-.058-.294-.174-.378-.116-.084-.322-.126-.618-.126zm-1.476 3.852l-.216 1.32h-1.788l.228-1.32h1.776zm22.8-1.752c.248 0 .488.09.72.27.232.18.348.446.348.798 0 .352-.116.616-.348.792-.232.176-.468.264-.708.264h-1.512v-2.124h1.5z"/>
    <path fill="#FFBAC6" d="M14 34c0 3.4285714 1.1428571 4 4 4-2.8571429 0-4 1.1428571-4 4 0-2.8571429-1.1428571-4-4-4 2.8571429 0 4-.5714286 4-4zm37-1c0 2.5714286.8571429 3 3 3-2.1428571 0-3 .8571429-3 3 0-2.1428571-.8571429-3-3-3 2.1428571 0 3-.4285714 3-3zM5.33333333 17.8666667c0 4.5714285 1.52380953 5.3333333 5.33333337 5.3333333-3.80952384 0-5.33333337 1.5238095-5.33333337 5.3333333C5.33333333 24.7238095 3.80952381 23.2 0 23.2c3.80952381 0 5.33333333-.7619048 5.33333333-5.3333333zM56.6 14.5333333c0 5.4857143 1.8285714 6.4 6.4 6.4-4.5714286 0-6.4 1.8285715-6.4 6.4 0-4.5714285-1.8285714-6.4-6.4-6.4 4.5714286 0 6.4-.9142857 6.4-6.4zM9 6c0 2.57142857.8571429 3 3 3-2.1428571 0-3 .85714286-3 3 0-2.14285714-.85714286-3-3-3 2.14285714 0 3-.42857143 3-3zm44-3c0 3.42857143 1.1428571 4 4 4-2.8571429 0-4 1.14285714-4 4 0-2.85714286-1.1428571-4-4-4 2.8571429 0 4-.57142857 4-4z"/>
  </g>
</svg>