<svg xmlns="http://www.w3.org/2000/svg" width="64" height="64">
  <g fill="none" fill-rule="evenodd">
    <path fill="#F98B9E" fill-rule="nonzero" d="M20.564 63.236c1.1760059 0 1.9259984-.2159978 2.25-.648.3240016-.4320022.486-1.1639948.486-2.196v-6.984h-2.304v-.792h10.368v.792H29.96V63.56h-.54c-.4320022-.600003-1.043996-.9-1.836-.9-.3360017 0-1.3379917.2159978-3.006.648-1.6680083.4320022-3.0899941.648-4.266.648-3.9120196 0-6.9419893-1.0559894-9.09-3.168C9.07398926 58.6759894 8 55.5020212 8 51.266c0-4.2360212 1.12198878-7.5059885 3.366-9.81C13.6100112 39.1519885 16.627981 38 20.42 38c1.4640073 0 2.9339926.1859981 4.41.558 1.4760074.3720019 2.3339988.558 2.574.558.2400012 0 .4199994-.0539995.54-.162.1200006-.1080005.2519993-.2939987.396-.558h.396l.288 7.812h-.648c-1.1760059-2.3280116-2.3579941-4.1579933-3.546-5.49-1.1880059-1.3320067-2.5139927-1.998-3.978-1.998-3.6720184 0-5.508 3.5879641-5.508 10.764v2.844c0 3.600018.4499955 6.3179908 1.35 8.154.9000045 1.8360092 2.1899916 2.754 3.87 2.754zm12.744-24.84h10.764c3.3360167 0 5.8379917.4499955 7.506 1.35 1.6680083.9000045 2.502 2.4179893 2.502 4.554 0 3.2880164-1.9799802 5.2559968-5.94 5.904v.072c4.800024.600003 7.2 2.6879821 7.2 6.264 0 2.6160131-.9839902 4.4459948-2.952 5.49s-4.7999815 1.566-8.496 1.566H33.308v-.684h2.34V39.08h-2.34v-.684zm9.36 12.456v12.06h1.692c1.3200066 0 2.2439974-.4559954 2.772-1.368.5280026-.9120046.792-2.2559911.792-4.032v-1.908c0-1.5840079-.3239968-2.771996-.972-3.564-.6480032-.792004-1.7999917-1.188-3.456-1.188h-.828zm0-11.772v11.088h.936c1.2480062 0 2.1179975-.3779962 2.61-1.134.4920025-.7560038.738-1.9139922.738-3.474v-1.692c0-1.7760089-.2159978-3.0179965-.648-3.726-.4320022-.7080035-1.2599939-1.062-2.484-1.062h-1.152z"/>
    <path fill="#FFBAC6" d="M15 27c0 3.4285714 1.1428571 4 4 4-2.8571429 0-4 1.1428571-4 4 0-2.8571429-1.1428571-4-4-4 2.8571429 0 4-.5714286 4-4zm37 0c0 2.5714286.8571429 3 3 3-2.1428571 0-3 .8571429-3 3 0-2.1428571-.8571429-3-3-3 2.1428571 0 3-.4285714 3-3zM33.6 12.7333333c0 6.08 5.0666667 10.1333334 10.1333333 10.1333334C38.6666667 22.8666667 33.6 27.9333333 33.6 33c0-5.0666667-5.0666667-10.1333333-10.1333333-10.1333333C28.5333333 22.8666667 33.6 18.8133333 33.6 12.7333333zM5.33333333 14.8666667c0 4.5714285 1.52380953 5.3333333 5.33333337 5.3333333-3.80952384 0-5.33333337 1.5238095-5.33333337 5.3333333C5.33333333 21.7238095 3.80952381 20.2 0 20.2c3.80952381 0 5.33333333-.7619048 5.33333333-5.3333333zM57.6 9.53333333c0 5.48571427 1.8285714 6.39999997 6.4 6.39999997-4.5714286 0-6.4 1.8285715-6.4 6.4 0-4.5714285-1.8285714-6.4-6.4-6.4 4.5714286 0 6.4-.9142857 6.4-6.39999997zm-38.4-7.4c0 6.4 3.2 8.53333337 8.5333333 8.53333337C22.4 10.6666667 19.2 13.8666667 19.2 19.2c0-5.3333333-3.2-8.5333333-8.5333333-8.5333333C16 10.6666667 19.2 8.53333333 19.2 2.13333333zM43.7333333 0c0 6.4 2.1333334 7.46666667 7.4666667 7.46666667-5.3333333 0-7.4666667 2.13333333-7.4666667 7.46666663C43.7333333 9.6 41.6 7.46666667 36.2666667 7.46666667 41.6 7.46666667 43.7333333 6.4 43.7333333 0z"/>
  </g>
</svg>