<svg xmlns="http://www.w3.org/2000/svg" width="64" height="64">
  <g fill="#F98B9E" fill-rule="evenodd">
    <path fill-rule="nonzero" d="M20.564 63.236c1.176006 0 1.925998-.215998 2.25-.648.324002-.432002.486-1.163995.486-2.196v-6.984h-2.304v-.792h10.368v.792H29.96V63.56h-.54c-.432002-.600003-1.043996-.9-1.836-.9-.336002 0-1.337992.215998-3.006.648-1.668008.432002-3.089994.648-4.266.648-3.91202 0-6.94199-1.05599-9.09-3.168S8 55.502021 8 51.266s1.121989-7.505989 3.366-9.81C13.610011 39.151988 16.627981 38 20.42 38c1.464007 0 2.933993.185998 4.41.558 1.476007.372002 2.333999.558 2.574.558.240001 0 .42-.054.54-.162.12-.108.252-.293999.396-.558h.396l.288 7.812h-.648c-1.176006-2.328012-2.357994-4.157993-3.546-5.49-1.188006-1.332007-2.513993-1.998-3.978-1.998-3.672018 0-5.508 3.587964-5.508 10.764v2.844c0 3.600018.449995 6.31799 1.35 8.154.900005 1.83601 2.189992 2.754 3.87 2.754zm12.744-24.84h10.764c3.336017 0 5.837992.449995 7.506 1.35 1.668008.900004 2.502 2.41799 2.502 4.554 0 3.288016-1.97998 5.255997-5.94 5.904v.072c4.800024.600003 7.2 2.687982 7.2 6.264 0 2.616013-.98399 4.445995-2.952 5.49-1.96801 1.044005-4.799982 1.566-8.496 1.566H33.308v-.684h2.34V39.08h-2.34v-.684zm9.36 12.456v12.06h1.692c1.320007 0 2.243997-.455995 2.772-1.368.528003-.912005.792-2.255991.792-4.032v-1.908c0-1.584008-.323997-2.771996-.972-3.564-.648003-.792004-1.799992-1.188-3.456-1.188h-.828zm0-11.772v11.088h.936c1.248006 0 2.117998-.377996 2.61-1.134.492002-.756004.738-1.913992.738-3.474v-1.692c0-1.776009-.215998-3.017997-.648-3.726-.432002-.708004-1.259994-1.062-2.484-1.062h-1.152z"/>
    <path d="M19.2 2.133333c0 6.4 3.2 8.533334 8.533333 8.533334C22.4 10.666667 19.2 13.866667 19.2 19.2c0-5.333333-3.2-8.533333-8.533333-8.533333C16 10.666667 19.2 8.533333 19.2 2.133333zM33.6 12.733333c0 6.08 5.066667 10.133334 10.133333 10.133334C38.666667 22.866667 33.6 27.933333 33.6 33c0-5.066667-5.066667-10.133333-10.133333-10.133333 5.066666 0 10.133333-4.053334 10.133333-10.133334zM43.733333 0c0 6.4 2.133334 7.466667 7.466667 7.466667-5.333333 0-7.466667 2.133333-7.466667 7.466666 0-5.333333-2.133333-7.466666-7.466666-7.466666C41.6 7.466667 43.733333 6.4 43.733333 0zM57.6 9.533333c0 5.485715 1.828571 6.4 6.4 6.4-4.571429 0-6.4 1.828572-6.4 6.4 0-4.571428-1.828571-6.4-6.4-6.4 4.571429 0 6.4-.914285 6.4-6.4zM5.333333 14.866667c0 4.571428 1.52381 5.333333 5.333334 5.333333-3.809524 0-5.333334 1.52381-5.333334 5.333333C5.333333 21.72381 3.809523 20.2 0 20.2c3.809524 0 5.333333-.761905 5.333333-5.333333zM52 27c0 2.571429.857143 3 3 3-2.142857 0-3 .857143-3 3 0-2.142857-.857143-3-3-3 2.142857 0 3-.428571 3-3zM15 27c0 3.428571 1.142857 4 4 4-2.857143 0-4 1.142857-4 4 0-2.857143-1.142857-4-4-4 2.857143 0 4-.571429 4-4z"/>
  </g>
</svg>