
<svg width="130px" height="130px" viewBox="0 0 130 130" version="1.1" xmlns="http://www.w3.org/2000/svg" xmlns:xlink="http://www.w3.org/1999/xlink">
    <!-- Generator: Sketch 50 (54983) - http://www.bohemiancoding.com/sketch -->
    <desc>Created with Sketch.</desc>
    <defs></defs>
    <g id="Symbols" stroke="none" stroke-width="1" fill="none" fill-rule="evenodd">
        <g id="Kana-prac" fill="#1F2673">
            <path d="M0,0 L130,0 L130,130 L0,130 L0,0 Z M3,7 L3,127 L127,127 L127,7 L3,7 Z" id="Combined-Shape"></path>
            <text id="KANA-PRAC" font-family="ArialRoundedMTBold, Arial Rounded MT Bold" font-size="18" font-weight="normal">
                <tspan x="10.2880859" y="89">KANA-PRAC</tspan>
            </text>
            <path d="M44.56224,50.2869052 C44.56224,51.1612487 44.4187214,51.7545443 44.13168,52.0668099 C43.8446386,52.3790754 43.3204838,52.5352059 42.5592,52.5352059 C41.9102368,52.5352059 41.4048018,52.3978111 41.04288,52.1230174 C40.6809582,51.8482237 40.5,51.4672655 40.5,50.9801312 C40.5,50.5179783 40.6715983,50.1557557 41.0148,49.8934526 C41.3580017,49.6311496 41.8727966,49.5 42.5592,49.5 C43.1332829,49.5 43.7510367,49.6623756 44.41248,49.9871318 C44.5123205,50.0246037 44.56224,50.0995463 44.56224,50.2119619 L44.56224,50.2869052 Z M76,41.5 C75.7230755,41.5 75.4871805,41.4025651 75.2923077,41.2076923 C75.0974349,41.0128195 75,40.7769245 75,40.5 C75,40.2230755 75.0974349,39.9871805 75.2923077,39.7923077 C75.4871805,39.5974349 75.7230755,39.5 76,39.5 C76.2769245,39.5 76.5128195,39.5974349 76.7076923,39.7923077 C76.9025651,39.9871805 77,40.2230755 77,40.5 C77,40.7769245 76.9025651,41.0128195 76.7076923,41.2076923 C76.5128195,41.4025651 76.2769245,41.5 76,41.5 Z" id="かな-プラク"></path>
            <path d="M0,0 L130,0 L130,65 L0,65 L0,0 Z M29.76688,49.51648 C29.8417604,49.7910414 30.0039988,50.0031993 30.2536,50.15296 C30.5032012,50.3027207 30.7715186,50.3464003 31.05856,50.284 L31.2832,50.24656 C31.5702414,50.1841597 31.7886393,50.0250413 31.9384,49.7692 C32.0881607,49.5133587 32.1256004,49.2481614 32.05072,48.9736 C31.3143963,46.2779065 30.5156843,43.8068912 29.65456,41.56048 C29.5547195,41.2734386 29.3675214,41.0612807 29.09296,40.924 C28.8183986,40.7867193 28.5376014,40.7617596 28.25056,40.84912 L28.0072,40.924 C27.7326386,41.0113604 27.5329606,41.1829587 27.40816,41.4388 C27.2833594,41.6946413 27.2708795,41.9535987 27.37072,42.21568 C28.3067247,44.6992124 29.1054367,47.1327881 29.76688,49.51648 Z M16.47568,44.06896 L18.12304,44.06896 C18.2228805,44.06896 18.2603201,44.1188795 18.23536,44.21872 C17.4865563,47.2388951 16.5942452,50.1155063 15.5584,52.84864 C15.4585595,53.1232014 15.4647994,53.3946387 15.57712,53.66296 C15.6894406,53.9312813 15.8828786,54.1091196 16.15744,54.19648 L16.28848,54.23392 C16.5630414,54.3337605 16.8344787,54.3244006 17.1028,54.20584 C17.3711213,54.0872794 17.5614394,53.8844814 17.67376,53.59744 C18.8593659,50.5772649 19.8390361,47.4510562 20.6128,44.21872 C20.6377601,44.1188795 20.7001595,44.06896 20.8,44.06896 L22.59712,44.06896 C23.4083241,44.06896 23.8794393,44.1937588 24.01048,44.44336 C24.1415207,44.6929612 24.20704,45.5665525 24.20704,47.06416 C24.20704,48.2248058 24.1415207,49.201356 24.01048,49.99384 C23.8794393,50.786324 23.7265609,51.3385584 23.55184,51.65056 C23.3771191,51.9625616 23.1836811,52.11856 22.97152,52.11856 C22.5971181,52.11856 21.9980841,51.9937612 21.1744,51.74416 C20.8873586,51.6567996 20.6159213,51.6786393 20.36008,51.80968 C20.1042387,51.9407207 19.9326404,52.1435186 19.84528,52.41808 L19.80784,52.5304 C19.7204796,52.8299215 19.7454393,53.1107187 19.88272,53.3728 C20.0200007,53.6348813 20.2321586,53.8095996 20.5192,53.89696 C21.7297661,54.2588818 22.7094363,54.43984 23.45824,54.43984 C24.456645,54.43984 25.2491171,53.8720057 25.83568,52.73632 C26.4222429,51.6006343 26.71552,49.834732 26.71552,47.43856 L26.71552,45.64144 C26.71552,45.242078 26.6843203,44.8021624 26.62192,44.32168 C26.5595197,43.8411976 26.5096002,43.5073609 26.47216,43.32016 C26.4347198,43.1329591 26.319281,42.9208012 26.12584,42.68368 C25.932399,42.4465588 25.7639207,42.3030402 25.6204,42.25312 C25.4768793,42.2031998 25.2116819,42.1408004 24.8248,42.06592 C24.4379181,41.9910396 24.0853616,41.9536 23.76712,41.9536 L21.268,41.9536 C21.1556794,41.9536 21.1119999,41.9036805 21.13696,41.80384 C21.2492806,41.1923169 21.3865592,40.4123247 21.5488,39.46384 C21.5987202,39.1767986 21.5363209,38.9178412 21.3616,38.68696 C21.1868791,38.4560788 20.9560014,38.3281601 20.66896,38.3032 L20.53792,38.28448 C20.2383985,38.2595199 19.9732012,38.3375191 19.74232,38.51848 C19.5114388,38.6994409 19.3648003,38.9334386 19.3024,39.22048 C19.1526393,40.1065644 18.9841609,40.9614359 18.79696,41.78512 C18.7719999,41.8974406 18.7096005,41.9536 18.60976,41.9536 L16.47568,41.9536 C16.1886386,41.9536 15.9390411,42.0596789 15.72688,42.27184 C15.5147189,42.4840011 15.40864,42.7335986 15.40864,43.02064 C15.40864,43.3076814 15.5147189,43.554159 15.72688,43.76008 C15.9390411,43.966001 16.1886386,44.06896 16.47568,44.06896 Z M49.38544,41.12992 C48.4743954,41.0300795 47.220168,40.9552002 45.62272,40.90528 C45.3356786,40.8927999 45.089201,40.9926389 44.88328,41.2048 C44.677359,41.4169611 44.5744,41.6665586 44.5744,41.9536 L44.5744,47.77552 C44.5744,47.8753605 44.5307204,47.9128001 44.44336,47.88784 C43.7444765,47.6756789 43.1204827,47.5696 42.57136,47.5696 C41.1611129,47.5696 40.0722438,47.8847168 39.30472,48.51496 C38.5371962,49.1452032 38.15344,49.9969546 38.15344,51.07024 C38.15344,52.1684855 38.5434361,53.0358368 39.32344,53.67232 C40.1034439,54.3088032 41.1860731,54.62704 42.57136,54.62704 C43.8068862,54.62704 44.7709565,54.3992823 45.4636,53.94376 C46.1562435,53.4882377 46.602399,52.7800048 46.80208,51.81904 C46.8270401,51.7441596 46.8769596,51.7316798 46.95184,51.7816 C47.0017602,51.8190402 47.1889584,51.9656787 47.51344,52.22152 C47.8379216,52.4773613 48.0937591,52.6863992 48.28096,52.84864 C48.5056011,53.0358409 48.7614386,53.1169601 49.04848,53.092 C49.3355214,53.0670399 49.578879,52.9484811 49.77856,52.73632 L49.83472,52.68016 C50.034401,52.4679989 50.1280001,52.2121615 50.11552,51.91264 C50.1030399,51.6131185 49.9844811,51.3697609 49.75984,51.18256 C48.8113553,50.3588759 47.9128042,49.6849626 47.06416,49.1608 C46.9892796,49.0983997 46.95184,49.0172805 46.95184,48.91744 L46.95184,43.24528 C46.95184,43.1329594 47.0017595,43.0768 47.1016,43.0768 C47.7505632,43.0892801 48.4244765,43.1391996 49.12336,43.22656 C49.4104014,43.2640002 49.6724788,43.1953609 49.9096,43.02064 C50.1467212,42.8459191 50.2839998,42.6150414 50.32144,42.328 C50.3588802,42.0284785 50.2871209,41.7601612 50.10616,41.52304 C49.9251991,41.2859188 49.6849615,41.1548801 49.38544,41.12992 Z M34.57792,52.00624 L34.7464,52.0624 C35.0334414,52.1622405 35.3111187,52.1466407 35.57944,52.0156 C35.8477613,51.8845593 36.0380794,51.6817614 36.1504,51.4072 C37.2361654,48.6740663 38.1659161,45.9347337 38.93968,43.18912 C38.9646401,43.0767994 39.0332794,43.02064 39.1456,43.02064 L41.61664,43.02064 C41.9036814,43.02064 42.1532789,42.9145611 42.36544,42.7024 C42.5776011,42.4902389 42.68368,42.2406414 42.68368,41.9536 C42.68368,41.6665586 42.5776011,41.4169611 42.36544,41.2048 C42.1532789,40.9926389 41.9036814,40.88656 41.61664,40.88656 L39.72592,40.88656 C39.6135994,40.88656 39.5699199,40.8366405 39.59488,40.7368 C39.6572803,40.4871988 39.7508794,40.1003226 39.87568,39.57616 C39.9380803,39.3015986 39.8912808,39.0457612 39.73528,38.80864 C39.5792792,38.5715188 39.3577614,38.4342402 39.07072,38.3968 L38.93968,38.3968 C38.6401585,38.3593598 38.3656012,38.4248792 38.116,38.59336 C37.8663988,38.7618408 37.7041604,38.9895986 37.62928,39.27664 C37.5793598,39.4388808 37.5169604,39.6822384 37.44208,40.00672 C37.3671996,40.3312016 37.3048002,40.5745592 37.25488,40.7368 C37.2299199,40.8366405 37.1612806,40.88656 37.04896,40.88656 L35.06464,40.88656 C34.7775986,40.88656 34.531121,40.9926389 34.3252,41.2048 C34.119279,41.4169611 34.01632,41.6665586 34.01632,41.9536 C34.01632,42.2406414 34.119279,42.4902389 34.3252,42.7024 C34.531121,42.9145611 34.7775986,43.02064 35.06464,43.02064 L36.44992,43.02064 C36.5497605,43.02064 36.5872001,43.0705595 36.56224,43.1704 C35.7884761,45.766253 34.9273647,48.268468 33.97888,50.67712 C33.8790395,50.9516814 33.8852794,51.2199987 33.9976,51.48208 C34.1099206,51.7441613 34.3033586,51.9188796 34.57792,52.00624 Z M53.87824,49.12336 L57.92176,49.12336 C58.1963214,49.12336 58.433439,49.026641 58.63312,48.8332 C58.832801,48.639759 58.93264,48.4057614 58.93264,48.1312 C58.93264,47.8566386 58.832801,47.622641 58.63312,47.4292 C58.433439,47.235759 58.1963214,47.13904 57.92176,47.13904 L53.87824,47.13904 C53.6036786,47.13904 53.366561,47.235759 53.16688,47.4292 C52.967199,47.622641 52.86736,47.8566386 52.86736,48.1312 C52.86736,48.4057614 52.967199,48.639759 53.16688,48.8332 C53.366561,49.026641 53.6036786,49.12336 53.87824,49.12336 Z M76.04272,37.648 C75.3188764,37.648 74.6917627,37.8882376 74.16136,38.36872 C73.6309573,38.8492024 73.3283204,39.4451164 73.25344,40.15648 C73.2284799,40.2688006 73.1723204,40.32496 73.08496,40.32496 L63.06976,40.32496 C62.7827186,40.32496 62.5331211,40.4310389 62.32096,40.6432 C62.1087989,40.8553611 62.00272,41.1049586 62.00272,41.392 L62.00272,41.63536 C62.00272,41.9224014 62.1087989,42.1719989 62.32096,42.38416 C62.5331211,42.5963211 62.7827186,42.7024 63.06976,42.7024 L73.38448,42.7024 C73.4718404,42.7024 73.51552,42.7523195 73.51552,42.85216 C73.2659188,45.6851342 72.4266471,47.8191928 70.99768,49.2544 C69.5687129,50.6896072 67.3940946,51.606878 64.47376,52.00624 C64.1867186,52.0436802 63.9620808,52.1778388 63.79984,52.40872 C63.6375992,52.6396012 63.5814398,52.8923186 63.63136,53.16688 L63.68752,53.39152 C63.7499203,53.6785614 63.8996788,53.9125591 64.1368,54.09352 C64.3739212,54.2744809 64.6422385,54.3462402 64.94176,54.3088 C68.336337,53.8595178 70.9446309,52.7612887 72.76672,51.01408 C74.5888091,49.2668713 75.6932781,46.7771362 76.08016,43.5448 L76.08016,43.39504 C76.08016,43.3076796 76.1300795,43.264 76.22992,43.264 C76.9662437,43.2140798 77.5871175,42.9176827 78.09256,42.3748 C78.5980025,41.8319173 78.85072,41.1923237 78.85072,40.456 C78.85072,39.6822361 78.5761627,39.0208027 78.02704,38.47168 C77.4779173,37.9225573 76.8164839,37.648 76.04272,37.648 Z M81.97696,46.76464 L92.7784,46.76464 C92.8782405,46.76464 92.9156801,46.8145595 92.89072,46.9144 C92.5038381,48.524328 91.614647,49.7504758 90.22312,50.59288 C88.831593,51.4352842 86.9564918,51.9625589 84.59776,52.17472 C84.3107186,52.1996801 84.0767209,52.3244789 83.89576,52.54912 C83.7147991,52.7737611 83.6492798,53.0233586 83.6992,53.29792 L83.73664,53.44768 C83.7865602,53.7472015 83.9300788,53.9905591 84.1672,54.17776 C84.4043212,54.3649609 84.6726385,54.4460801 84.97216,54.42112 C88.4665775,54.1091184 91.0904712,53.2199273 92.84392,51.75352 C94.5973688,50.2871127 95.5364794,48.2248133 95.66128,45.56656 C95.6737601,45.2795186 95.5739211,45.033041 95.36176,44.82712 C95.1495989,44.621199 94.9000014,44.51824 94.61296,44.51824 L81.97696,44.51824 C81.6899186,44.51824 81.4403211,44.621199 81.22816,44.82712 C81.0159989,45.033041 80.90992,45.2795186 80.90992,45.56656 L80.90992,45.6976 C80.90992,45.9846414 81.0159989,46.2342389 81.22816,46.4464 C81.4403211,46.6585611 81.6899186,46.76464 81.97696,46.76464 Z M83.34352,39.65104 C83.0564786,39.65104 82.8068811,39.753999 82.59472,39.95992 C82.3825589,40.165841 82.27648,40.4123186 82.27648,40.69936 L82.27648,40.8304 C82.27648,41.1174414 82.3825589,41.3670389 82.59472,41.5792 C82.8068811,41.7913611 83.0564786,41.89744 83.34352,41.89744 L93.45232,41.89744 C93.7393614,41.89744 93.9889589,41.7913611 94.20112,41.5792 C94.4132811,41.3670389 94.51936,41.1174414 94.51936,40.8304 L94.51936,40.69936 C94.51936,40.4123186 94.4132811,40.165841 94.20112,39.95992 C93.9889589,39.753999 93.7393614,39.65104 93.45232,39.65104 L83.34352,39.65104 Z M100.43488,47.60704 C100.659521,47.806721 100.921599,47.90344 101.22112,47.8972 C101.520641,47.89096 101.770239,47.7755211 101.96992,47.55088 C103.242886,46.1780731 104.210077,44.6742482 104.87152,43.03936 C104.90896,42.9395195 104.983839,42.8896 105.09616,42.8896 L111.01168,42.8896 C111.11152,42.8896 111.16144,42.9395195 111.16144,43.03936 C110.936799,45.8972943 110.122487,48.0032732 108.71848,49.35736 C107.314473,50.7114468 105.071215,51.5943979 101.98864,52.00624 C101.701599,52.0436802 101.470721,52.1778388 101.296,52.40872 C101.121279,52.6396012 101.05888,52.8923186 101.1088,53.16688 L101.14624,53.31664 C101.19616,53.6161615 101.342799,53.8595191 101.58616,54.04672 C101.829521,54.2339209 102.100959,54.3088002 102.40048,54.27136 C106.30674,53.8095977 109.170871,52.5896899 110.99296,50.6116 C112.815049,48.6335101 113.76976,45.6601798 113.85712,41.69152 C113.8696,41.4044786 113.769761,41.158001 113.5576,40.95208 C113.345439,40.746159 113.089601,40.6432 112.79008,40.6432 L105.77008,40.6432 C105.657759,40.6432 105.61408,40.5932805 105.63904,40.49344 C105.68896,40.3062391 105.72016,40.1502406 105.73264,40.02544 C105.78256,39.7508786 105.713921,39.5012811 105.52672,39.27664 C105.339519,39.0519989 105.102401,38.9272001 104.81536,38.90224 L104.49712,38.88352 C104.197599,38.8710399 103.932401,38.9583991 103.70152,39.1456 C103.470639,39.3328009 103.324,39.5761585 103.2616,39.87568 C102.774878,42.1720115 101.751528,44.2124711 100.19152,45.99712 C100.004319,46.2092811 99.9169599,46.4619985 99.92944,46.75528 C99.9419201,47.0485615 100.054239,47.2887991 100.2664,47.476 L100.43488,47.60704 Z" id="Combined-Shape"></path>
        </g>
    </g>
</svg>