
<svg width="250px" height="250px" viewBox="0 0 250 250" version="1.1" xmlns="http://www.w3.org/2000/svg" xmlns:xlink="http://www.w3.org/1999/xlink">
    <!-- Generator: Sketch 50 (54983) - http://www.bohemiancoding.com/sketch -->
    <desc>Created with Sketch.</desc>
    <defs></defs>
    <g id="Symbols" stroke="none" stroke-width="1" fill="none" fill-rule="evenodd">
        <g id="Kana-prac">
            <rect id="Path-Copy" stroke="#55B7FF" stroke-width="5" x="0" y="0" width="250" height="250"></rect>
            <text id="KANA-PRAC" font-family="ArialRoundedMTBold, Arial Rounded MT Bold" font-size="36" font-weight="normal" fill="#55B7FF">
                <tspan x="16.0761719" y="171">KANA-PRAC</tspan>
            </text>
            <path d="M85.72,96.88 C85.72,98.5600084 85.4440028,99.699997 84.892,100.3 C84.3399972,100.900003 83.3320073,101.2 81.868,101.2 C80.6199938,101.2 79.6480035,100.936003 78.952,100.408 C78.2559965,99.8799974 77.908,99.1480047 77.908,98.212 C77.908,97.3239956 78.2379967,96.6280025 78.898,96.124 C79.5580033,95.6199975 80.5479934,95.368 81.868,95.368 C82.9720055,95.368 84.1599936,95.6799969 85.432,96.304 C85.624001,96.3760004 85.72,96.5199989 85.72,96.736 L85.72,96.88 Z M146.236,80.14 C145.587997,80.14 145.036002,79.9120023 144.58,79.456 C144.123998,78.9999977 143.896,78.4480032 143.896,77.8 C143.896,77.1519968 144.123998,76.6000023 144.58,76.144 C145.036002,75.6879977 145.587997,75.46 146.236,75.46 C146.884003,75.46 147.435998,75.6879977 147.892,76.144 C148.348002,76.6000023 148.576,77.1519968 148.576,77.8 C148.576,78.4480032 148.348002,78.9999977 147.892,79.456 C147.435998,79.9120023 146.884003,80.14 146.236,80.14 Z" id="かな-プラク" fill="#55B7FF"></path>
            <path d="M0,0 L250,0 L250,125 L0,125 L0,0 Z M57.244,95.224 C57.3880007,95.7520026 57.6999976,96.1599986 58.18,96.448 C58.6600024,96.7360014 59.1759972,96.8200006 59.728,96.7 L60.16,96.628 C60.7120028,96.5079994 61.1319986,96.2020025 61.42,95.71 C61.7080014,95.2179975 61.7800007,94.7080026 61.636,94.18 C60.2199929,88.9959741 58.6840083,84.2440216 57.028,79.924 C56.835999,79.3719972 56.4760026,78.9640013 55.948,78.7 C55.4199974,78.4359987 54.8800028,78.3879992 54.328,78.556 L53.86,78.7 C53.3319974,78.8680008 52.9480012,79.1979975 52.708,79.69 C52.4679988,80.1820025 52.443999,80.6799975 52.636,81.184 C54.436009,85.9600239 55.9719936,90.6399771 57.244,95.224 Z M31.684,84.748 L34.852,84.748 C35.044001,84.748 35.1160002,84.843999 35.068,85.036 C33.6279928,90.844029 31.91201,96.3759737 29.92,101.632 C29.727999,102.160003 29.7399989,102.681997 29.956,103.198 C30.1720011,103.714003 30.5439974,104.055999 31.072,104.224 L31.324,104.296 C31.8520026,104.488001 32.3739974,104.470001 32.89,104.242 C33.4060026,104.013999 33.7719989,103.624003 33.988,103.072 C36.2680114,97.263971 38.1519926,91.2520311 39.64,85.036 C39.6880002,84.843999 39.807999,84.748 40,84.748 L43.456,84.748 C45.0160078,84.748 45.9219987,84.9879976 46.174,85.468 C46.4260013,85.9480024 46.552,87.6279856 46.552,90.508 C46.552,92.7400112 46.4260013,94.6179924 46.174,96.142 C45.9219987,97.6660076 45.6280017,98.727997 45.292,99.328 C44.9559983,99.928003 44.584002,100.228 44.176,100.228 C43.4559964,100.228 42.3040079,99.9880024 40.72,99.508 C40.1679972,99.3399992 39.6460025,99.3819987 39.154,99.634 C38.6619975,99.8860013 38.3320008,100.275997 38.164,100.804 L38.092,101.02 C37.9239992,101.596003 37.9719987,102.135997 38.236,102.64 C38.5000013,103.144003 38.9079972,103.479999 39.46,103.648 C41.7880116,104.344003 43.6719928,104.692 45.112,104.692 C47.0320096,104.692 48.5559944,103.600011 49.684,101.416 C50.8120056,99.2319891 51.376,95.836023 51.376,91.228 L51.376,87.772 C51.376,87.0039962 51.3160006,86.1580046 51.196,85.234 C51.0759994,84.3099954 50.9800004,83.6680018 50.908,83.308 C50.8359996,82.9479982 50.6140019,82.5400023 50.242,82.084 C49.8699981,81.6279977 49.5460014,81.3520005 49.27,81.256 C48.9939986,81.1599995 48.4840037,81.0400007 47.74,80.896 C46.9959963,80.7519993 46.3180031,80.68 45.706,80.68 L40.9,80.68 C40.6839989,80.68 40.5999998,80.584001 40.648,80.392 C40.8640011,79.2159941 41.1279984,77.7160091 41.44,75.892 C41.5360005,75.3399972 41.4160017,74.8420022 41.08,74.398 C40.7439983,73.9539978 40.3000028,73.7080002 39.748,73.66 L39.496,73.624 C38.9199971,73.5759998 38.4100022,73.7259983 37.966,74.074 C37.5219978,74.4220017 37.2400006,74.8719972 37.12,75.424 C36.8319986,77.1280085 36.5080018,78.7719921 36.148,80.356 C36.0999998,80.5720011 35.980001,80.68 35.788,80.68 L31.684,80.68 C31.1319972,80.68 30.652002,80.883998 30.244,81.292 C29.835998,81.700002 29.632,82.1799972 29.632,82.732 C29.632,83.2840028 29.835998,83.757998 30.244,84.154 C30.652002,84.550002 31.1319972,84.748 31.684,84.748 Z M94.972,79.096 C93.2199912,78.903999 90.8080154,78.7600005 87.736,78.664 C87.1839972,78.6399999 86.710002,78.831998 86.314,79.24 C85.917998,79.648002 85.72,80.1279972 85.72,80.68 L85.72,91.876 C85.72,92.068001 85.6360008,92.1400002 85.468,92.092 C84.1239933,91.683998 82.9240053,91.48 81.868,91.48 C79.1559864,91.48 77.0620074,92.0859939 75.586,93.298 C74.1099926,94.5100061 73.372,96.1479897 73.372,98.212 C73.372,100.324011 74.1219925,101.991994 75.622,103.216 C77.1220075,104.440006 79.2039867,105.052 81.868,105.052 C84.2440119,105.052 86.0979933,104.614004 87.43,103.738 C88.7620067,102.861996 89.6199981,101.500009 90.004,99.652 C90.0520002,99.5079993 90.1479993,99.4839995 90.292,99.58 C90.3880005,99.6520004 90.7479969,99.9339975 91.372,100.426 C91.9960031,100.918002 92.4879982,101.319998 92.848,101.632 C93.2800022,101.992002 93.7719972,102.148 94.324,102.1 C94.8760028,102.052 95.3439981,101.824002 95.728,101.416 L95.836,101.308 C96.2200019,100.899998 96.4000001,100.408003 96.376,99.832 C96.3519999,99.2559971 96.1240022,98.7880018 95.692,98.428 C93.8679909,96.8439921 92.1400082,95.548005 90.508,94.54 C90.3639993,94.4199994 90.292,94.264001 90.292,94.072 L90.292,83.164 C90.292,82.9479989 90.387999,82.84 90.58,82.84 C91.8280062,82.8640001 93.1239933,82.9599992 94.468,83.128 C95.0200028,83.2000004 95.5239977,83.0680017 95.98,82.732 C96.4360023,82.3959983 96.6999996,81.9520028 96.772,81.4 C96.8440004,80.8239971 96.7060017,80.3080023 96.358,79.852 C96.0099983,79.3959977 95.5480029,79.1440002 94.972,79.096 Z M66.496,100.012 L66.82,100.12 C67.3720028,100.312001 67.9059974,100.282001 68.422,100.03 C68.9380026,99.7779987 69.3039989,99.3880026 69.52,98.86 C71.6080104,93.6039737 73.3959926,88.3360264 74.884,83.056 C74.9320002,82.8399989 75.0639989,82.732 75.28,82.732 L80.032,82.732 C80.5840028,82.732 81.063998,82.528002 81.472,82.12 C81.880002,81.711998 82.084,81.2320028 82.084,80.68 C82.084,80.1279972 81.880002,79.648002 81.472,79.24 C81.063998,78.831998 80.5840028,78.628 80.032,78.628 L76.396,78.628 C76.1799989,78.628 76.0959998,78.532001 76.144,78.34 C76.2640006,77.8599976 76.4439988,77.116005 76.684,76.108 C76.8040006,75.5799974 76.7140015,75.0880023 76.414,74.632 C76.1139985,74.1759977 75.6880028,73.9120004 75.136,73.84 L74.884,73.84 C74.3079971,73.7679996 73.7800024,73.8939984 73.3,74.218 C72.8199976,74.5420016 72.5080007,74.9799972 72.364,75.532 C72.2679995,75.8440016 72.1480007,76.3119969 72.004,76.936 C71.8599993,77.5600031 71.7400005,78.0279984 71.644,78.34 C71.5959998,78.532001 71.4640011,78.628 71.248,78.628 L67.432,78.628 C66.8799972,78.628 66.406002,78.831998 66.01,79.24 C65.613998,79.648002 65.416,80.1279972 65.416,80.68 C65.416,81.2320028 65.613998,81.711998 66.01,82.12 C66.406002,82.528002 66.8799972,82.732 67.432,82.732 L70.096,82.732 C70.288001,82.732 70.3600002,82.827999 70.312,83.02 C68.8239926,88.012025 67.1680091,92.8239768 65.344,97.456 C65.151999,97.9840026 65.1639989,98.4999975 65.38,99.004 C65.5960011,99.5080025 65.9679974,99.8439992 66.496,100.012 Z M103.612,94.468 L111.388,94.468 C111.916003,94.468 112.371998,94.2820019 112.756,93.91 C113.140002,93.5379981 113.332,93.0880026 113.332,92.56 C113.332,92.0319974 113.140002,91.5820019 112.756,91.21 C112.371998,90.8379981 111.916003,90.652 111.388,90.652 L103.612,90.652 C103.083997,90.652 102.628002,90.8379981 102.244,91.21 C101.859998,91.5820019 101.668,92.0319974 101.668,92.56 C101.668,93.0880026 101.859998,93.5379981 102.244,93.91 C102.628002,94.2820019 103.083997,94.468 103.612,94.468 Z M146.236,72.4 C144.843993,72.4 143.638005,72.8619954 142.618,73.786 C141.597995,74.7100046 141.016001,75.8559932 140.872,77.224 C140.824,77.4400011 140.716001,77.548 140.548,77.548 L121.288,77.548 C120.735997,77.548 120.256002,77.751998 119.848,78.16 C119.439998,78.568002 119.236,79.0479972 119.236,79.6 L119.236,80.068 C119.236,80.6200028 119.439998,81.099998 119.848,81.508 C120.256002,81.916002 120.735997,82.12 121.288,82.12 L141.124,82.12 C141.292001,82.12 141.376,82.215999 141.376,82.408 C140.895998,87.8560272 139.282014,91.9599862 136.534,94.72 C133.785986,97.4800138 129.604028,99.2439962 123.988,100.012 C123.435997,100.084 123.004002,100.341998 122.692,100.786 C122.379998,101.230002 122.272,101.715997 122.368,102.244 L122.476,102.676 C122.596001,103.228003 122.883998,103.677998 123.34,104.026 C123.796002,104.374002 124.311997,104.512 124.888,104.44 C131.416033,103.575996 136.431982,101.464017 139.936,98.104 C143.440018,94.7439832 145.563996,89.9560311 146.308,83.74 L146.308,83.452 C146.308,83.2839992 146.403999,83.2 146.596,83.2 C148.012007,83.1039995 149.205995,82.5340052 150.178,81.49 C151.150005,80.4459948 151.636,79.2160071 151.636,77.8 C151.636,76.3119926 151.108005,75.0400053 150.052,73.984 C148.995995,72.9279947 147.724007,72.4 146.236,72.4 Z M157.648,89.932 L178.42,89.932 C178.612001,89.932 178.684,90.027999 178.636,90.22 C177.891996,93.3160155 176.182013,95.6739919 173.506,97.294 C170.829987,98.9140081 167.224023,99.927998 162.688,100.336 C162.135997,100.384 161.686002,100.623998 161.338,101.056 C160.989998,101.488002 160.864,101.967997 160.96,102.496 L161.032,102.784 C161.128,103.360003 161.403998,103.827998 161.86,104.188 C162.316002,104.548002 162.831997,104.704 163.408,104.656 C170.128034,104.055997 175.173983,102.346014 178.546,99.526 C181.918017,96.7059859 183.723999,92.7400256 183.964,87.628 C183.988,87.0759972 183.796002,86.602002 183.388,86.206 C182.979998,85.809998 182.500003,85.612 181.948,85.612 L157.648,85.612 C157.095997,85.612 156.616002,85.809998 156.208,86.206 C155.799998,86.602002 155.596,87.0759972 155.596,87.628 L155.596,87.88 C155.596,88.4320028 155.799998,88.911998 156.208,89.32 C156.616002,89.728002 157.095997,89.932 157.648,89.932 Z M160.276,76.252 C159.723997,76.252 159.244002,76.449998 158.836,76.846 C158.427998,77.242002 158.224,77.7159972 158.224,78.268 L158.224,78.52 C158.224,79.0720028 158.427998,79.551998 158.836,79.96 C159.244002,80.368002 159.723997,80.572 160.276,80.572 L179.716,80.572 C180.268003,80.572 180.747998,80.368002 181.156,79.96 C181.564002,79.551998 181.768,79.0720028 181.768,78.52 L181.768,78.268 C181.768,77.7159972 181.564002,77.242002 181.156,76.846 C180.747998,76.449998 180.268003,76.252 179.716,76.252 L160.276,76.252 Z M193.144,91.552 C193.576002,91.9360019 194.079997,92.1220001 194.656,92.11 C195.232003,92.0979999 195.711998,91.8760022 196.096,91.444 C198.544012,88.8039868 200.403994,85.9120157 201.676,82.768 C201.748,82.575999 201.891999,82.48 202.108,82.48 L213.484,82.48 C213.676001,82.48 213.772,82.575999 213.772,82.768 C213.339998,88.2640275 211.774013,92.313987 209.074,94.918 C206.373986,97.522013 202.06003,99.219996 196.132,100.012 C195.579997,100.084 195.136002,100.341998 194.8,100.786 C194.463998,101.230002 194.344,101.715997 194.44,102.244 L194.512,102.532 C194.608,103.108003 194.889998,103.575998 195.358,103.936 C195.826002,104.296002 196.347997,104.44 196.924,104.368 C204.436038,103.479996 209.943982,101.134019 213.448,97.33 C216.952018,93.525981 218.787999,87.8080382 218.956,80.176 C218.98,79.6239972 218.788002,79.150002 218.38,78.754 C217.971998,78.357998 217.480003,78.16 216.904,78.16 L203.404,78.16 C203.187999,78.16 203.104,78.064001 203.152,77.872 C203.248,77.5119982 203.308,77.2120012 203.332,76.972 C203.428,76.4439974 203.296002,75.9640022 202.936,75.532 C202.575998,75.0999978 202.120003,74.8600002 201.568,74.812 L200.956,74.776 C200.379997,74.7519999 199.870002,74.9199982 199.426,75.28 C198.981998,75.6400018 198.700001,76.1079971 198.58,76.684 C197.643995,81.1000221 195.676015,85.0239828 192.676,88.456 C192.315998,88.864002 192.148,89.3499972 192.172,89.914 C192.196,90.4780028 192.411998,90.9399982 192.82,91.3 L193.144,91.552 Z" id="Combined-Shape" fill="#55B7FF"></path>
        </g>
    </g>
</svg>