<svg width="155px" height="155px" viewBox="0 0 155 155" version="1.1" xmlns="http://www.w3.org/2000/svg" xmlns:xlink="http://www.w3.org/1999/xlink">
    <!-- Generator: Sketch 50 (54983) - http://www.bohemiancoding.com/sketch -->
    <desc>Created with Sketch.</desc>
    <defs></defs>
    <g id="Symbols" stroke="none" stroke-width="1" fill="none" fill-rule="evenodd">
        <g id="Pafiume-Copy-2" stroke="#FFF" stroke-width="11">
            <g id="Bottle" transform="translate(10.000000, 10.000000)">
                <path d="M105.142507,10.2161361 L134.859687,59.7447685 C134.951551,59.8978765 135.000747,60.0727886 135.002162,60.2513361 L135.586639,133.970696 C135.591017,134.522964 135.146866,134.974214 134.594598,134.978593 C134.591956,134.978614 134.589313,134.978624 134.58667,134.978624 L1,134.978624 C0.44771525,134.978624 1.57645121e-14,134.530909 0,133.978624 L7.99360578e-15,60.2572717 C5.38074806e-15,60.0749791 0.0498290922,59.8961542 0.144100177,59.74013 L30.0663078,10.2171186 C30.1605789,10.0610944 30.210408,9.88226948 30.210408,9.6999769 L30.210408,1 C30.210408,0.44771525 30.6581232,1.01453063e-16 31.210408,0 L104,2.66453526e-15 C104.552285,-5.28535614e-15 105,0.44771525 105,1 L105,9.70164034 C105,9.88288428 105.049258,10.0607207 105.142507,10.2161361 Z" id="Path-3"></path>
                <path d="M105,10 L31.758195,10 C31.2059102,10 30.758195,10.4477153 30.758195,11 C30.758195,11.1799217 30.8067372,11.3565108 30.8987045,11.5111518 L60.0210046,60.479657 L60.0210046,135" id="Path-6"></path>
                <path d="M135,59.823534 L3.3190427,59.823534 C2.76675795,59.823534 2.3190427,59.3758188 2.3190427,58.823534 C2.3190427,58.4882171 2.48710213,58.175219 2.76660755,57.9899782 L45,30" id="Path-7"></path>
            </g>
        </g>
    </g>
</svg>