
<svg width="195px" height="220px" viewBox="0 0 195 220" version="1.1" xmlns="http://www.w3.org/2000/svg" xmlns:xlink="http://www.w3.org/1999/xlink">
    <!-- Generator: Sketch 50 (54983) - http://www.bohemiancoding.com/sketch -->
    <desc>Created with Sketch.</desc>
    <defs></defs>
    <g id="Symbols" stroke="none" stroke-width="1" fill="none" fill-rule="evenodd">
        <g id="Pafiume-cast" stroke="#1F2673">
            <g id="Bottle" transform="translate(30.000000, 40.000000)" stroke-width="11">
                <path d="M105.142507,45.2161361 L134.859687,94.7447685 C134.951551,94.8978765 135.000747,95.0727886 135.002162,95.2513361 L135.586639,168.970696 C135.591017,169.522964 135.146866,169.974214 134.594598,169.978593 C134.591956,169.978614 134.589313,169.978624 134.58667,169.978624 L1,169.978624 C0.44771525,169.978624 6.76353751e-17,169.530909 0,168.978624 L7.77156117e-15,95.2572717 C7.74923677e-15,95.0749791 0.0498290922,94.8961542 0.144100177,94.74013 L30.0663078,45.2171186 C30.1605789,45.0610944 30.210408,44.8822695 30.210408,44.6999769 L30.210408,36 C30.210408,35.4477153 30.6581232,35 31.210408,35 L104,35 C104.552285,35 105,35.4477153 105,36 L105,44.7016403 C105,44.8828843 105.049258,45.0607207 105.142507,45.2161361 Z" id="Path-3"></path>
                <path d="M105,45 L31.758195,45 C31.2059102,45 30.758195,45.4477153 30.758195,46 C30.758195,46.1799217 30.8067372,46.3565108 30.8987045,46.5111518 L60.0210046,95.479657 L60.0210046,170" id="Path-6"></path>
                <path d="M80.4957638,94.823534 L3.3190427,94.823534 C2.76675795,94.823534 2.3190427,94.3758188 2.3190427,93.823534 C2.3190427,93.4882171 2.48710213,93.175219 2.76660755,92.9899782 L45,65" id="Path-7"></path>
                <path d="M80,35 L80,1 C80,0.44771525 79.5522847,-1.01453063e-16 79,0 L56,0 C55.4477153,1.01453063e-16 55,0.44771525 55,1 L55,35" id="Path-2"></path>
            </g>
            <g id="Spray" transform="translate(10.000000, 15.000000)">
                <circle id="Oval-Copy-9" stroke-width="2" fill="#1F2673" cx="60" cy="35" r="5"></circle>
                <path d="M43.6395845,23.4933217 C41.3466089,26.7475355 40,30.7165091 40,35 C40,39.2573251 41.3302076,43.2039637 43.5976705,46.4469631" id="Oval-3" stroke-width="12" stroke-linecap="round"></path>
                <path d="M27.4566813,11.7367493 C27.3927132,11.826076 27.3291037,11.915677 27.265855,12.0055502 C22.6880057,18.5104414 20,26.441312 20,35 C20,43.4332628 22.609799,51.2569744 27.0658138,57.7075515 C27.136098,57.8092957 27.2068416,57.9106984 27.2780414,58.0117564" id="Oval-3-Copy" stroke-width="12" stroke-linecap="round"></path>
                <path d="M10.8875713,0.524261342 C4.02762008,10.2786138 0,22.1689564 0,35 C0,47.7999868 4.00814639,59.6638208 10.8378086,69.4048714" id="Oval-3-Copy-2" stroke-width="12" stroke-linecap="round"></path>
            </g>
            <path d="M148.35097,106.570201 C145.700011,105.547883 142.897992,105 140,105 C123.431458,105 110,122.90861 110,145 C110,167.09139 123.431458,185 140,185 C156.568542,185 170,167.09139 170,145" id="Oval" stroke-width="12"></path>
            <ellipse id="Oval-Copy" stroke-width="12" fill="#1F2673" cx="157.25" cy="144" rx="26.25" ry="30"></ellipse>
            <path d="M165,70 C165,36.862915 138.137085,10 105,10 C89.7387652,10 75.8083127,15.6977565 65.219846,25.082066" id="Oval-4-Copy-3" stroke-width="12" stroke-linecap="round"></path>
            <path d="M165,70.4546617 L165.000028,79.2795274 C165.000028,79.7111637 164.723086,80.0940908 164.313159,80.2292579 C154.771053,83.375623 150,83.2992037 150,80 C150,70.6471839 150,74.1503661 150,70 C150,40.1575826 128.213246,15.4037344 99.6776988,10.7764168" id="Oval-4-Copy-2" stroke-width="12" stroke-linecap="round"></path>
            <ellipse id="Oval-2" stroke-width="12" cx="140" cy="145" rx="30" ry="40"></ellipse>
        </g>
    </g>
</svg>