
<svg width="195px" height="220px" viewBox="0 0 195 220" version="1.1" xmlns="http://www.w3.org/2000/svg" xmlns:xlink="http://www.w3.org/1999/xlink">
    <!-- Generator: Sketch 50 (54983) - http://www.bohemiancoding.com/sketch -->
    <desc>Created with Sketch.</desc>
    <defs></defs>
    <g id="Symbols" stroke="none" stroke-width="1" fill="none" fill-rule="evenodd">
        <g id="Pafiume-Copy" stroke="#1F2673">
            <g id="Bottle" transform="translate(30.000000, 30.000000)" stroke-width="11">
                <path d="M105.142507,55.2161361 L134.859687,104.744769 C134.951551,104.897877 135.000747,105.072789 135.002162,105.251336 L135.586639,178.970696 C135.591017,179.522964 135.146866,179.974214 134.594598,179.978593 C134.591956,179.978614 134.589313,179.978624 134.58667,179.978624 L1,179.978624 C0.44771525,179.978624 1.57645121e-14,179.530909 0,178.978624 L7.99360578e-15,105.257272 C7.97128138e-15,105.074979 0.0498290922,104.896154 0.144100177,104.74013 L30.0663078,55.2171186 C30.1605789,55.0610944 30.210408,54.8822695 30.210408,54.6999769 L30.210408,46 C30.210408,45.4477153 30.6581232,45 31.210408,45 L104,45 C104.552285,45 105,45.4477153 105,46 L105,54.7016403 C105,54.8828843 105.049258,55.0607207 105.142507,55.2161361 Z" id="Path-3"></path>
                <path d="M105,55 L31.758195,55 C31.2059102,55 30.758195,55.4477153 30.758195,56 C30.758195,56.1799217 30.8067372,56.3565108 30.8987045,56.5111518 L60.0210046,105.479657 L60.0210046,180" id="Path-6"></path>
                <path d="M135,104.823534 L3.3190427,104.823534 C2.76675795,104.823534 2.3190427,104.375819 2.3190427,103.823534 C2.3190427,103.488217 2.48710213,103.175219 2.76660755,102.989978 L45,75" id="Path-7"></path>
                <path d="M80,45 L80,11 C80,10.4477153 79.5522847,10 79,10 L56,10 C55.4477153,10 55,10.4477153 55,11 L55,45" id="Path-2"></path>
                <path d="M80,25 C124.666667,25 124.666667,-1.42108547e-14 124.666667,-1.42108547e-14" id="Path-8"></path>
            </g>
            <g id="Spray" transform="translate(5.000000, 5.000000)" fill="#1F2673" stroke-width="2">
                <circle id="Oval" cx="20" cy="15" r="5"></circle>
                <circle id="Oval-Copy" cx="20" cy="35" r="5"></circle>
                <circle id="Oval-Copy-2" cx="20" cy="55" r="5"></circle>
                <circle id="Oval-Copy-3" cx="20" cy="75" r="5"></circle>
                <circle id="Oval-Copy-13" cx="5" cy="5" r="5"></circle>
                <circle id="Oval-Copy-12" cx="5" cy="25" r="5"></circle>
                <circle id="Oval-Copy-11" cx="5" cy="45" r="5"></circle>
                <circle id="Oval-Copy-10" cx="5" cy="65" r="5"></circle>
                <circle id="Oval-Copy-14" cx="5" cy="85" r="5"></circle>
                <circle id="Oval-Copy-4" cx="35" cy="65" r="5"></circle>
                <circle id="Oval-Copy-6" cx="35" cy="25" r="5"></circle>
                <circle id="Oval-Copy-7" cx="50" cy="35" r="5"></circle>
                <circle id="Oval-Copy-8" cx="50" cy="55" r="5"></circle>
                <circle id="Oval-Copy-9" cx="65" cy="45" r="5"></circle>
                <circle id="Oval-Copy-5" cx="35" cy="45" r="5"></circle>
                <ellipse id="Oval-2" cx="155" cy="25" rx="30" ry="25"></ellipse>
            </g>
        </g>
    </g>
</svg>