<svg width="140px" height="140px" viewBox="0 0 140 140" version="1.1" xmlns="http://www.w3.org/2000/svg" xmlns:xlink="http://www.w3.org/1999/xlink">
    <!-- Generator: Sketch 50 (54983) - http://www.bohemiancoding.com/sketch -->
    <desc>Created with Sketch.</desc>
    <defs></defs>
    <g id="Symbols" stroke="none" stroke-width="1" fill="none" fill-rule="evenodd">
        <g id="Real-DEAL" fill="#55B7FF">
            <path d="M125.78125,125.797314 L140,140 L140,70.0790835 L70,70.0790835 L85,85.0621371 L85,79 L100.925781,79 L100.925781,100.969926 L117.822601,117.847656 L125.78125,117.847656 L125.78125,125.797314 Z M0.170100118,-2.42444953e-14 L140.1701,-2.42444953e-14 L140.1701,140 L0.170100118,140 L0.170100118,-2.42444953e-14 Z M125.78125,125.797314 L117.822601,117.847656 L100.925781,117.847656 L100.925781,100.969926 L85,85.0621371 L85,130.539062 L125.78125,130.539062 L125.78125,125.797314 Z M43.9140625,122.03125 L25.7734375,122.03125 L23.2773437,130.539062 L7,130.539062 L26.3710937,79 L43.7382812,79 L63.109375,130.539062 L46.4453125,130.539062 L43.9140625,122.03125 Z M70,70 L-6.03961325e-13,70 L-6.32383035e-13,0.079083529 L70,70 Z M126.679687,13.3843472 L126.679687,20.0039062 L120.052641,20.0039062 L111.85197,28.1953125 L124.746094,28.1953125 L124.746094,38.7070312 L101.328362,38.7070312 L99.9609375,40.0729113 L99.9609375,48.8671875 L127.453125,48.8671875 L127.453125,60.5390625 L84,60.5390625 L84,56.0158167 L70,70 L70,0.079083529 L140,0.079083529 L126.679687,13.3843472 Z M29.250608,110.782438 L34.8789062,92.359375 L37.8895493,102.153257 L70,70.0790835 L70,140 L-1.63424829e-13,140 L29.250608,110.782438 Z M29.250608,110.782438 L29.21875,110.886719 L40.5742187,110.886719 L37.8895493,102.153257 L29.250608,110.782438 Z M126.679687,13.3843472 L126.679687,9 L84,9 L84,56.0158167 L99.9609375,40.0729113 L99.9609375,38.7070312 L101.328362,38.7070312 L111.85197,28.1953125 L99.9609375,28.1953125 L99.9609375,20.0039062 L120.052641,20.0039062 L126.679687,13.3843472 Z M11,9 L34.6601562,9 C39.3242421,9 43.0917825,9.63280617 45.9628906,10.8984375 C48.8339987,12.1640688 51.2070219,13.9804569 53.0820312,16.3476562 C54.9570406,18.7148556 56.316402,21.4687343 57.1601562,24.609375 C58.0039105,27.7500157 58.4257812,31.0781074 58.4257812,34.59375 C58.4257812,40.10159 57.7988344,44.3730317 56.5449219,47.4082031 C55.2910094,50.4433746 53.5507924,52.9863179 51.3242187,55.0371094 C49.0976451,57.0879009 46.707044,58.4531216 44.1523437,59.1328125 C40.6601388,60.0703172 37.4961079,60.5390625 34.6601562,60.5390625 L11,60.5390625 L11,9 Z M26.9257812,20.671875 L26.9257812,48.8320312 L30.828125,48.8320312 C34.1562666,48.8320312 36.5234305,48.4628943 37.9296875,47.7246094 C39.3359445,46.9863244 40.437496,45.6972748 41.234375,43.8574219 C42.031254,42.0175689 42.4296875,39.0351769 42.4296875,34.9101562 C42.4296875,29.4491914 41.5390714,25.7109476 39.7578125,23.6953125 C37.9765536,21.6796774 35.0234581,20.671875 30.8984375,20.671875 L26.9257812,20.671875 Z" id="Combined-Shape"></path>
        </g>
    </g>
</svg>