<svg xmlns="http://www.w3.org/2000/svg" width="64" height="64">
  <g fill="none" fill-rule="evenodd">
    <path fill="#F98B9E" d="M0 0h32v32L64 0v32H32l32 32H32V32L0 64V32h32z"/>
    <path fill="#FFF" fill-rule="nonzero" stroke="#F98B9E" stroke-width="2" d="M6.782715 4.52539h9.858398c1.94337 0 3.513178.26367 4.709473.791016 1.196295.527347 2.185055 1.284175 2.966309 2.270508.781253.986333 1.347654 2.133783 1.699218 3.442383.351564 1.3086.527344 2.695305.527344 4.160156 0 2.294933-.261228 4.0747-.783691 5.339356-.522464 1.264654-1.247554 2.324214-2.175293 3.17871-.92774.854497-1.923823 1.423339-2.988282 1.706543C19.141106 25.80469 17.82276 26 16.641113 26H6.782715V4.52539zm6.635742 4.863282V21.12207h1.625977c1.386725 0 2.373043-.153807 2.958984-.461426.58594-.307618 1.04492-.844722 1.376953-1.611328.332033-.766605.498047-2.009268.498047-3.728027 0-2.275402-.37109-3.833004-1.113281-4.672852-.742192-.839847-1.972648-1.259765-3.691406-1.259765h-1.655274zM40.020019 4.52539h17.783204v4.58496H46.67041v3.413087H56.99756v4.379882H46.67041v4.233399h11.455078V26H40.02002V4.52539zM20.735352 54.455078h-7.558594L12.136718 58H5.354493l8.07129-21.47461h7.236327L28.7334 58h-6.94336l-1.054687-3.544922zm-1.391602-4.643555l-2.373047-7.719726-2.358398 7.719726h4.731445zm21.518555-13.286132h6.635742v16.186523h10.356445V58H40.862305V36.52539z"/>
  </g>
</svg>