<svg xmlns="http://www.w3.org/2000/svg" width="64" height="64">
  <g fill="none" fill-rule="evenodd">
    <path fill="#F98B9E" d="M0 0h32v32L64 0v32H32l32 32H32V32L0 64V32h32z"/>
    <path fill="#FFBAC6" fill-rule="nonzero" stroke="#FFF" d="M6.78271484 4.52539063h9.85839846c1.9433691 0 3.5131776.26366923 4.7094726.79101562 1.1962951.52734639 2.1850547 1.28417476 2.9663086 2.27050781.7812539.98633306 1.3476545 2.13378252 1.6992188 3.44238284.3515642 1.3086003.5273437 2.6953052.5273437 4.1601562 0 2.2949334-.2612278 4.0747007-.7836914 5.3393555-.5224635 1.2646548-1.2475539 2.3242145-2.1752929 3.1787109-.9277391.8544965-1.9238228 1.4233385-2.9882813 1.706543C19.141106 25.8046895 17.8227598 26 16.6411133 26H6.78271484V4.52539063zM13.418457 9.38867188V21.1220703h1.6259766c1.3867257 0 2.3730439-.153807 2.9589844-.4614258.5859404-.3076187 1.0449202-.8447227 1.3769531-1.6113281.3320329-.7666054.4980469-2.0092687.4980469-3.7280273 0-2.275402-.3710901-3.8330037-1.1132813-4.6728516-.7421912-.83984795-1.9726476-1.25976562-3.6914062-1.25976562H13.418457zm26.6015625-4.86328125h17.7832032v4.58496093H46.6704102v3.41308594h10.3271484v4.3798828H46.6704102v4.2333985h11.4550781V26H40.0200195V4.52539063zM20.7353516 54.4550781h-7.5585938L12.1367188 58H5.35449219l8.07128911-21.4746094h7.2363281L28.7333984 58h-6.9433593l-1.0546875-3.5449219zM19.34375 49.8115234l-2.3730469-7.7197265-2.3583984 7.7197265H19.34375zm21.5185547-13.2861328h6.6357422v16.1865235h10.3564453V58H40.8623047V36.5253906z"/>
  </g>
</svg>