<svg xmlns="http://www.w3.org/2000/svg" width="62" height="58">
  <g fill="none" fill-rule="evenodd">
    <path fill="#6783E2" d="M31 44.16L12.1908719 57.8885438l7.2442809-22.1308971L.56619148 22.1114562l23.28633982.0508971L31 0l7.1474687 22.1623533 23.2863398-.0508971-18.8689613 13.6461905 7.2442809 22.1308971z"/>
    <path fill="#1F2673" fill-rule="nonzero" stroke="#FFF" d="M39.32 20.9c-.7600038-.96-1.7899935-1.6699977-3.09-2.13-1.3000065-.4600023-2.5299942-.69-3.69-.69-.6800034 0-1.3799964.0799992-2.1.24-.7200036.1600008-1.3999968.4099983-2.04.75s-1.159998.7899972-1.56 1.35c-.400002.5600028-.6 1.239996-.6 2.04 0 1.2800064.4799952 2.2599966 1.44 2.94.96.6800034 2.1699927 1.2599976 3.63 1.74 1.4600073.4800024 3.0299916.9599976 4.71 1.44 1.6800084.4800024 3.2499927 1.1599956 4.71 2.04s2.6699952 2.0599926 3.63 3.54c.9600048 1.4800074 1.44 3.4599876 1.44 5.94 0 2.3600118-.4399956 4.4199912-1.32 6.18-.8800044 1.7600088-2.0699925 3.2199942-3.57 4.38-1.5000075 1.1600058-3.2399901 2.0199972-5.22 2.58-1.9800099.5600028-4.069989.84-6.27.84-2.7600138 0-5.3199882-.4199958-7.68-1.26-2.3600118-.8400042-4.5599898-2.1999906-6.6-4.08l6.66-7.32c.9600048 1.2800064 2.1699927 2.2699965 3.63 2.97 1.4600073.7000035 2.9699922 1.05 4.53 1.05.7600038 0 1.5299961-.0899991 2.31-.27.7800039-.1800009 1.4799969-.4499982 2.1-.81.6200031-.3600018 1.1199981-.8199972 1.5-1.38.3800019-.5600028.57-1.2199962.57-1.98 0-1.2800064-.4899951-2.2899963-1.47-3.03-.9800049-.7400037-2.2099926-1.3699974-3.69-1.89-1.4800074-.5200026-3.0799914-1.0399974-4.8-1.56-1.7200086-.5200026-3.3199926-1.2199956-4.8-2.1-1.4800074-.8800044-2.7099951-2.0399928-3.69-3.48-.9800049-1.4400072-1.47-3.3399882-1.47-5.7 0-2.2800114.4499955-4.2799914 1.35-6 .9000045-1.7200086 2.0999925-3.1599942 3.6-4.32 1.5000075-1.1600058 3.2299902-2.0299971 5.19-2.61 1.9600098-.5800029 3.9799896-.87 6.06-.87 2.400012 0 4.7199888.3399966 6.96 1.02 2.2400112.6800034 4.259991 1.819992 6.06 3.42l-6.42 7.02z"/>
  </g>
</svg>