<svg xmlns="http://www.w3.org/2000/svg" width="62" height="58">
  <g fill="#1F2673" fill-rule="evenodd">
    <path d="M31 44.16L12.190872 57.888544l7.24428-22.130897-18.86896-13.64619 23.28634.050896L31 0l7.147469 22.162353 23.28634-.050897-18.868962 13.64619 7.244281 22.130898z"/>
    <path fill-rule="nonzero" stroke="#FFF" d="M39.32 20.9c-.760004-.96-1.789994-1.669998-3.09-2.13-1.300006-.460002-2.529994-.69-3.69-.69-.680003 0-1.379996.08-2.1.24-.720004.16-1.399997.409998-2.04.75-.640003.340002-1.159998.789997-1.56 1.35-.400002.560003-.6 1.239996-.6 2.04 0 1.280006.479995 2.259997 1.44 2.94.96.680003 2.169993 1.259998 3.63 1.74 1.460007.480002 3.029992.959998 4.71 1.44 1.680008.480002 3.249993 1.159996 4.71 2.04s2.669995 2.059993 3.63 3.54c.960005 1.480007 1.44 3.459988 1.44 5.94 0 2.360012-.439996 4.419991-1.32 6.18-.880004 1.760009-2.069992 3.219994-3.57 4.38-1.500007 1.160006-3.23999 2.019997-5.22 2.58-1.98001.560003-4.069989.84-6.27.84-2.760014 0-5.319988-.419996-7.68-1.26-2.360012-.840004-4.55999-2.19999-6.6-4.08l6.66-7.32c.960005 1.280006 2.169993 2.269996 3.63 2.97 1.460007.700004 2.969992 1.05 4.53 1.05.760004 0 1.529996-.09 2.31-.27.780004-.18 1.479997-.449998 2.1-.81.620003-.360002 1.119998-.819997 1.5-1.38.380002-.560003.57-1.219996.57-1.98 0-1.280006-.489995-2.289996-1.47-3.03-.980005-.740004-2.209993-1.369997-3.69-1.89s-3.079991-1.039997-4.8-1.56c-1.720009-.520003-3.319993-1.219996-4.8-2.1-1.480007-.880004-2.709995-2.039993-3.69-3.48-.980005-1.440007-1.47-3.339988-1.47-5.7 0-2.280011.449995-4.279991 1.35-6 .900004-1.720009 2.099992-3.159994 3.6-4.32 1.500008-1.160006 3.22999-2.029997 5.19-2.61 1.96001-.580003 3.97999-.87 6.06-.87 2.400012 0 4.719989.339997 6.96 1.02s4.259991 1.819992 6.06 3.42l-6.42 7.02z"/>
  </g>
</svg>