<svg xmlns="http://www.w3.org/2000/svg" width="184" height="92">
  <g fill="none" fill-rule="evenodd">
    <path fill="#1F2673" d="M92 46c25.4051 0 46 20.5949 46 46H92zM46 0v46H0C0 20.5949 20.5949 0 46 0z"/>
    <path fill="#FFBAC6" d="M0 46c25.4051 0 46 20.5949 46 46H0zM138 0v46H92c0-25.4051 20.5949-46 46-46z"/>
    <path fill="#F98B9E" d="M184 46c0 25.4051-20.5949 46-46 46V46zM92 0v46C66.5949 46 46 25.4051 46 0h46z"/>
    <path fill="#6783E2" d="M92 46c0 25.4051-20.5949 46-46 46V46zm92-46v46c-25.4051 0-46-20.5949-46-46h46z"/>
  </g>
</svg>