<svg xmlns="http://www.w3.org/2000/svg" width="930" height="600">
  <g fill="none" fill-rule="evenodd">
    <path fill="#FFF" d="M205 201.5874c2.7614 0 5 2.2386 5 5v87.8257c0 2.7615-2.2386 5-5 5h-90c-2.7614 0-5-2.2385-5-5v-87.8257c0-2.7614 2.2386-5 5-5h90zm220 0c2.7614 0 5 2.2386 5 5v87.8257c0 2.7615-2.2386 5-5 5h-90c-2.7614 0-5-2.2385-5-5v-87.8257c0-2.7614 2.2386-5 5-5h90zm-110 0c2.7614 0 5 2.2386 5 5v39.1744c0 2.7615-2.2386 5-5 5h-90c-2.7614 0-5-2.2385-5-5v-39.1744c0-2.7614 2.2386-5 5-5h90zm-220 0c2.7614 0 5 2.2386 5 5v39.1744c0 2.7615-2.2386 5-5 5H5c-2.7614 0-5-2.2385-5-5v-39.1744c0-2.7614 2.2386-5 5-5h90zM205 93.7617c2.7614 0 5 2.2385 5 5v87.8257c0 2.7614-2.2386 5-5 5h-90c-2.7614 0-5-2.2386-5-5V98.7617c0-2.7615 2.2386-5 5-5h90zm110 0c2.7614 0 5 2.2385 5 5v87.8257c0 2.7614-2.2386 5-5 5h-90c-2.7614 0-5-2.2386-5-5V98.7617c0-2.7615 2.2386-5 5-5h90zm110 0c2.7614 0 5 2.2385 5 5v87.8257c0 2.7614-2.2386 5-5 5h-90c-2.7614 0-5-2.2386-5-5V98.7617c0-2.7615 2.2386-5 5-5h90zm-330 0c2.7614 0 5 2.2385 5 5v87.8257c0 2.7614-2.2386 5-5 5H5c-2.7614 0-5-2.2386-5-5V98.7617c0-2.7615 2.2386-5 5-5h90zm365-.0867c2.7614 0 5 2.2386 5 5V186.5c0 2.7614-2.2386 5-5 5h-15c-2.7614 0-5-2.2386-5-5V98.675c0-2.7614 2.2386-5 5-5h15zM205 34.5872c2.7614 0 5 2.2386 5 5v39.1745c0 2.7614-2.2386 5-5 5h-90c-2.7614 0-5-2.2386-5-5V39.5872c0-2.7614 2.2386-5 5-5h90zm110 0c2.7614 0 5 2.2386 5 5v39.1745c0 2.7614-2.2386 5-5 5h-90c-2.7614 0-5-2.2386-5-5V39.5872c0-2.7614 2.2386-5 5-5h90zm110 0c2.7614 0 5 2.2386 5 5v39.1745c0 2.7614-2.2386 5-5 5h-90c-2.7614 0-5-2.2386-5-5V39.5872c0-2.7614 2.2386-5 5-5h90zm-330 0c2.7614 0 5 2.2386 5 5v40.4864c0 2.0368-1.6512 3.688-3.688 3.688H5c-2.7614 0-5-2.2385-5-5V39.5873c0-2.7614 2.2386-5 5-5h90zM460 34.5c2.7614 0 5 2.2386 5 5v39.175c0 2.7614-2.2386 5-5 5h-15c-2.7614 0-5-2.2386-5-5V39.5c0-2.7614 2.2386-5 5-5h15zM205 0c2.7614 0 5 2.2386 5 5v14.5872c0 2.7614-2.2386 5-5 5h-90c-2.7614 0-5-2.2386-5-5V5c0-2.7614 2.2386-5 5-5h90zm110 0c2.7614 0 5 2.2386 5 5v14.5872c0 2.7614-2.2386 5-5 5h-90c-2.7614 0-5-2.2386-5-5V5c0-2.7614 2.2386-5 5-5h90zm110 0c2.7614 0 5 2.2386 5 5v14.5872c0 2.7614-2.2386 5-5 5h-90c-2.7614 0-5-2.2386-5-5V5c0-2.7614 2.2386-5 5-5h90zM95 0c2.7614 0 5 2.2386 5 5v14.5872c0 2.7614-2.2386 5-5 5H5c-2.7614 0-5-2.2386-5-5V5c0-2.7614 2.2386-5 5-5h90z"/>
    <path stroke="#1F2673" stroke-linejoin="round" stroke-width="10" d="M50 30l55 60 55-60 55 60 55-60m55 60l55-60 55 60"/>
  </g>
</svg>