<svg xmlns="http://www.w3.org/2000/svg" xmlns:xlink="http://www.w3.org/1999/xlink" width="24" height="24">
  <defs>
    <path id="a" d="M10.1826 1.8922L11.3693.7056c.5024-.5025 1.3149-.5025 1.812 0l10.391 10.3857c.5025.5025.5025 1.315 0 1.812l-10.391 10.3911c-.5025.5025-1.315.5025-1.812 0l-1.1867-1.1866c-.5078-.5078-.497-1.3363.0214-1.8334l6.441-6.1363H1.2829C.5719 14.138 0 13.566 0 12.8552v-1.7104c0-.711.572-1.2829 1.2829-1.2829h15.362L10.204 3.7256c-.5238-.497-.5345-1.3256-.0214-1.8334z"/>
  </defs>
  <use fill="#6783E2" fill-rule="evenodd" xlink:href="#a"/>
</svg>