<svg xmlns="http://www.w3.org/2000/svg" xmlns:xlink="http://www.w3.org/1999/xlink" width="24" height="24">
  <defs>
    <path id="a" d="M13.8174 22.1078l-1.1867 1.1866c-.5024.5025-1.3149.5025-1.812 0L.4277 12.9087c-.5025-.5025-.5025-1.315 0-1.812L10.8186.7056c.5025-.5025 1.315-.5025 1.812 0l1.1867 1.1866c.5078.5078.497 1.3363-.0214 1.8334L7.355 9.862h15.3621c.711 0 1.2829.572 1.2829 1.2829v1.7104c0 .711-.572 1.2829-1.2829 1.2829H7.3551l6.4409 6.1363c.5238.497.5345 1.3256.0214 1.8334z"/>
  </defs>
  <use fill="#6783E2" fill-rule="evenodd" xlink:href="#a"/>
</svg>