<svg xmlns="http://www.w3.org/2000/svg" xmlns:xlink="http://www.w3.org/1999/xlink" width="24" height="24">
  <defs>
    <path id="a" d="M23.682 10.9864c-2.3453-3.9799-6.7194-6.6398-11.7028-6.6398-4.9855 0-9.3586 2.6618-11.7028 6.6398a1.9965 1.9965 0 0 0 0 2.0273c2.3453 3.9798 6.7194 6.6397 11.7028 6.6397 4.9855 0 9.3586-2.6618 11.7028-6.6398a1.9964 1.9964 0 0 0 0-2.0272zm-11.7028 6.6704c-3.1263 0-5.6568-2.53-5.6568-5.6568 0-3.1263 2.53-5.6568 5.6568-5.6568 3.1263 0 5.6568 2.53 5.6568 5.6568 0 3.1263-2.53 5.6568-5.6568 5.6568zM16.305 12c0 2.3891-1.9367 4.3258-4.3258 4.3258S7.6534 14.3891 7.6534 12c0-.7366.1843-1.43.509-2.037l-.0001.0013c0 .9838.7975 1.7812 1.7812 1.7812.9838 0 1.7813-.7975 1.7813-1.7812 0-.9837-.7975-1.7812-1.7813-1.7812h-.0013a4.3064 4.3064 0 0 1 2.037-.509c2.3891 0 4.3258 1.9368 4.3258 4.3259z"/>
  </defs>
  <use fill="#FFF" fill-rule="evenodd" xlink:href="#a"/>
</svg>