<svg xmlns="http://www.w3.org/2000/svg" xmlns:xlink="http://www.w3.org/1999/xlink" width="24" height="24">
  <defs>
    <path id="a" d="M9.305 15.61c0 1.045-.545 2.755-1.835 2.755s-1.835-1.71-1.835-2.755.545-2.755 1.835-2.755 1.835 1.71 1.835 2.755zM24 13.085c0 1.595-.16 3.285-.875 4.75-1.895 3.83-7.105 3.74-10.835 3.74-3.79 0-9.31.135-11.28-3.74C.28 16.385 0 14.68 0 13.085c0-2.095.695-4.075 2.075-5.68-.26-.79-.385-1.62-.385-2.44 0-1.075.245-1.615.73-2.59 2.265 0 3.715.45 5.44 1.8 1.45-.345 2.94-.5 4.435-.5 1.35 0 2.71.145 4.02.46 1.7-1.335 3.15-1.76 5.39-1.76.49.975.73 1.515.73 2.59 0 .82-.13 1.635-.385 2.41 1.375 1.62 1.95 3.615 1.95 5.71zm-3.215 2.525c0-2.195-1.335-4.13-3.675-4.13-.945 0-1.85.17-2.8.3-.745.115-1.49.16-2.255.16-.76 0-1.505-.045-2.255-.16-.935-.13-1.85-.3-2.8-.3-2.34 0-3.675 1.935-3.675 4.13 0 4.39 4.02 5.065 7.52 5.065h2.41c3.515 0 7.53-.67 7.53-5.065zm-4.13-2.755c-1.29 0-1.835 1.71-1.835 2.755s.545 2.755 1.835 2.755 1.835-1.71 1.835-2.755-.545-2.755-1.835-2.755z"/>
  </defs>
  <use fill="#FFF" fill-rule="evenodd" xlink:href="#a"/>
</svg>