<svg xmlns="http://www.w3.org/2000/svg" xmlns:xlink="http://www.w3.org/1999/xlink" width="24" height="24">
  <defs>
    <path id="a" d="M5.3612 23.9733H.3955V7.9857h4.9657v15.9876zM2.8757 5.8049C1.2882 5.8049 0 4.4899 0 2.9024S1.2882.0267 2.8757.0267c1.5876 0 2.8757 1.2882 2.8757 2.8757 0 1.5876-1.2881 2.9025-2.8757 2.9025zm21.0708 18.1684h-4.955v-7.7827c0-1.8547-.0374-4.2334-2.5817-4.2334-2.5817 0-2.9773 2.0152-2.9773 4.0998v7.9163H8.4722V7.9857h4.7625v2.1809h.0695c.6628-1.2561 2.2824-2.5817 4.6985-2.5817 5.0245 0 5.9492 3.3086 5.9492 7.6062v8.7822h-.0054z"/>
  </defs>
  <use fill="#FFF" fill-rule="evenodd" xlink:href="#a"/>
</svg>