<svg xmlns="http://www.w3.org/2000/svg" xmlns:xlink="http://www.w3.org/1999/xlink" width="24" height="24">
  <defs>
    <path id="a" d="M23.5453 8.9437c.1828-.1453.4547-.0093.4547.2204V18.75c0 1.2422-1.0078 2.25-2.25 2.25H2.25C1.0078 21 0 19.9922 0 18.75V9.1687c0-.2343.2672-.3656.4547-.2203 1.05.8157 2.4422 1.8516 7.2234 5.325.989.722 2.6578 2.2407 4.3219 2.2313 1.6734.014 3.375-1.5375 4.3266-2.2313 4.7812-3.4734 6.1687-4.514 7.2187-5.3297zM12 15c1.0875.0188 2.6531-1.3688 3.4406-1.9406 6.2203-4.514 6.6938-4.9078 8.1282-6.0328.2718-.211.4312-.5391.4312-.886V5.25C24 4.0078 22.9922 3 21.75 3H2.25C1.0078 3 0 4.0078 0 5.25v.8906c0 .3469.1594.6703.4313.886 1.4343 1.1203 1.9078 1.5187 8.128 6.0328C9.347 13.6312 10.9126 15.0188 12 15z"/>
  </defs>
  <use fill="#FFF" fill-rule="evenodd" xlink:href="#a"/>
</svg>